/* XPM */

static char *tree_21699498467[] = {
/* columns rows colors chars-per-pixel */
"64 64 9 1 "
"  c None",
". c #0C0E1A",
"X c #21110D",
"o c #082B0C",
"O c #342319",
"+ c #503625",
"@ c #114517",
"# c #347B2C",
"$ c #53A03B",
/* pixels */
"                                      oooooo                    ",
"                                      oooooo                    ",
"                oooooooo            oo$$$$$$oo                  ",
"                oooooooo            oo$$$$$$oo                  ",
"              oo$$$$$$$$oo    oooo  $$$$$$$$$$oooooo            ",
"              oo$$$$$$$$oo    oooo  $$$$$$$$$$oooooo            ",
"              oo$$$$$$$$$$oooo####oo$$$$$$$$$$oo####oo          ",
"              oo$$$$$$$$$$oooo####oo$$$$$$$$$$oo####oo          ",
"          oooooo$$$$$$$$$$$$oo$$$$oo$$$$$$$$oo##$$$$##oo        ",
"          oooooo$$$$$$$$$$$$oo$$$$oo$$$$$$$$oo##$$$$##oo        ",
"        oo##$$$$##$$$$$$$$$$$$$$$$##$$$$$$$$$$$$$$$$$$oo        ",
"        oo##$$$$##$$$$$$$$$$$$$$$$##$$$$$$$$$$$$$$$$$$oo        ",
"    oooooo$$$$$$$$$$$$$$$$$$$$$$$$$$$$$$$$$$$$$$$$$$##oo        ",
"    oooooo$$$$$$$$$$$$$$$$$$$$$$$$$$$$$$$$$$$$$$$$$$##oo        ",
"  oo$$$$oo$$$$$$$$$$$$$$$$$$$$$$$$$$$$$$$$$$$$$$$$##oooo        ",
"  oo$$$$oo$$$$$$$$$$$$$$$$$$$$$$$$$$$$$$$$$$$$$$$$##oooo        ",
"  oo$$$$$$$$$$$$$$$$$$$$$$$$$$$$$$$$$$$$$$$$$$$$$$$$$$$$oo      ",
"  oo$$$$$$$$$$$$$$$$$$$$$$$$$$$$$$$$$$$$$$$$$$$$$$$$$$$$oo      ",
"  oo$$##$$$$$$$$$$$$$$$$$$$$$$$$$$$$$$$$$$$$$$$$$$$$$$$$$$oo    ",
"  oo$$##$$$$$$$$$$$$$$$$$$$$$$$$$$$$$$$$$$$$$$$$$$$$$$$$$$oo    ",
"    oo$$$$$$$$$$$$$$$$$$$$$$$$$$$$$$$$$$$$$$$$$$$$$$$$$$$$$$oo  ",
"    oo$$$$$$$$$$$$$$$$$$$$$$$$$$$$$$$$$$$$$$$$$$$$$$$$$$$$$$oo  ",
"    oo$$$$$$$$$$$$$$$$$$$$$$$$$$$$$$$$$$$$$$$$$$$$##$$$$$$$$oo  ",
"    oo$$$$$$$$$$$$$$$$$$$$$$$$$$$$$$$$$$$$$$$$$$$$##$$$$$$$$oo  ",
"  oo##$$$$##$$$$$$$$$$$$$$$$$$$$$$$$$$$$$$$$$$$$$$$$##$$$$$$oo  ",
"  oo##$$$$##$$$$$$$$$$$$$$$$$$$$$$$$$$$$$$$$$$$$$$$$##$$$$$$oo  ",
"  oo$$$$$$####$$$$$$$$$$$$$$$$$$$$$$$$$$##$$$$$$$$$$@@@@####oo  ",
"  oo$$$$$$####$$$$$$$$$$$$$$$$$$$$$$$$$$##$$$$$$$$$$@@@@####oo  ",
"oo##$$$$##$$$$$$$$$$$$$$$$$$$$$$$$$$$$$$$$@@##$$$$##$$$$oooo    ",
"oo##$$$$##$$$$$$$$$$$$$$$$$$$$$$$$$$$$$$$$@@##$$$$##$$$$oooo    ",
"oo####@@@@$$$$$$$$$$$$$$$$$$$$$$$$$$$$$$$$$$@@@@####$$$$$$oo    ",
"oo####@@@@$$$$$$$$$$$$$$$$$$$$$$$$$$$$$$$$$$@@@@####$$$$$$oo    ",
"oooo@@@@$$$$$$$$##$$$$$$$$$$$$$$$$$$$$$$$$$$$$####$$$$$$##@@oo  ",
"oooo@@@@$$$$$$$$##$$$$$$$$$$$$$$$$$$$$$$$$$$$$####$$$$$$##@@oo  ",
"  oooo@@$$$$$$$$##$$$$$$$$##$$$$$$$$$$$$##$$$$$$############oo  ",
"  oooo@@$$$$$$$$##$$$$$$$$##$$$$$$$$$$$$##$$$$$$############oo  ",
"  oo####$$$$$$##$$$$$$$$$$$$##$$$$$$$$$$$$##$$$$####@@@@####oo  ",
"  oo####$$$$$$##$$$$$$$$$$$$##$$$$$$$$$$$$##$$$$####@@@@####oo  ",
"oo##$$$$########$$$$##$$$$$$##$$$$$$$$$$$$######$$$$##@@@@@@oo  ",
"oo##$$$$########$$$$##$$$$$$##$$$$$$$$$$$$######$$$$##@@@@@@oo  ",
"oo@@$$$$$$$$######$$$$########$$$$$$$$$$########$$$$$$##@@@@oo  ",
"oo@@$$$$$$$$######$$$$########$$$$$$$$$$########$$$$$$##@@@@oo  ",
"  oo##$$$$$$$$##$$$$$$$$####$$##$$$$######@@$$$$##$$$$##ooooXX  ",
"  oo##$$$$$$$$##$$$$$$$$####$$##$$$$######@@$$$$##$$$$##ooooXX  ",
"  XXoo##@@$$$$##$$$$$$$$##$$$$$$##$$$$@@@@##$$$$$$$$####@@ooOOXX",
"  XXoo##@@$$$$##$$$$$$$$##$$$$$$##$$$$@@@@##$$$$$$$$####@@ooOOXX",
"XXoo######@@####$$$$$$##@@$$$$$$$$$$$$$$oo####@@$$####@@@@ooOOXX",
"XXoo######@@####$$$$$$##@@$$$$$$$$$$$$$$oo####@@$$####@@@@ooOOXX",
"XXoo######oo####@@####@@@@##$$$$##$$$$##oooo@@####@@@@@@@@ooOOXX",
"XXoo######oo####@@####@@@@##$$$$##$$$$##oooo@@####@@@@@@@@ooOOXX",
"XXoo####@@oo@@@@######@@@@########@@####@@oo@@####oo@@@@@@oo....",
"XXoo####@@oo@@@@######@@@@########@@####@@oo@@####oo@@@@@@oo....",
"XXOOoo@@@@oooo@@########@@@@######@@@@@@@@oooo@@@@oooooooo......",
"XXOOoo@@@@oooo@@########@@@@######@@@@@@@@oooo@@@@oooooooo......",
"......ooooOOoo@@@@oo####@@@@oo@@@@@@@@@@ooOOOOooooXX............",
"......ooooOOoo@@@@oo####@@@@oo@@@@@@@@@@ooOOOOooooXX............",
"  ......XX++++oooooo@@@@@@ooOOooooooooooXXOO++++++OOXX........  ",
"  ......XX++++oooooo@@@@@@ooOOooooooooooXXOO++++++OOXX........  ",
"    ....XX++++++OOOOoooooo++++++OOXX......XXOO++++++XX......    ",
"    ....XX++++++OOOOoooooo++++++OOXX......XXOO++++++XX......    ",
"      ......++OOOOXX....XX++++OOXX......................        ",
"      ......++OOOOXX....XX++++OOXX......................        ",
"          ..........................................            "
"          ..........................................            "
};
