/* XPM */

static char *tree_11699498467[] = {
/* columns rows colors chars-per-pixel */
"64 64 7 1 "
"  c None",
". c #0C0E1A",
"X c #21110D",
"o c #342319",
"O c #503625",
"+ c #755338",
"@ c #9D7658",
/* pixels */
"                                                                ",
"                                                                ",
"                                                                ",
"                                                                ",
"                                                                ",
"                                                                ",
"                                                                ",
"                                                                ",
"                                                                ",
"                                                                ",
"                                                                ",
"                                                                ",
"                                                                ",
"                                                                ",
"                                                                ",
"                                                                ",
"                        XXXXXXXXXXXXXXXX                        ",
"                        XXXXXXXXXXXXXXXX                        ",
"                    XXXX@@@@++++@@++@@++XXXX                    ",
"                    XXXX@@@@++++@@++@@++XXXX                    ",
"                  XX++@@++++@@@@@@@@++++@@++XX                  ",
"                  XX++@@++++@@@@@@@@++++@@++XX                  ",
"                XX++@@@@++@@@@@@@@@@@@++@@@@++XX                ",
"                XX++@@@@++@@@@@@@@@@@@++@@@@++XX                ",
"            XXXXoooo@@@@@@++++++@@@@@@@@@@@@ooXX                ",
"            XXXXoooo@@@@@@++++++@@@@@@@@@@@@ooXX                ",
"          XX++OOooOO++@@@@@@++++++++++++@@++OOOOXX              ",
"          XX++OOooOO++@@@@@@++++++++++++@@++OOOOXX              ",
"        XX++++ooooOOoo++OO@@@@@@@@@@@@@@++OOOO++XX              ",
"        XX++++ooooOOoo++OO@@@@@@@@@@@@@@++OOOO++XX              ",
"      ..XX++XXoo++OOOOoo++++++++++OO++++OOOOooOO++XX            ",
"      ..XX++XXoo++OOOOoo++++++++++OO++++OOOOooOO++XX            ",
"      ..XXXXoo++++++OOoo++++++++OOOOOO++++OOooooOOooXX          ",
"      ..XXXXoo++++++OOoo++++++++OOOOOO++++OOooooOOooXX          ",
"        ..XX++++OOOOOOXXOO++OOOOOO++OO++++OOoooo++++ooXX        ",
"        ..XX++++OOOOOOXXOO++OOOOOO++OO++++OOoooo++++ooXX        ",
"        XX++++++++OOooXX++++++OO++++++++++OOooooOO++++XX        ",
"        XX++++++++OOooXX++++++OO++++++++++OOooooOO++++XX        ",
"        XX++++++++OOXXOO++++++OO++oo++++++++OOXXooOOOOXX..      ",
"        XX++++++++OOXXOO++++++OO++oo++++++++OOXXooOOOOXX..      ",
"      ..XX++++++OOooXX++++++++++ooooOO++OO++++XXXXOOOOXX..      ",
"      ..XX++++++OOooXX++++++++++ooooOO++OO++++XXXXOOOOXX..      ",
"      ..XXOOOOOOooXXOO++++++OO++ooXXooOO++++++++XX......        ",
"      ..XXOOOOOOooXXOO++++++OO++ooXXooOO++++++++XX......        ",
"        ..........XX++++++OOOOOOooXXooOO++++++++++XX..          ",
"        ..........XX++++++OOOOOOooXXooOO++++++++++XX..          ",
"              ....XX++++++OOOOooXXXXXXOOOO++++++OOXX..          ",
"              ....XX++++++OOOOooXXXXXXOOOO++++++OOXX..          ",
"                ..XXOOOOOOOOOOoo......XXOOOOOOOOOOXX..          ",
"                ..XXOOOOOOOOOOoo......XXOOOOOOOOOOXX..          ",
"                  ................    ..............            ",
"                  ................    ..............            ",
"                                                                ",
"                                                                ",
"                                                                ",
"                                                                ",
"                                                                ",
"                                                                ",
"                                                                ",
"                                                                ",
"                                                                ",
"                                                                ",
"                                                                "
"                                                                "
};
