/* XPM */

static char *tree1699498468[] = {
/* columns rows colors chars-per-pixel */
"96 128 10 1 "
"  c None",
". c #0C0E1A",
"X c #21110D",
"o c #082B0C",
"O c #342319",
"+ c #503625",
"@ c #114517",
"# c #347B2C",
"$ c #755338",
"% c #53A03B",
/* pixels */
"                                        oooooooooo                                              ",
"                                        oooooooooo                                              ",
"                                      oo##%%%%%%##oooo    oooooooo                              ",
"                                      oo##%%%%%%##oooo    oooooooo                              ",
"                          oooooooo  oo##%%%%%%%%%%%%##oooo##%%%%%%oo                            ",
"                          oooooooo  oo##%%%%%%%%%%%%##oooo##%%%%%%oo                            ",
"                        oo##%%%%##oo##%%%%%%%%%%%%%%%%%%##%%%%%%%%%%oooooooo                    ",
"                        oo##%%%%##oo##%%%%%%%%%%%%%%%%%%##%%%%%%%%%%oooooooo                    ",
"                      oo##%%%%%%%%%%##%%%%%%%%%%%%%%%%%%##%%%%%%%%%%oo%%%%##oo                  ",
"                      oo##%%%%%%%%%%##%%%%%%%%%%%%%%%%%%##%%%%%%%%%%oo%%%%##oo                  ",
"                      oo##%%%%%%%%%%%%##%%%%%%%%%%%%%%%%%%%%%%%%%%%%%%%%%%%%##oo                ",
"                      oo##%%%%%%%%%%%%##%%%%%%%%%%%%%%%%%%%%%%%%%%%%%%%%%%%%##oo                ",
"                oooooo@@@@%%%%%%%%%%%%%%%%%%%%%%%%%%%%%%%%%%%%%%%%%%%%%%%%%%##oo                ",
"                oooooo@@@@%%%%%%%%%%%%%%%%%%%%%%%%%%%%%%%%%%%%%%%%%%%%%%%%%%##oo                ",
"              oo####@@%%%%##%%%%%%%%%%%%%%%%%%%%%%%%%%%%%%%%%%%%%%%%%%%%%%%%@@@@oo              ",
"              oo####@@%%%%##%%%%%%%%%%%%%%%%%%%%%%%%%%%%%%%%%%%%%%%%%%%%%%%%@@@@oo              ",
"            oo##%%%%##%%%%%%%%%%%%%%%%%%%%%%%%%%%%%%%%%%%%%%%%%%%%%%%%%%%%@@%%%%oo              ",
"            oo##%%%%##%%%%%%%%%%%%%%%%%%%%%%%%%%%%%%%%%%%%%%%%%%%%%%%%%%%%@@%%%%oo              ",
"            oo%%%%%%%%%%%%%%%%%%%%%%%%%%%%%%%%%%%%%%%%%%%%%%%%%%%%%%%%%%%%%%%%%%##oo            ",
"            oo%%%%%%%%%%%%%%%%%%%%%%%%%%%%%%%%%%%%%%%%%%%%%%%%%%%%%%%%%%%%%%%%%%##oo            ",
"          oo##%%%%%%%%%%%%%%%%%%%%%%%%%%%%%%%%%%%%%%%%%%%%%%##%%%%%%%%%%%%%%%%%%##oo            ",
"          oo##%%%%%%%%%%%%%%%%%%%%%%%%%%%%%%%%%%%%%%%%%%%%%%##%%%%%%%%%%%%%%%%%%##oo            ",
"        oo######%%%%%%%%%%%%%%%%%%%%%%%%%%%%####@@##%%##@@##%%%%%%%%%%%%%%%%%%%%%%##oo          ",
"        oo######%%%%%%%%%%%%%%%%%%%%%%%%%%%%####@@##%%##@@##%%%%%%%%%%%%%%%%%%%%%%##oo          ",
"        oo######%%%%%%%%%%%%%%%%%%%%%%%%%%%%%%%%##@@@@@@####%%%%%%%%%%%%%%%%%%%%%%##oo          ",
"        oo######%%%%%%%%%%%%%%%%%%%%%%%%%%%%%%%%##@@@@@@####%%%%%%%%%%%%%%%%%%%%%%##oo          ",
"      oo######%%%%%%%%%%%%%%%%%%%%%%%%%%%%%%%%%%%%%%##@@##%%%%%%%%%%%%%%%%%%%%%%%%%%oo          ",
"      oo######%%%%%%%%%%%%%%%%%%%%%%%%%%%%%%%%%%%%%%##@@##%%%%%%%%%%%%%%%%%%%%%%%%%%oo          ",
"      oo##%%##%%%%%%%%%%%%%%%%%%%%%%%%%%%%%%%%%%%%%%%%##%%%%%%%%%%%%%%%%%%%%%%%%%%%%##oo        ",
"      oo##%%##%%%%%%%%%%%%%%%%%%%%%%%%%%%%%%%%%%%%%%%%##%%%%%%%%%%%%%%%%%%%%%%%%%%%%##oo        ",
"      oo%%%%%%##%%%%@@%%%%%%%%%%%%%%%%%%%%%%%%%%%%%%%%%%%%%%%%%%%%%%%%%%%%%%%%%%%%%%%%oo        ",
"      oo%%%%%%##%%%%@@%%%%%%%%%%%%%%%%%%%%%%%%%%%%%%%%%%%%%%%%%%%%%%%%%%%%%%%%%%%%%%%%oo        ",
"      oo##%%%%####@@@@%%%%%%%%%%%%%%%%%%%%%%%%%%%%%%%%%%%%%%%%%%%%%%%%%%%%%%%%%%%%%%%%oo        ",
"      oo##%%%%####@@@@%%%%%%%%%%%%%%%%%%%%%%%%%%%%%%%%%%%%%%%%%%%%%%%%%%%%%%%%%%%%%%%%oo        ",
"      oo########@@@@##%%%%%%%%%%%%%%%%%%%%%%%%%%%%%%%%%%%%%%%%%%%%%%%%%%%%%%%%%%%%%%##oo        ",
"      oo########@@@@##%%%%%%%%%%%%%%%%%%%%%%%%%%%%%%%%%%%%%%%%%%%%%%%%%%%%%%%%%%%%%%##oo        ",
"        oo@@@@@@@@######%%%%%%%%%%%%%%%%%%%%%%%%%%%%%%%%%%%%%%%%%%%%%%%%%%%%%%%%%%%%oo          ",
"        oo@@@@@@@@######%%%%%%%%%%%%%%%%%%%%%%%%%%%%%%%%%%%%%%%%%%%%%%%%%%%%%%%%%%%%oo          ",
"      oo@@@@##@@##%%%%##%%%%%%%%%%%%%%%%%%%%%%%%%%%%%%%%%%%%%%%%%%%%%%%%%%%%%%%%%%##oo          ",
"      oo@@@@##@@##%%%%##%%%%%%%%%%%%%%%%%%%%%%%%%%%%%%%%%%%%%%%%%%%%%%%%%%%%%%%%%%##oo          ",
"    oo@@%%%%##@@##%%%%%%##%%%%%%%%%%%%%%%%%%%%%%%%%%%%%%%%%%%%%%%%%%%%%%%%%%%%%%%%%%##oo        ",
"    oo@@%%%%##@@##%%%%%%##%%%%%%%%%%%%%%%%%%%%%%%%%%%%%%%%%%%%%%%%%%%%%%%%%%%%%%%%%%##oo        ",
"    oo##%%%%##@@####%%%%%%%%%%%%%%%%%%%%%%%%%%%%%%%%%%%%%%%%%%%%%%%%%%%%%%%%%%%%%%%%##oooo      ",
"    oo##%%%%##@@####%%%%%%%%%%%%%%%%%%%%%%%%%%%%%%%%%%%%%%%%%%%%%%%%%%%%%%%%%%%%%%%%##oooo      ",
"  oo##%%%%####@@@@##%%%%%%%%%%%%%%%%%%%%%%%%%%%%%%%%%%%%%%%%%%%%%%%%%%%%%%%%##%%%%%%%%##oo      ",
"  oo##%%%%####@@@@##%%%%%%%%%%%%%%%%%%%%%%%%%%%%%%%%%%%%%%%%%%%%%%%%%%%%%%%%##%%%%%%%%##oo      ",
"  oo##%%%%%%%%##@@##%%%%%%%%%%%%##%%%%%%%%%%%%%%%%%%%%%%%%%%%%%%%%%%%%%%%%####@@%%%%%%##oo      ",
"  oo##%%%%%%%%##@@##%%%%%%%%%%%%##%%%%%%%%%%%%%%%%%%%%%%%%%%%%%%%%%%%%%%%%####@@%%%%%%##oo      ",
"  oo##%%%%%%%%%%####%%%%%%%%%%%%##@@%%%%%%%%%%%%%%%%%%%%%%%%%%%%%%%%%%%%%%@@@@@@@@######oo      ",
"  oo##%%%%%%%%%%####%%%%%%%%%%%%##@@%%%%%%%%%%%%%%%%%%%%%%%%%%%%%%%%%%%%%%@@@@@@@@######oo      ",
"  oo@@##%%%%%%%%##@@@@%%%%%%%%######@@@@##%%%%%%%%####%%%%%%%%%%%%%%%%%%%%%%@@%%%%####oo        ",
"  oo@@##%%%%%%%%##@@@@%%%%%%%%######@@@@##%%%%%%%%####%%%%%%%%%%%%%%%%%%%%%%@@%%%%####oo        ",
"    oo@@####%%%%%%%%@@@@%%%%##%%%%%%%%@@@@##%%%%######%%%%%%%%%%%%%%%%%%%%%%##%%%%%%##oo        ",
"    oo@@####%%%%%%%%@@@@%%%%##%%%%%%%%@@@@##%%%%######%%%%%%%%%%%%%%%%%%%%%%##%%%%%%##oo        ",
"    oo@@@@@@@@##%%%%%%@@@@####%%%%%%%%%%##@@########%%%%%%%%%%%%%%%%%%%%%%%%%%##%%%%####oo      ",
"    oo@@@@@@@@##%%%%%%@@@@####%%%%%%%%%%##@@########%%%%%%%%%%%%%%%%%%%%%%%%%%##%%%%####oo      ",
"      oo@@##%%@@##%%%%######%%%%%%%%%%%%%%######%%%%%%%%%%%%%%%%%%%%%%%%%%%%%%##########oo      ",
"      oo@@##%%@@##%%%%######%%%%%%%%%%%%%%######%%%%%%%%%%%%%%%%%%%%%%%%%%%%%%##########oo      ",
"      oo@@%%%%########@@##%%%%%%%%%%%%%%%%%%##%%%%%%%%%%%%%%%%%%%%%%%%%%%%%%%%########@@oo      ",
"      oo@@%%%%########@@##%%%%%%%%%%%%%%%%%%##%%%%%%%%%%%%%%%%%%%%%%%%%%%%%%%%########@@oo      ",
"    oo@@@@%%%%%%##@@@@@@##%%%%##%%%%%%%%%%####%%%%%%%%%%%%%%%%%%%%%%%%##%%%%@@########@@@@oo    ",
"    oo@@@@%%%%%%##@@@@@@##%%%%##%%%%%%%%%%####%%%%%%%%%%%%%%%%%%%%%%%%##%%%%@@########@@@@oo    ",
"    oo@@##@@####@@@@%%##@@######%%%%%%%%%%######%%%%%%%%%%%%%%%%%%%%%%%%@@@@##########@@@@oo    ",
"    oo@@##@@####@@@@%%##@@######%%%%%%%%%%######%%%%%%%%%%%%%%%%%%%%%%%%@@@@##########@@@@oo    ",
"    oo##%%%%@@@@@@%%%%%%%%####%%%%%%%%%%##%%%%####%%##%%%%@@%%%%%%##%%%%@@%%%%######@@@@@@oo    ",
"    oo##%%%%@@@@@@%%%%%%%%####%%%%%%%%%%##%%%%####%%##%%%%@@%%%%%%##%%%%@@%%%%######@@@@@@oo    ",
"    oo##%%%%##@@@@%%%%%%%%%%##%%%%##%%%%%%%%%%%%%%%%%%@@@@##%%%%##%%######%%%%%%######@@@@oo    ",
"    oo##%%%%##@@@@%%%%%%%%%%##%%%%##%%%%%%%%%%%%%%%%%%@@@@##%%%%##%%######%%%%%%######@@@@oo    ",
"    oo@@####@@@@@@@@%%##%%%%##########%%%%%%%%%%%%%%%%%%@@######%%%%%%######%%%%########@@oo    ",
"    oo@@####@@@@@@@@%%##%%%%##########%%%%%%%%%%%%%%%%%%@@######%%%%%%######%%%%########@@oo    ",
"      oo@@@@@@@@##@@@@@@##################%%%%%%%%%%%%%%######%%%%%%%%############@@####oo      ",
"      oo@@@@@@@@##@@@@@@##################%%%%%%%%%%%%%%######%%%%%%%%############@@####oo      ",
"        oo@@@@##%%%%@@########@@####%%%%##%%%%%%%%%%%%%%##########%%%%@@####@@####@@@@@@oo      ",
"        oo@@@@##%%%%@@########@@####%%%%##%%%%%%%%%%%%%%##########%%%%@@####@@####@@@@@@oo      ",
"        oo@@oo@@%%%%##%%######@@@@%%%%%%##@@%%%%%%%%%%%%%%####@@####@@########@@@@@@@@oo        ",
"        oo@@oo@@%%%%##%%######@@@@%%%%%%##@@%%%%%%%%%%%%%%####@@####@@########@@@@@@@@oo        ",
"          oooooo@@##%%%%%%##%%##@@%%%%####@@%%%%%%%%##%%%%##@@@@@@@@@@########@@@@@@oo          ",
"          oooooo@@##%%%%%%##%%##@@%%%%####@@%%%%%%%%##%%%%##@@@@@@@@@@########@@@@@@oo          ",
"            oo@@@@@@%%%%@@%%%%%%##########@@##%%%%############@@oo@@@@####@@@@@@oooo            ",
"            oo@@@@@@%%%%@@%%%%%%##########@@##%%%%############@@oo@@@@####@@@@@@oooo            ",
"            oo@@@@@@@@@@##%%%%%%##@@####@@##############@@####@@oo@@@@@@@@@@@@@@oo              ",
"            oo@@@@@@@@@@##%%%%%%##@@####@@##############@@####@@oo@@@@@@@@@@@@@@oo              ",
"              oo@@@@oo@@########@@oo@@@@@@########@@####@@@@@@@@oooooo@@@@@@@@@@oo              ",
"              oo@@@@oo@@########@@oo@@@@@@########@@####@@@@@@@@oooooo@@@@@@@@@@oo              ",
"                oooooo@@@@@@@@@@@@oooo@@@@######@@@@@@@@@@@@@@oooooooooooo@@@@oo                ",
"                oooooo@@@@@@@@@@@@oooo@@@@######@@@@@@@@@@@@@@oooooooooooo@@@@oo                ",
"                    oo@@@@@@@@@@oooooo@@@@@@@@@@@@oo@@@@@@@@oooooooooooooooooo                  ",
"                    oo@@@@@@@@@@oooooo@@@@@@@@@@@@oo@@@@@@@@oooooooooooooooooo                  ",
"                      oooooooooooooooooo@@@@@@@@ooooooooooooOOXX....oooo........                ",
"                      oooooooooooooooooo@@@@@@@@ooooooooooooOOXX....oooo........                ",
"                        ....XXXXOOOO++ooooooooooOOOOOOOOOOOOOOXX..................              ",
"                        ....XXXXOOOO++ooooooooooOOOOOOOOOOOOOOXX..................              ",
"                    ......XX$$++OO++++++OOOO++++OOOOOOOO++OOOO++XX..................            ",
"                    ......XX$$++OO++++++OOOO++++OOOOOOOO++OOOO++XX..................            ",
"                  ......XX$$$$OOOO++OO++OO$$$$++++OOOO++++OOOO$$XX..................            ",
"                  ......XX$$$$OOOO++OO++OO$$$$++++OOOO++++OOOO$$XX..................            ",
"                ........XX$$XXOO$$++++OO$$$$$$$$++OO++$$++++OO++$$XX..................          ",
"                ........XX$$XXOO$$++++OO$$$$$$$$++OO++$$++++OO++$$XX..................          ",
"              ..........XXXXOO$$$$$$++OO$$$$$$$$++++++$$$$++OOOO++OOXX................          ",
"              ..........XXXXOO$$$$$$++OO$$$$$$$$++++++$$$$++OOOO++OOXX................          ",
"              ............XX$$$$++++++XX++$$++++++$$++$$$$++OOOO$$$$OOXX..............          ",
"              ............XX$$$$++++++XX++$$++++++$$++$$$$++OOOO$$$$OOXX..............          ",
"              ..........XX$$$$$$$$++OOXX$$$$$$++$$$$$$$$$$++OOOO++$$$$XX..............          ",
"              ..........XX$$$$$$$$++OOXX$$$$$$++$$$$$$$$$$++OOOO++$$$$XX..............          ",
"              ..........XX$$$$$$$$++XX++$$$$$$++$$OO$$$$$$$$++XXOO++$$XX..............          ",
"              ..........XX$$$$$$$$++XX++$$$$$$++$$OO$$$$$$$$++XXOO++$$XX..............          ",
"              ..........XX$$$$$$++OOXX$$$$$$$$$$OOOO++$$++$$$$XXXX++++XX..............          ",
"              ..........XX$$$$$$++OOXX$$$$$$$$$$OOOO++$$++$$$$XXXX++++XX..............          ",
"              ..........XX++++++OOXX++$$$$$$++$$OOXXOO++$$$$$$$$XX....................          ",
"              ..........XX++++++OOXX++$$$$$$++$$OOXXOO++$$$$$$$$XX....................          ",
"              ....................XX$$$$$$++++++OOXXOO++$$$$$$$$$$XX................            ",
"              ....................XX$$$$$$++++++OOXXOO++$$$$$$$$$$XX................            ",
"                ..................XX$$$$$$++++OOXXXXXX++++$$$$$$++XX................            ",
"                ..................XX$$$$$$++++OOXXXXXX++++$$$$$$++XX................            ",
"                ..................XX++++++++++OO......XX++++++++++XX..............              ",
"                ..................XX++++++++++OO......XX++++++++++XX..............              ",
"                  ................................................................              ",
"                  ................................................................              ",
"                  ..............................................................                ",
"                  ..............................................................                ",
"                    ..........................................................                  ",
"                    ..........................................................                  ",
"                      ......................................................                    ",
"                      ......................................................                    ",
"                        ................................................                        ",
"                        ................................................                        ",
"                                ......................      ........                            "
"                                ......................      ........                            "
};
