/* XPM */

static char *tree_31699498467[] = {
/* columns rows colors chars-per-pixel */
"64 96 10 1 "
"  c None",
". c #0C0E1A",
"X c #21110D",
"o c #082B0C",
"O c #342319",
"+ c #503625",
"@ c #114517",
"# c #347B2C",
"$ c #755338",
"% c #53A03B",
/* pixels */
"                                                                ",
"                                                                ",
"                                                                ",
"                                                                ",
"                                                                ",
"                                                                ",
"                                                                ",
"                                                                ",
"                                                                ",
"                                                                ",
"                                                                ",
"                                                                ",
"                          oooooooooo    oooo                    ",
"                          oooooooooo    oooo                    ",
"                        oo##%%%%%%%%oooo%%%%oo                  ",
"                        oo##%%%%%%%%oooo%%%%oo                  ",
"                    oooo##%%%%%%%%%%##%%%%##oo                  ",
"                    oooo##%%%%%%%%%%##%%%%##oo                  ",
"                  oo####%%%%%%%%%%%%%%####oooo                  ",
"                  oo####%%%%%%%%%%%%%%####oooo                  ",
"                oo%%%%%%##%%%%%%%%%%%%%%%%%%##oo                ",
"                oo%%%%%%##%%%%%%%%%%%%%%%%%%##oo                ",
"                oo##%%%%%%%%%%%%%%%%%%%%%%%%%%##oo              ",
"                oo##%%%%%%%%%%%%%%%%%%%%%%%%%%##oo              ",
"              oo%%%%%%%%%%%%%%%%%%%%%%%%%%%%%%##oo              ",
"              oo%%%%%%%%%%%%%%%%%%%%%%%%%%%%%%##oo              ",
"              oo##%%%%%%%%%%%%%%%%%%%%%%%%%%%%%%oo              ",
"              oo##%%%%%%%%%%%%%%%%%%%%%%%%%%%%%%oo              ",
"                oo##%%%%%%%%%%%%%%%%%%%%##%%%%%%oo              ",
"                oo##%%%%%%%%%%%%%%%%%%%%##%%%%%%oo              ",
"              oo%%%%%%%%%%%%%%%%%%%%%%%%%%####oo                ",
"              oo%%%%%%%%%%%%%%%%%%%%%%%%%%####oo                ",
"              oo%%##%%%%%%%%%%%%%%%%%%%%%%%%%%##oo              ",
"              oo%%##%%%%%%%%%%%%%%%%%%%%%%%%%%##oo              ",
"              oo##%%%%%%%%%%%%%%%%%%%%%%%%##%%%%##oo            ",
"              oo##%%%%%%%%%%%%%%%%%%%%%%%%##%%%%##oo            ",
"            oo##%%%%%%%%%%%%%%%%%%%%%%%%##@@%%%%%%oo            ",
"            oo##%%%%%%%%%%%%%%%%%%%%%%%%##@@%%%%%%oo            ",
"            oo##%%%%%%%%%%%%%%%%%%%%%%%%@@%%##%%%%oo            ",
"            oo##%%%%%%%%%%%%%%%%%%%%%%%%@@%%##%%%%oo            ",
"            oo##%%%%##%%##%%%%%%%%%%%%##%%%%%%@@##oo            ",
"            oo##%%%%##%%##%%%%%%%%%%%%##%%%%%%@@##oo            ",
"          oo##oo##%%%%##%%%%%%%%%%%%%%%%%%%%%%##oo              ",
"          oo##oo##%%%%##%%%%%%%%%%%%%%%%%%%%%%##oo              ",
"          oo##%%%%%%%%##%%%%%%##%%%%%%%%%%%%%%%%%%oo            ",
"          oo##%%%%%%%%##%%%%%%##%%%%%%%%%%%%%%%%%%oo            ",
"        oo##%%%%%%%%%%%%##%%%%@@##%%%%%%%%%%%%%%%%oo            ",
"        oo##%%%%%%%%%%%%##%%%%@@##%%%%%%%%%%%%%%%%oo            ",
"        oo##%%%%%%%%%%%%%%##@@%%%%%%%%%%%%%%%%%%oooo            ",
"        oo##%%%%%%%%%%%%%%##@@%%%%%%%%%%%%%%%%%%oooo            ",
"        oo##%%@@%%##%%%%%%%%%%%%%%%%%%%%%%%%%%%%%%oo            ",
"        oo##%%@@%%##%%%%%%%%%%%%%%%%%%%%%%%%%%%%%%oo            ",
"          oo####@@@@%%%%%%%%%%%%%%%%%%%%%%%%%%%%%%%%oo          ",
"          oo####@@@@%%%%%%%%%%%%%%%%%%%%%%%%%%%%%%%%oo          ",
"            oooo%%@@@@%%%%%%%%%%%%%%%%%%%%%%%%##%%%%oo          ",
"            oooo%%@@@@%%%%%%%%%%%%%%%%%%%%%%%%##%%%%oo          ",
"            oo##%%%%%%%%%%%%%%%%##%%##%%%%%%%%@@%%%%oo          ",
"            oo##%%%%%%%%%%%%%%%%##%%##%%%%%%%%@@%%%%oo          ",
"          oo##%%%%%%%%%%%%%%%%%%####%%%%%%%%@@##%%##oo          ",
"          oo##%%%%%%%%%%%%%%%%%%####%%%%%%%%@@##%%##oo          ",
"          oo%%%%%%%%%%%%%%%%%%##%%%%%%%%##@@##@@oooooo          ",
"          oo%%%%%%%%%%%%%%%%%%##%%%%%%%%##@@##@@oooooo          ",
"          oo##%%%%%%%%%%%%%%%%%%%%##%%%%%%%%%%##@@oo            ",
"          oo##%%%%%%%%%%%%%%%%%%%%##%%%%%%%%%%##@@oo            ",
"          oo@@@@##%%%%##%%##%%%%%%%%##%%%%%%%%####oo            ",
"          oo@@@@##%%%%##%%##%%%%%%%%##%%%%%%%%####oo            ",
"            oooooo@@##%%%%@@##%%%%%%##%%####%%%%##oo            ",
"            oooooo@@##%%%%@@##%%%%%%##%%####%%%%##oo            ",
"              oo@@##%%%%%%##@@##%%%%%%%%%%##oo%%%%oo            ",
"              oo@@##%%%%%%##@@##%%%%%%%%%%##oo%%%%oo            ",
"            oo@@##%%%%%%%%##@@@@@@##%%%%%%####oo%%oo            ",
"            oo@@##%%%%%%%%##@@@@@@##%%%%%%####oo%%oo            ",
"            oo@@%%##%%%%##%%%%@@####%%%%%%%%##oooo              ",
"            oo@@%%##%%%%##%%%%@@####%%%%%%%%##oooo              ",
"            oo@@@@@@oo##%%%%%%####%%%%%%##%%##@@oo              ",
"            oo@@@@@@oo##%%%%%%####%%%%%%##%%##@@oo              ",
"            oo@@@@oooo%%##@@##%%@@%%%%##@@######oo              ",
"            oo@@@@oooo%%##@@##%%@@%%%%##@@######oo              ",
"              oooo@@oooo@@@@@@oo@@@@@@oooo@@####oo              ",
"              oooo@@oooo@@@@@@oo@@@@@@oooo@@####oo              ",
"                oo@@@@oo@@@@ooOOoo@@@@@@oo@@@@oo                ",
"                oo@@@@oo@@@@ooOOoo@@@@@@oo@@@@oo                ",
"              ....ooooooooooOO++OOoooooooooooo....              ",
"              ....ooooooooooOO++OOoooooooooooo....              ",
"            ........XXOO++XX$$$$$$++++OOXXXX........            ",
"            ........XXOO++XX$$$$$$++++OOXXXX........            ",
"            ........XX++++OO$$$$++++XX$$++XX........            ",
"            ........XX++++OO$$$$++++XX$$++XX........            ",
"            ..........XXXXXXOO$$++XXXXXXXX..........            ",
"            ..........XXXXXXOO$$++XXXXXXXX..........            ",
"              ..............XXXXXXXX..............              ",
"              ..............XXXXXXXX..............              ",
"                ................................                ",
"                ................................                ",
"                      ......................                    "
"                      ......................                    "
};
