/* XPM */

static char *result[] = {
/* columns rows colors chars-per-pixel */
"96 96 8 1 "
"  c black",
". c #0C0E19",
"X c #402717",
"o c #573A23",
"O c #AC7B5D",
"+ c #1D438A",
"@ c #2C65B5",
"# c None",
/* pixels */
"################################################################################################",
"################################################################################################",
"################################################################################################",
"################################################################################################",
"################################################################################################",
"################################################################################################",
"################################################################################################",
"################################################################################################",
"################################################################################################",
"################################################################################################",
"################################################################################################",
"################################################################################################",
"################################################################################################",
"################################################################################################",
"################################################################################################",
"################################################################################################",
"################################################################################################",
"################################################################################################",
"################################################################################################",
"################################################################################################",
"################################################################################################",
"################################################################################################",
"################################################################################################",
"################################################################################################",
"################################################################################################",
"################################################################################################",
"################################################################################################",
"################################################################################################",
"################################################################################################",
"################################################################################################",
"################################################################################################",
"################################################################################################",
"################################################################################################",
"################################################################################################",
"################################################################################################",
"################################################################################################",
"################################################################################################",
"################################################################################################",
"################################################################################################",
"################################################################################################",
"################################################################################################",
"################################################################################################",
"################################################################################################",
"################################################################################################",
"################################################################################################",
"################################################################################################",
"############################################    ##        ######################################",
"############################################    ##        ######################################",
"########################################      oo  XXoooo  ######################################",
"########################################      oo  XXoooo  ######################################",
"######################################  XXooooooXXoooo    ######################################",
"######################################  XXooooooXXoooo    ######################################",
"######################################  ooooooooooooooooXX  ####################################",
"######################################  ooooooooooooooooXX  ####################################",
"####################################  XXooooooooooooooooooXX  ##################################",
"####################################  XXooooooooooooooooooXX  ##################################",
"####################################  XXooooooooooooooooooXX  ##################################",
"####################################  XXooooooooooooooooooXX  ##################################",
"####################################  XXooooooooooooooooooXX  ##################################",
"####################################  XXooooooooooooooooooXX  ##################################",
"####################################  XXXXooooooooooooooXXXX  ##################################",
"####################################  XXXXooooooooooooooXXXX  ##################################",
"######################################  XXXXXXooooooXXXXXXXX  ##################################",
"######################################  XXXXXXooooooXXXXXXXX  ##################################",
"######################################  XXXXXXXXXXXXXXXXXX  ####################################",
"######################################  XXXXXXXXXXXXXXXXXX  ####################################",
"######################################  OOXXXXXXXXXXXXXXOO  ####################################",
"######################################  OOXXXXXXXXXXXXXXOO  ####################################",
"########################################  OOOOXXXXXXOOOO  ######################################",
"########################################  OOOOXXXXXXOOOO  ######################################",
"########################################  ooOOOOOOOOOOoo  ######################################",
"########################################  ooOOOOOOOOOOoo  ######################################",
"########################################  oooooooooooooo  ######################################",
"########################################  oooooooooooooo  ######################################",
"######################################  OOXXooooooooooXXOO  ####################################",
"######################################  OOXXooooooooooXXOO  ####################################",
"######################################  OO++@@@@++@@@@++OO  ####################################",
"######################################  OO++@@@@++@@@@++OO  ####################################",
"######################################..  ++++++  ++++++  ..####################################",
"######################################..  ++++++  ++++++  ..####################################",
"####################################....  XXXX  ..  XXXX  ....##################################",
"####################################....  XXXX  ..  XXXX  ....##################################",
"####################################..........................##################################",
"####################################..........................##################################",
"######################################......................####################################",
"######################################......................####################################",
"################################################################################################",
"################################################################################################",
"################################################################################################",
"################################################################################################",
"################################################################################################",
"################################################################################################",
"################################################################################################",
"################################################################################################",
"################################################################################################"
"################################################################################################"
};
