/* XPM */

static char *result[] = {
/* columns rows colors chars-per-pixel */
"96 96 13 1 "
"  c black",
". c #0C0E19",
"X c #21110D",
"o c #402717",
"O c #573A23",
"+ c #AC7B5D",
"@ c #1D438A",
"# c #2C65B5",
"$ c #787E97",
"% c #A4A8B5",
"& c #C1AC8F",
"* c white",
"= c None",
/* pixels */
"================================================================================================",
"================================================================================================",
"================================================================================================",
"================================================================================================",
"================================================================================================",
"================================================================================================",
"================================================================================================",
"================================================================================================",
"================================================================================================",
"================================================================================================",
"================================================================================================",
"================================================================================================",
"================================================================================================",
"================================================================================================",
"================================================================================================",
"================================================================================================",
"================================================================================================",
"================================================================================================",
"================================================================================================",
"================================================================================================",
"================================================================================================",
"================================================================================================",
"================================================================================================",
"================================================================================================",
"================================================================================================",
"================================================================================================",
"================================================================================================",
"================================================================================================",
"================================================================================================",
"================================================================================================",
"================================================================================================",
"================================================================================================",
"================================================================================================",
"================================================================================================",
"================================================================================================",
"================================================================================================",
"================================================================================================",
"================================================================================================",
"================================================================================================",
"================================================================================================",
"================================================================================================",
"================================================================================================",
"================================================================================================",
"================================================================================================",
"====================================        ==    ==============================================",
"====================================        ==    ==============================================",
"====================================  OOOOoo  OO      ==========================================",
"====================================  OOOOoo  OO      ==========================================",
"====================================    OOOOooOOooOOOO  ========================================",
"====================================    OOOOooOOooOOOO  ========================================",
"==================================  ooOOOOOOOOOOOOOOOO  ========================================",
"==================================  ooOOOOOOOOOOOOOOOO  ========================================",
"================================  ooOOOOOOOOOOOOOOOOOOOO  ======================================",
"================================  ooOOOOOOOOOOOOOOOOOOOO  ======================================",
"================================  ooOOooOOOOOOOOooOOOOOO  ======================================",
"================================  ooOOooOOOOOOOOooOOOOOO  ======================================",
"================================  ooooooOOOOOOOOoo++ooOOoo  ====================================",
"================================  ooooooOOOOOOOOoo++ooOOoo  ====================================",
"================================  ooOOooOOOOOOoo++++++oooo  ====================================",
"================================  ooOOooOOOOOOoo++++++oooo  ====================================",
"================================  ooOO++ooOOoo++++&&&&++oo  ====================================",
"================================  ooOO++ooOOoo++++&&&&++oo  ====================================",
"================================  oooo++++oo++XX&&&&XX&&  ======================================",
"================================  oooo++++oo++XX&&&&XX&&  ======================================",
"==================================  oooo++++&&XX&&&&XX&&  ======================================",
"==================================  oooo++++&&XX&&&&XX&&  ======================================",
"====================================  oooooo++&&&&&&&&++  ======================================",
"====================================  oooooo++&&&&&&&&++  ======================================",
"====================================  ooOOOOoo++++++++  ========================================",
"====================================  ooOOOOoo++++++++  ========================================",
"======================================  OOOOOO$$$$$$oo++  ======================================",
"======================================  OOOOOO$$$$$$oo++  ======================================",
"======================**============  &&&&OOOO%%%%%%oo++  ======================================",
"======================**============  &&&&OOOO%%%%%%oo++  ======================================",
"======================****========  &&&&&&OOoo%%%%%%oooo  ======================================",
"======================****========  &&&&&&OOoo%%%%%%oooo  ======================================",
"========================******====  &&&&++oo@@########oo  ======================================",
"========================******====  &&&&++oo@@########oo  ======================================",
"==========================********==      @@####@@####  ....====================================",
"==========================********==      @@####@@####  ....====================================",
"==============================********..  ooOO    ooOO  ......==================================",
"==============================********..  ooOO    ooOO  ......==================================",
"====================================..........................==================================",
"====================================..........................==================================",
"======================================......................====================================",
"======================================......................====================================",
"================================================================================================",
"================================================================================================",
"================================================================================================",
"================================================================================================",
"================================================================================================",
"================================================================================================",
"================================================================================================",
"================================================================================================",
"================================================================================================",
"================================================================================================"
};
