/* XPM */
static char *result[] = {
/* columns rows colors chars-per-pixel */
"128 128 28 1 ",
"  c black",
". c #050403",
"X c #14121D",
"o c #0C112D",
"O c #1B1F21",
"+ c #14182E",
"@ c #3B2027",
"# c #3D2936",
"$ c #5B3138",
"% c #7D3833",
"& c #4F1D4C",
"* c #781D4F",
"= c #2F5753",
"- c #AB5130",
"; c #E64539",
": c #AD2F45",
"> c #8F4D57",
", c #8E5252",
"< c #BA756A",
"1 c #FF8933",
"2 c #F0B541",
"3 c #FFAE70",
"4 c #686F99",
"5 c #E9B5A3",
"6 c #A3A7C2",
"7 c #DFE0E8",
"8 c #F5FFE8",
"9 c None",
/* pixels */
"99999999999999999999999999999999999999999999999999999999999999999999999999999999999999999999999999999999999999999999999999999999",
"99999999999999999999999999999999999999999999999999999999999999999999999999999999999999999999999999999999999999999999999999999999",
"99999999999999999999999999999999999999999999999999999999999999999999999999999999999999999999999999999999999999999999999999999999",
"99999999999999999999999999999999999999999999999999999999999999999999999999999999999999999999999999999999999999999999999999999999",
"99999999999999999999999999999999999999999999999999999999999999999999999999999999999999999999999999999999999999999999999999999999",
"99999999999999999999999999999999999999999999999999999999999999999999999999999999999999999999999999999999999999999999999999999999",
"99999999999999999999999999999999999999999999999999999999999999999999999999999999999999999999999999999999999999999999999999999999",
"99999999999999999999999999999999999999999999999999999999999999999999999999999999999999999999999999999999999999999999999999999999",
"99999999999999999999999999999999999999999999999999999999999999999999999999999999999999999999999999999999999999999999999999999999",
"99999999999999999999999999999999999999999999999999999999999999999999999999999999999999999999999999999999999999999999999999999999",
"99999999999999999999999999999999999999999999999999999999999999999999999999999999999999999999999999999999999999999999999999999999",
"99999999999999999999999999999999999999999999999999999999999999999999999999999999999999999999999999999999999999999999999999999999",
"99999999999999999999999999999999999999999999999999999999999999999999999999999999999999999999999999999999999999999999999999999999",
"99999999999999999999999999999999999999999999999999999999999999999999999999999999999999999999999999999999999999999999999999999999",
"99999999999999999999999999999999999999999999999999999999999999999999999999999999999999999999999999999999999999999999999999999999",
"99999999999999999999999999999999999999999999999999999999999999999999999999999999999999999999999999999999999999999999999999999999",
"99999999999999999999999999999999999999999999999999999999999999999999999999999999999999999999999999999999999999999999999999999999",
"99999999999999999999999999999999999999999999999999999999999999999999999999999999999999999999999999999999999999999999999999999999",
"99999999999999999999999999999999999999999999999999999999999999999999999999999999999999999999999999999999999999999999999999999999",
"99999999999999999999999999999999999999999999999999999999999999999999999999999999999999999999999999999999999999999999999999999999",
"99999999999999999999999999999999999999999999999999999999999999999999999999999999999999999999999999999999999999999999999999999999",
"99999999999999999999999999999999999999999999999999999999999999999999999999999999999999999999999999999999999999999999999999999999",
"99999999999999999999999999999999999999999999999999999999999999999999999999999999999999999999999999999999999999999999999999999999",
"99999999999999999999999999999999999999999999999999999999999999999999999999999999999999999999999999999999999999999999999999999999",
"99999999999999999999999999999999999999999999999999999999999999999999999999999999999999999999999999999999999999999999999999999999",
"99999999999999999999999999999999999999999999999999999999999999999999999999999999999999999999999999999999999999999999999999999999",
"99999999999999999999999999999999999999999999999999999999999999999999999999999999999999999999999999999999999999999999999999999999",
"99999999999999999999999999999999999999999999999999999999999999999999999999999999999999999999999999999999999999999999999999999999",
"99999999999999999999999999999999999999999999999999999999999999999999999999999999999999999999999999999999999999999999999999999999",
"99999999999999999999999999999999999999999999999999999999999999999999999999999999999999999999999999999999999999999999999999999999",
"99999999999999999999999999999999999999999999999999999999999999999999999999999999999999999999999999999999999999999999999999999999",
"99999999999999999999999999999999999999999999999999999999999999999999999999999999999999999999999999999999999999999999999999999999",
"99999999999999999999999999999999999999999999999999999999999999999999999999999999999999999999999999999999999999999999999999999999",
"99999999999999999999999999999999999999999999999999999999999999999999999999999999999999999999999999999999999999999999999999999999",
"99999999999999999999999999999999999999999999999999999999999999999999999999999999999999999999999999999999999999999999999999999999",
"99999999999999999999999999999999999999999999999999999999999999999999999999999999999999999999999999999999999999999999999999999999",
"99999999999999999999999999999999999999999999999999999999999999999999999999999999999999999999999999999999999999999999999999999999",
"99999999999999999999999999999999999999999999999999999999999999999999999999999999999999999999999999999999999999999999999999999999",
"99999999999999999999999999999999999999999999999999999999999999999999999999999999999999999999999999999999999999999999999999999999",
"99999999999999999999999999999999999999999999999999999999999999999999999999999999999999999999999999999999999999999999999999999999",
"99999999999999999999999999999999999999999999999999999999999999999999999999999999999999999999999999999999999999999999999999999999",
"99999999999999999999999999999999999999999999999999999999999999999999999999999999999999999999999999999999999999999999999999999999",
"99999999999999999999999999999999999999999999999999999999999999999999999999999999999999999999999999999999999999999999999999999999",
"99999999999999999999999999999999999999999999999999999999999999999999999999999999999999999999999999999999999999999999999999999999",
"99999999999999999999999999999999999999999999999999999999999999999999999999999999999999999999999999999999999999999999999999999999",
"99999999999999999999999999999999999999999999999999999999999999999999999999999999999999999999999999999999999999999999999999999999",
"99999999999999999999999999999999999999999999999999999999999999999999999999999999999999999999999999999999999999999999999999999999",
"99999999999999999999999999999999999999999999999999999999999999999999999999999999999999999999999999999999999999999999999999999999",
"99999999999999999999999999999999999999999999999999999999999999999999999999999999999999999999999999999999999999999999999999999999",
"99999999999999999999999999999999999999999999999999999999999999999999999999999999999999999999999999999999999999999999999999999999",
"99999999999999999999999999999999999999999999999999999999999999999999999999999999999999999999999999999999999999999999999999999999",
"99999999999999999999999999999999999999999999999999999999999999999999999999999999999999999999999999999999999999999999999999999999",
"99999999999999999999999999999999999999999999999999999999999999999999999999999999999999999999999999999999999999999999999999999999",
"99999999999999999999999999999999999999999999999999999999999999999999999999999999999999999999999999999999999999999999999999999999",
"99999999999999999999999999999999999999999999999999999999999999999999999999999999999999999999999999999999999999999999999999999999",
"99999999999999999999999999999999999999999999999999999999999999999999999999999999999999999999999999999999999999999999999999999999",
"99999999999999999999999999999999999999999999999999999999999999999999999999999999999999999999999999999999999999999999999999999999",
"99999999999999999999999999999999999999999999999999999999999999999999999999999999999999999999999999999999999999999999999999999999",
"99999999999999999999999999999999999       99999999999999999999999999999999999999999999999999999999999999999999999999999999999999",
"9999999999999999999999999999999999 22 5,55    9999999999999999999999999999999999999999999999999999999999999999999999999999999999",
"9999999999999999999999999996644444 111 5,< 333   9999999999999999999999999999999999999999999999999999999999999999999999999999999",
"99999999999999999999996666677776666 11 ,<55   333 999999999999999999999999999999999999999999999999999999999999999999999999999999",
"99999999999999999966667777766664444 1- 5,<5 99   99      99999999999999999999999999999999999999999999999999999999999999999999999",
"99999999999999666677776666699999999 - 9 <  1 99999 888888 9999  9999999999999999999999999999999999999999999999999999999999999999",
"999999999997768777666699999999999999 999 --1 9999 88888888 999 -  99999999999999999999999999999999999999999999999999999999999999",
"99999999977888666699999999999999999999999 --1 999 88888888.99 1-88  999999999999999999999999999999999999999999999999999999999999",
"99999997788777999999999999999999999999999 @-1 99 6888866661 9 1-86- 999999999999999999999999999999999999999999999999999999999999",
"999997788779999999999999999999999999999999 --1 9 166661111   1-881- 999999999999999999999999999999999999999999999999999999999999",
"999778877999999999999999999999999999999999 @-1 9 11111    ::-88861 9999999999999999999999999999999999999999999999999999999999999",
"9978877999999999999999999999999999999999999 --1       ::::::88661- 9999999999999999999999999999999999999999999999999999999999999",
"9787799999999999999999999999999999999999999 @- ;:::::::::::*%111- 99999999999999999999999999999999999999999999999999999999999999",
"9779999999999999999999999999999999999999999 %@ ;:::::::::**& --- 999999999999999999999999999999999999999999999999999999999999999",
"9999999999999999999999999999999 99999999999 % ;:::::::::*&  9   9999999999999999999999999999999999999999999999999999999999999999",
"99999999999999999999999999999  # 9999999999 % ;:::::::**& $ 99999999999999999999999999999999999999999999999999999999999999999999",
"9999999999999999999999999999 ## > 999999     ;::::::***  <5 99999999999999999999999999999999999999999999999999999999999999999999",
"999999999999999999999999999 # ># # 9999 ;;;;  ***&**   ,<5 999999999999999999999999999999999999999999999999999999999999999999999",
"999999999999999999999999999 ## #> > 99 ;::::::        ,<55 999999999999999999999999999999999999999999999999999999999999999999999",
"9999999999999999999999999999 #> ## # 9 ;:::::::::::::;  << 999999999999999999999999999999999999999999999999999999999999999999999",
"999999999999999999999999999 # ## #>   ;::::::::::::::; 9  9999999999999999999999999999999999999999999999999999999999999999999999",
"9999999999999999999999999999 > #> # % o:::::::::::::*   999999999999999999999999999999999999999999999999999999999999999999999999",
"99999999999999999999999999999 # ## % oooo::::::::::* 1 1 99999999999999999999999999999999999999999999999999999999999999999999999",
"999999999999999999999999999999 >  %  ooooooo::::::*& 1 1% 9999999999999999999999999999999999999999999999999999999999999999999999",
"9999999999999999999999999999999 ## % ooooooooo:::*&&1@ 1%8 999999999999999999999999999999999999999999999999999999999999999999999",
"99999999999999999999999999999999  % ooooooooooooo*& -1 1%8 999999999999999999999999999999999999999999999999999999999999999999999",
"9999999999999999999999999999999999  oooooooooooooo --1 1%8 999999999999999999999999999999999999999999999999999999999999999999999",
"99999999999999999999999999999999999 oooooooooooooo -@1 1%88 99999999999999999999999999999999999999999999999999999999999999999999",
"9999999999999999999999999999999999 oooooooooooooo -@% 1%888 99999999999999999999999999999999999999999999999999999999999999999999",
"9999999999999999999999999999999999 oooooooooooooo @%% 1%888 99999999999999999999999999999999999999999999999999999999999999999999",
"9999999999999999999999999999999999 ;:ooooooooooo @%% 1%88888 9999999999999999999999999999999999999999999999999999999999999999999",
"9999999999999999999999999999999999 ;::oooooooooo %% 1%688888 9999999999999999999999999999999999999999999999999999999999999999999",
"9999999999999999999999999999999999 ;:::::ooooooo   1 1%68888 9999999999999999999999999999999999999999999999999999999999999999999",
"9999999999999999 999999999999999999  ::::::*oooo 11% 1%68888 99999999999999999999999999999999999999999 9999999999999999999999999",
"999999999999999 +                                                                                     + 999999999999999999999999",
"9999999999999999 +  9999999999999999999  ****&& ooo 1%668888 999999999999999999999999999999999999999 + 9999999999999999999999999",
"99999999999999999 ++  999999999999999999   ***&&ooo 1%668888 99999999999999999999999999999999999999 + 99999999999999999999999999",
"999999999999999999  ;;  9999999999999999 1-  **& oo 1%688888 9999999999999999999999999999999999999 ; 999999999999999999999999999",
"99999999999999999999  ++  999999999999999 1-%    oo 1%688888 999999999999999999999999999999999999 + 9999999999999999999999999999",
"9999999999999999999999  ++   999999999999 11@ oooo 1%6688888 9999999999999999999999999999999999  + 99999999999999999999999999999",
"99999999999999999999      +++    999999999 1- oooo 1%6668888 99999999999999999999999999999999  ++ 999999999999999999999999999999",
"99999999999999999999 OOO     ;;;;          - -  o 1%666  68 =  9999999999999999999999999999  ;;  9999999999999999999999999999999",
"999999999999999999999   OOOOO      ++++++++ X- 5 1%666 11        999999999999999999999999  ++  999999999999999999999999999999999",
"999999999999999999999999     OOOOOO         #X-             333 +  999999999999999999    ++  99999999999999999999999999999999999",
"99999999999999999999999999999      O 1 OO 1 ## ;;;;; +++++++             99999999    ++++  9999999999999999999999999999999999999",
"99999999999999999999999999999999999         ##X             +++++++++++++        ;;;;    999999999999999999999999999999999999999",
"999999999999999999999999999999999999999 11 1   5 &&**:::; &o             ++++++++    9999999999999999999999999999999999999999999",
"999999999999999999999999999999999999999  1  111 oooooo::; ooooooooooo; 99        99999999999999999999999999999999999999999999999",
"99999999999999999999999999999999999999 +o oo   oooooooooo+ ooooooo::::; 99999999999999999999999999999999999999999999999999999999",
"99999999999999999999999999999999999999 ;* ooooooooooooooo+ ooooo:::::   99999999999999999999999999999999999999999999999999999999",
"9999999999999999999999999999999999999 ;:& ooooooooooooooo+ oooo:**&  %- 99999999999999999999999999999999999999999999999999999999",
"9999999999999999999999999999999999999 ;  ooooooooooooooooo+ oo:*&  @@%%- 9999999999999999999999999999999999999999999999999999999",
"99999999999999999999999999999999999999 1 &&*oooooooooooooo+ o**& @%%%%%- 9999999999999999999999999999999999999999999999999999999",
"9999999999999999999999999999999999999 11 &&&***:::oooooooo+ &*& @%%---%%- 999999999999999999999999999999999999999999999999999999",
"9999999999999999999999999999999999999 11%   &&&****:::oooo+ && @%%----%%- 999999999999999999999999999999999999999999999999999999",
"9999999999999999999999999999999999999 111%%%      &&**::::o+ & @@@@----%- 999999999999999999999999999999999999999999999999999999",
"9999999999999999999999999999999999999  111-%-%%%%%    &&*::;  @%--%@---% 2 99999999999999999999999999999999999999999999999999999",
"999999999999999999999999999999999999999  1%1111--%% 99    :; @%%%------- 2 99999999999999999999999999999999999999999999999999999",
"99999999999999999999999999999999999999 +2  111-%%  9999999  9 @@%%%%%-  2++ 9999999999999999999999999999999999999999999999999999",
"9999999999999999999999999999999999999 +++22  %%  9999999999999  @@@   22+++ 9999999999999999999999999999999999999999999999999999",
"9999999999999999999999999999999999999 +++++22  99999999999999999   9 +++++++ 999999999999999999999999999999999999999999999999999",
"999999999999999999999999999999999999 +++++   999999999999999999999999  +++++ 999999999999999999999999999999999999999999999999999",
"999999999999999999999999999999999999 +++  99999999999999999999999999999  ++++ 99999999999999999999999999999999999999999999999999",
"99999999999999999999999999999999999  ++ 999999999999999999999999999999999 ++  99999999999999999999999999999999999999999999999999",
"99999999999999999999999999999999999 2  99999999999999999999999999999999999  2 99999999999999999999999999999999999999999999999999",
"99999999999999999999999999999999999  2 99999999999999999999999999999999999 2 O 9999999999999999999999999999999999999999999999999",
"9999999999999999999999999999999999 OO  999999999999999999999999999999999999 OO 9999999999999999999999999999999999999999999999999",
"9999999999999999999999999999999999 OOO 999999999999999999999999999999999999 OOO 999999999999999999999999999999999999999999999999",
"9999999999999999999999999999999999 OOOO 99999999999999999999999999999999999 OOOO 99999999999999999999999999999999999999999999999",
"9999999999999999999999999999999999 OOOO 99999999999999999999999999999999999 OOOOO 9999999999999999999999999999999999999999999999"
};
