/* XPM */

static char *chest_21699519940[] = {
/* columns rows colors chars-per-pixel */
"32 32 10 1 "
"  c None",
". c #0C0E1A",
"X c #21110D",
"o c #342319",
"O c #242A3D",
"+ c #503625",
"@ c #755338",
"# c #414B66",
"$ c #677598",
"% c #B6BEC8",
/* pixels */
"                                ",
"                                ",
"                                ",
"                                ",
"                                ",
"                                ",
"  XXXXXXXXXXXXXXXXXXXXXXXXXXXX  ",
"  XXXXXXXXXXXXXXXXXXXXXXXXXXXX  ",
"XX++++$$$$++++++++++++$$$$++++XX",
"XX++++$$$$++++++++++++$$$$++++XX",
"XX@@@@%%%%@@@@@@@@@@@@%%%%@@@@XX",
"XX@@@@%%%%@@@@@@@@@@@@%%%%@@@@XX",
"XX@@@@%%%%@@@@@@@@@@@@%%%%@@@@XX",
"XX@@@@%%%%@@@@@@@@@@@@%%%%@@@@XX",
"XX++@@%%%%@@@@@@@@@@@@%%%%@@++XX",
"XX++@@%%%%@@@@@@@@@@@@%%%%@@++XX",
"XX++++$$$$++++++++++++$$$$++++XX",
"XX++++$$$$++++++++++++$$$$++++XX",
"XX##$$$$$$$$%%%%%%%%$$$$$$$$##XX",
"XX##$$$$$$$$%%%%%%%%$$$$$$$$##XX",
"..XXoo####oo##OOOO##oo####ooXX..",
"..XXoo####oo##OOOO##oo####ooXX..",
"..XXoo$$$$++$$$$$$$$++$$$$ooXX..",
"..XXoo$$$$++$$$$$$$$++$$$$ooXX..",
"..XXoo$$$$++++++++++++$$$$ooXX..",
"..XXoo$$$$++++++++++++$$$$ooXX..",
"....XX$$$$++++++++++++$$$$XX....",
"....XX$$$$++++++++++++$$$$XX....",
"  ............................  ",
"  ............................  ",
"      ....................      "
"      ....................      "
};
