/* XPM */

static char *chest_31699519940[] = {
/* columns rows colors chars-per-pixel */
"32 32 9 1 "
"  c None",
". c #0C0E1A",
"X c #21110D",
"o c #342319",
"O c #242A3D",
"+ c #503625",
"@ c #755338",
"# c #677598",
"$ c #B6BEC8",
/* pixels */
"                                ",
"                                ",
"                                ",
"                                ",
"      XXXXXXXXXXXXXXXXXXXX      ",
"      XXXXXXXXXXXXXXXXXXXX      ",
"    XX$$$$@@@@@@@@@@@@$$$$XX    ",
"    XX$$$$@@@@@@@@@@@@$$$$XX    ",
"  XX@@XXXXXXXXXXXXXXXXXXXX@@XX  ",
"  XX@@XXXXXXXXXXXXXXXXXXXX@@XX  ",
"  XX@@XXXXXXXXXXXXXXXXXXXX@@XX  ",
"  XX@@XXXXXXXXXXXXXXXXXXXX@@XX  ",
"  XX@@XXXXXXXXXXXXXXXXXXXX@@XX  ",
"  XX@@XXXXXXXXXXXXXXXXXXXX@@XX  ",
"  XX++$$$$@@@@@@@@@@@@$$$$++XX  ",
"  XX++$$$$@@@@@@@@@@@@$$$$++XX  ",
"  XXoo####++##OOOO##++####ooXX  ",
"  XXoo####++##OOOO##++####ooXX  ",
"  XXoo####++##OOOO##++####ooXX  ",
"  XXoo####++##OOOO##++####ooXX  ",
"..XXoo####++##OOOO##++####ooXX..",
"..XXoo####++##OOOO##++####ooXX..",
"..XXoo####++########++####ooXX..",
"..XXoo####++########++####ooXX..",
"..XXoo####++++++++++++####ooXX..",
"..XXoo####++++++++++++####ooXX..",
"....XX####++++++++++++####XX....",
"....XX####++++++++++++####XX....",
"  ............................  ",
"  ............................  ",
"      ....................      "
"      ....................      "
};
