/* XPM */

static char *result[] = {
/* columns rows colors chars-per-pixel */
"96 96 13 1 "
"  c black",
". c #0C0E1A",
"X c #21110D",
"o c #402717",
"O c #573A23",
"+ c #AC7B5D",
"@ c #1D438A",
"# c #2C65B5",
"$ c #787E97",
"% c #A4A8B5",
"& c #C1AC8F",
"* c white",
"= c None",
/* pixels */
"================================================================================================",
"================================================================================================",
"================================================================================================",
"================================================================================================",
"================================================================================================",
"================================================================================================",
"================================================================================================",
"================================================================================================",
"================================================================================================",
"================================================================================================",
"================================================================================================",
"================================================================================================",
"================================================================================================",
"================================================================================================",
"================================================================================================",
"================================================================================================",
"================================================================================================",
"================================================================================================",
"================================================================================================",
"================================================================================================",
"================================================================================================",
"================================================================================================",
"================================================================================================",
"================================================================================================",
"================================================================================================",
"================================================================================================",
"================================================================================================",
"================================================================================================",
"================================================================================================",
"================================================================================================",
"================================================================================================",
"================================================================================================",
"================================================================================================",
"================================================================================================",
"================================================================================================",
"================================================================================================",
"================================================================================================",
"================================================================================================",
"================================================================================================",
"================================================================================================",
"================================================================================================",
"================================================================================================",
"================================================================================================",
"================================================================================================",
"==============================================    ==        ====================================",
"==============================================    ==        ====================================",
"==========================================      OO  ooOOOO  ====================================",
"==========================================      OO  ooOOOO  ====================================",
"========================================  OOOOooOOooOOOO    ====================================",
"========================================  OOOOooOOooOOOO    ====================================",
"========================================  OOOOOOOOOOOOOOOOoo  ==================================",
"========================================  OOOOOOOOOOOOOOOOoo  ==================================",
"======================================  OOOOOOOOOOOOOOOOOOOOoo  ================================",
"======================================  OOOOOOOOOOOOOOOOOOOOoo  ================================",
"======================================  OOOOOOooOOOOOOOOooOOoo  ================================",
"======================================  OOOOOOooOOOOOOOOooOOoo  ================================",
"====================================  ooOOoo++ooOOOOOOOOoooooo  ================================",
"====================================  ooOOoo++ooOOOOOOOOoooooo  ================================",
"====================================  oooo++++++ooOOOOOOooOOoo  ================================",
"====================================  oooo++++++ooOOOOOOooOOoo  ================================",
"====================================  oo++&&&&++++ooOOoo++OOoo  ================================",
"====================================  oo++&&&&++++ooOOoo++OOoo  ================================",
"======================================  &&XX&&&&XX++oo++++oooo  ================================",
"======================================  &&XX&&&&XX++oo++++oooo  ================================",
"======================================  &&XX&&&&XX&&++++oooo  ==================================",
"======================================  &&XX&&&&XX&&++++oooo  ==================================",
"======================================  ++&&&&&&&&++oooooo  ====================================",
"======================================  ++&&&&&&&&++oooooo  ====================================",
"========================================  ++++++++ooOOOOoo  ====================================",
"========================================  ++++++++ooOOOOoo  ====================================",
"======================================  ++oo$$$$$$OOOOOO  ======================================",
"======================================  ++oo$$$$$$OOOOOO  ======================================",
"======================================  ++oo%%%%%%OOOO&&&&  ============**======================",
"======================================  ++oo%%%%%%OOOO&&&&  ============**======================",
"======================================  oooo%%%%%%ooOO&&&&&&  ========****======================",
"======================================  oooo%%%%%%ooOO&&&&&&  ========****======================",
"======================================  oo########@@oo++&&&&  ====******========================",
"======================================  oo########@@oo++&&&&  ====******========================",
"====================================....  ####@@####@@      ==********==========================",
"====================================....  ####@@####@@      ==********==========================",
"==================================......  OOoo    OOoo  ..********==============================",
"==================================......  OOoo    OOoo  ..********==============================",
"==================================..........................====================================",
"==================================..........................====================================",
"====================================......................======================================",
"====================================......................======================================",
"================================================================================================",
"================================================================================================",
"================================================================================================",
"================================================================================================",
"================================================================================================",
"================================================================================================",
"================================================================================================",
"================================================================================================",
"================================================================================================"
"================================================================================================"
};
