/* XPM */

static char *result[] = {
/* columns rows colors chars-per-pixel */
"96 96 12 1 "
"  c black",
". c #0C0E1A",
"X c #21110D",
"o c #402717",
"O c #573A23",
"+ c #0D205E",
"@ c #AC7B5D",
"# c #1D438A",
"$ c #2C65B5",
"% c #A4A8B5",
"& c #C1AC8F",
"* c None",
/* pixels */
"************************************************************************************************",
"************************************************************************************************",
"************************************************************************************************",
"************************************************************************************************",
"************************************************************************************************",
"************************************************************************************************",
"************************************************************************************************",
"************************************************************************************************",
"************************************************************************************************",
"************************************************************************************************",
"************************************************************************************************",
"************************************************************************************************",
"************************************************************************************************",
"************************************************************************************************",
"************************************************************************************************",
"************************************************************************************************",
"************************************************************************************************",
"************************************************************************************************",
"************************************************************************************************",
"************************************************************************************************",
"************************************************************************************************",
"************************************************************************************************",
"************************************************************************************************",
"************************************************************************************************",
"************************************************************************************************",
"************************************************************************************************",
"************************************************************************************************",
"************************************************************************************************",
"************************************************************************************************",
"************************************************************************************************",
"************************************************************************************************",
"************************************************************************************************",
"************************************************************************************************",
"************************************************************************************************",
"************************************************************************************************",
"************************************************************************************************",
"************************************************************************************************",
"************************************************************************************************",
"************************************************************************************************",
"************************************************************************************************",
"************************************************************************************************",
"************************************************************************************************",
"************************************************************************************************",
"************************************************************************************************",
"************************************************************************************************",
"************************************************************************************************",
"**************************************    **        ********************************************",
"**************************************    **        ********************************************",
"**********************************      OO  ooOOOO  ********************************************",
"**********************************      OO  ooOOOO  ********************************************",
"********************************  OOOOooOOooOOOO    ********************************************",
"********************************  OOOOooOOooOOOO    ********************************************",
"******************************  OOOOOOOOOOOOOOOOOOoo  ******************************************",
"******************************  OOOOOOOOOOOOOOOOOOoo  ******************************************",
"****************************  OOOOOOOOOOOOOOOOOOOOOOoo  ****************************************",
"****************************  OOOOOOOOOOOOOOOOOOOOOOoo  ****************************************",
"****************************  OOOOOOooooOOOOOOooOOOOoo  ****************************************",
"****************************  OOOOOOooooOOOOOOooOOOOoo  ****************************************",
"**************************  ooOOoo@@@@ooOOOOOOoooooooo  ****************************************",
"**************************  ooOOoo@@@@ooOOOOOOoooooooo  ****************************************",
"**************************  oooo@@@@@@@@ooOOOOooooOOoo  ****************************************",
"**************************  oooo@@@@@@@@ooOOOOooooOOoo  ****************************************",
"**************************  oo  XX&&&&XX@@OOoo@@OOOOoo  ****************************************",
"**************************  oo  XX&&&&XX@@OOoo@@OOOOoo  ****************************************",
"****************************    XX&&&&XX&&oo@@@@OOoooo  ****************************************",
"****************************    XX&&&&XX&&oo@@@@OOoooo  ****************************************",
"******************************  @@&&&&&&&&@@@@@@oooo  ******************************************",
"******************************  @@&&&&&&&&@@@@@@oooo  ******************************************",
"******************************  %%@@@@@@@@oooooooo  ********************************************",
"******************************  %%@@@@@@@@oooooooo  ********************************************",
"******************************  %%%%ooOOOOOOOOOO  **********************************************",
"******************************  %%%%ooOOOOOOOOOO  **********************************************",
"******************************  %%&&&&&&OOOOooOOOO  ********************************************",
"******************************  %%&&&&&&OOOOooOOOO  ********************************************",
"********************************  &&oooo&&ooooooOOOO  ******************************************",
"********************************  &&oooo&&ooooooOOOO  ******************************************",
"**********************************    ####$$$$oooooo  ******************************************",
"**********************************    ####$$$$oooooo  ******************************************",
"**********************************  OOOO++##$$$$OOOO  ..****************************************",
"**********************************  OOOO++##$$$$OOOO  ..****************************************",
"********************************..  OOoo      ooOOOO  ....**************************************",
"********************************..  OOoo      ooOOOO  ....**************************************",
"********************************..........................**************************************",
"********************************..........................**************************************",
"**********************************......................****************************************",
"**********************************......................****************************************",
"************************************************************************************************",
"************************************************************************************************",
"************************************************************************************************",
"************************************************************************************************",
"************************************************************************************************",
"************************************************************************************************",
"************************************************************************************************",
"************************************************************************************************",
"************************************************************************************************",
"************************************************************************************************"
};
