/* XPM */

static char *_fd85ef222884fbadb4c62d1457e3bf5ZCslCUTZwURQjDX2[] = {
/* columns rows colors chars-per-pixel */
"96 96 12 1 "
"  c None",
". c black",
"X c #0C0E1A",
"o c #21110D",
"O c #402717",
"+ c #573A23",
"@ c #AC7B5D",
"# c #1D438A",
"$ c #2C65B5",
"% c #787E97",
"& c #A4A8B5",
"* c #C1AC8F",
/* pixels */
"                                                                                                ",
"                                                                                                ",
"                                                                                                ",
"                                                                                                ",
"                                                                                                ",
"                                                                                                ",
"                                                                                                ",
"                                                                                                ",
"                                                                                                ",
"                                                                                                ",
"                                                                                                ",
"                                                                                                ",
"                                                                                                ",
"                                                                                                ",
"                                                                                                ",
"                                                                                                ",
"                                                                                                ",
"                                                                                                ",
"                                                                                                ",
"                                                                                                ",
"                                                                                                ",
"                                                                                                ",
"                                                                                                ",
"                                                                                                ",
"                                                                                                ",
"                                                                                                ",
"                                                                                                ",
"                                                                                                ",
"                                                                                                ",
"                                                                                                ",
"                                                                                                ",
"                                                                                                ",
"                                                                                                ",
"                                                                                                ",
"                                                                                                ",
"                                                                                                ",
"                                                                                                ",
"                                                                                                ",
"                                                                                                ",
"                                                                                                ",
"                                                                                                ",
"                                                                                                ",
"                                                                                                ",
"                                                                                                ",
"                                            ....  ........                                      ",
"                                            ....  ........                                      ",
"                                        ......++..OO++++..                                      ",
"                                        ......++..OO++++..                                      ",
"                                      ..++++OO++OO++++....                                      ",
"                                      ..++++OO++OO++++....                                      ",
"                                    ..++++++++++++++++++OO..                                    ",
"                                    ..++++++++++++++++++OO..                                    ",
"                                  ..++++++++++++++++++++++OO..                                  ",
"                                  ..++++++++++++++++++++++OO..                                  ",
"                                  ..++++++OOOO++++++OO++++OO..                                  ",
"                                  ..++++++OOOO++++++OO++++OO..                                  ",
"                                ..OO++OO@@@@OO++++++OOOOOOOO..                                  ",
"                                ..OO++OO@@@@OO++++++OOOOOOOO..                                  ",
"                                ..OOOO@@@@@@@@OO++++OOOO++OO..                                  ",
"                                ..OOOO@@@@@@@@OO++++OOOO++OO..                                  ",
"                                ..OO..oo****oo@@++OO@@++++OO..                                  ",
"                                ..OO..oo****oo@@++OO@@++++OO..                                  ",
"                                  ....oo****oo**OO@@@@++OOOO..                                  ",
"                                  ....oo****oo**OO@@@@++OOOO..                                  ",
"                                    ..************@@@@OOOO..                                    ",
"                                    ..************@@@@OOOO..                                    ",
"                                    ..@@********@@@@OOOO..                                      ",
"                                    ..@@********@@@@OOOO..                                      ",
"                                      ..@@@@@@@@@@OOOO..                                        ",
"                                      ..@@@@@@@@@@OOOO..                                        ",
"                                      ..OO%%%%%%++OOOO..                                        ",
"                                      ..OO%%%%%%++OOOO..                                        ",
"                                    ..@@OO&&%%%%++++OO**..                                      ",
"                                    ..@@OO&&%%%%++++OO**..                                      ",
"                                    ..@@OO&&&&%%++++****..                                      ",
"                                    ..@@OO&&&&%%++++****..                                      ",
"                                      ..OO$$$$$$++++OO..                                        ",
"                                      ..OO$$$$$$++++OO..                                        ",
"                                    XXXX..$$$$##$$$$##..XX                                      ",
"                                    XXXX..$$$$##$$$$##..XX                                      ",
"                                  XXXXXX..++OO....++OO..XXXX                                    ",
"                                  XXXXXX..++OO....++OO..XXXX                                    ",
"                                  XXXXXXXXXXXXXXXXXXXXXXXXXX                                    ",
"                                  XXXXXXXXXXXXXXXXXXXXXXXXXX                                    ",
"                                    XXXXXXXXXXXXXXXXXXXXXX                                      ",
"                                    XXXXXXXXXXXXXXXXXXXXXX                                      ",
"                                                                                                ",
"                                                                                                ",
"                                                                                                ",
"                                                                                                ",
"                                                                                                ",
"                                                                                                ",
"                                                                                                ",
"                                                                                                ",
"                                                                                                "
"                                                                                                "
};
