/* XPM */

static char *result[] = {
/* columns rows colors chars-per-pixel */
"96 96 12 1 "
"  c black",
". c #0C0E19",
"X c #21110D",
"o c #402717",
"O c #573A23",
"+ c #AC7B5D",
"@ c #1D438A",
"# c #2C65B5",
"$ c #787E97",
"% c #A4A8B5",
"& c #C1AC8F",
"* c None",
/* pixels */
"************************************************************************************************",
"************************************************************************************************",
"************************************************************************************************",
"************************************************************************************************",
"************************************************************************************************",
"************************************************************************************************",
"************************************************************************************************",
"************************************************************************************************",
"************************************************************************************************",
"************************************************************************************************",
"************************************************************************************************",
"************************************************************************************************",
"************************************************************************************************",
"************************************************************************************************",
"************************************************************************************************",
"************************************************************************************************",
"************************************************************************************************",
"************************************************************************************************",
"************************************************************************************************",
"************************************************************************************************",
"************************************************************************************************",
"************************************************************************************************",
"************************************************************************************************",
"************************************************************************************************",
"************************************************************************************************",
"************************************************************************************************",
"************************************************************************************************",
"************************************************************************************************",
"************************************************************************************************",
"************************************************************************************************",
"************************************************************************************************",
"************************************************************************************************",
"************************************************************************************************",
"************************************************************************************************",
"************************************************************************************************",
"************************************************************************************************",
"************************************************************************************************",
"************************************************************************************************",
"************************************************************************************************",
"************************************************************************************************",
"************************************************************************************************",
"************************************************************************************************",
"************************************************************************************************",
"************************************************************************************************",
"****************************************        **    ******************************************",
"****************************************        **    ******************************************",
"****************************************  OOOOoo  OO      **************************************",
"****************************************  OOOOoo  OO      **************************************",
"****************************************    OOOOooOOOOOOoo  ************************************",
"****************************************    OOOOooOOOOOOoo  ************************************",
"**************************************  ooOOOOOOOOOOOOOOOO  ************************************",
"**************************************  ooOOOOOOOOOOOOOOOO  ************************************",
"************************************  ooOOOOOOOOooOOOOOOOOoo  **********************************",
"************************************  ooOOOOOOOOooOOOOOOOOoo  **********************************",
"************************************  OOOOOOooooooooOOOOOOOO  **********************************",
"************************************  OOOOOOooooooooOOOOOOOO  **********************************",
"************************************  OOOOOOoo++++++++ooOOOO  **********************************",
"************************************  OOOOOOoo++++++++ooOOOO  **********************************",
"************************************  OOOOoo++++++++++++ooOO  **********************************",
"************************************  OOOOoo++++++++++++ooOO  **********************************",
"************************************  ooOO++XX&&&&&&XX++oo  ************************************",
"************************************  ooOO++XX&&&&&&XX++oo  ************************************",
"**************************************  OO&&XX&&&&&&XX&&++  ************************************",
"**************************************  OO&&XX&&&&&&XX&&++  ************************************",
"**************************************  ++&&&&&&&&&&&&&&++  ************************************",
"**************************************  ++&&&&&&&&&&&&&&++  ************************************",
"**************************************  oo++&&&&&&&&&&++oo  ************************************",
"**************************************  oo++&&&&&&&&&&++oo  ************************************",
"****************************************  oo++++++++++oo  **************************************",
"****************************************  oo++++++++++oo  **************************************",
"****************************************  ooOO$$$$$$OOoo  **************************************",
"****************************************  ooOO$$$$$$OOoo  **************************************",
"****************************************  ooOO$$%%%%OOoo  **************************************",
"****************************************  ooOO$$%%%%OOoo  **************************************",
"**************************************  ++OOOO######OO&&&&  ************************************",
"**************************************  ++OOOO######OO&&&&  ************************************",
"**************************************  ++######@@##@@&&&&  ************************************",
"**************************************  ++######@@##@@&&&&  ************************************",
"**************************************..  ##OOOO  oooooo  ..************************************",
"**************************************..  ##OOOO  oooooo  ..************************************",
"************************************....    OOOO        ......**********************************",
"************************************....    OOOO        ......**********************************",
"************************************..........................**********************************",
"************************************..........................**********************************",
"**************************************......................************************************",
"**************************************......................************************************",
"************************************************************************************************",
"************************************************************************************************",
"************************************************************************************************",
"************************************************************************************************",
"************************************************************************************************",
"************************************************************************************************",
"************************************************************************************************",
"************************************************************************************************",
"************************************************************************************************"
"************************************************************************************************"
};
