/* XPM */

static char *a4b65357afb94993a3be656570e68516[] = {
/* columns rows colors chars-per-pixel */
"96 96 12 1 "
"  c None",
". c black",
"X c #0C0E19",
"o c #21110D",
"O c #402717",
"+ c #573A23",
"@ c #AC7B5D",
"# c #1D438A",
"$ c #2C65B5",
"% c #787E97",
"& c #A4A8B5",
"* c #C1AC8F",
/* pixels */
"                                                                                                ",
"                                                                                                ",
"                                                                                                ",
"                                                                                                ",
"                                                                                                ",
"                                                                                                ",
"                                                                                                ",
"                                                                                                ",
"                                                                                                ",
"                                                                                                ",
"                                                                                                ",
"                                                                                                ",
"                                                                                                ",
"                                                                                                ",
"                                                                                                ",
"                                                                                                ",
"                                                                                                ",
"                                                                                                ",
"                                                                                                ",
"                                                                                                ",
"                                                                                                ",
"                                                                                                ",
"                                                                                                ",
"                                                                                                ",
"                                                                                                ",
"                                                                                                ",
"                                                                                                ",
"                                                                                                ",
"                                                                                                ",
"                                                                                                ",
"                                                                                                ",
"                                                                                                ",
"                                                                                                ",
"                                                                                                ",
"                                                                                                ",
"                                                                                                ",
"                                                                                                ",
"                                                                                                ",
"                                                                                                ",
"                                                                                                ",
"                                      ........  ....                                            ",
"                                      ........  ....                                            ",
"                                      ..++++OO..++......                                        ",
"                                      ..++++OO..++......                                        ",
"                                      ....++++OO++OO++++..                                      ",
"                                      ....++++OO++OO++++..                                      ",
"                                    ..OO++++++++++++++++++..                                    ",
"                                    ..OO++++++++++++++++++..                                    ",
"                                  ..OO++++++++++++++++++++++..                                  ",
"                                  ..OO++++++++++++++++++++++..                                  ",
"                                  ..OO++++OO++++++OOOO++++++..                                  ",
"                                  ..OO++++OO++++++OOOO++++++..                                  ",
"                                  ..OOOOOOOO++++++OO@@@@OO++OO..                                ",
"                                  ..OOOOOOOO++++++OO@@@@OO++OO..                                ",
"                                  ..OO++OOOO++++OO@@@@@@@@OOOO..                                ",
"                                  ..OO++OOOO++++OO@@@@@@@@OOOO..                                ",
"                                  ..OO++++@@OO++@@oo****oo..OO..                                ",
"                                  ..OO++++@@OO++@@oo****oo..OO..                                ",
"                                  ..OOOO++@@@@OO**oo****oo....                                  ",
"                                  ..OOOO++@@@@OO**oo****oo....                                  ",
"                                    ..OOOO@@@@************..                                    ",
"                                    ..OOOO@@@@************..                                    ",
"                                      ..OOOOOO@@********@@..                                    ",
"                                      ..OOOOOO@@********@@..                                    ",
"                                      ..OO++++++@@@@@@@@..                                      ",
"                                      ..OO++++++@@@@@@@@..                                      ",
"                                      ..++++++++%%%%%%....                                      ",
"                                      ..++++++++%%%%%%....                                      ",
"                                      ..++++++OO%%&&&&@@..                                      ",
"                                      ..++++++OO%%&&&&@@..                                      ",
"                                        ..****OO$$$$$$$$..                                      ",
"                                        ..****OO$$$$$$$$..                                      ",
"                                        ..****##$$$$$$OOOO..                                    ",
"                                        ..****##$$$$$$OOOO..                                    ",
"                                        ..######....OOOOOO..                                    ",
"                                        ..######....OOOOOO..                                    ",
"                                        ..####..  ........                                      ",
"                                        ..####..  ........                                      ",
"                                      ..OOOO##..XXXXXXXXXXXX                                    ",
"                                      ..OOOO##..XXXXXXXXXXXX                                    ",
"                                    XX..OOOO..XXXXXXXXXXXXXXXX                                  ",
"                                    XX..OOOO..XXXXXXXXXXXXXXXX                                  ",
"                                    XXXXXXXXXXXXXXXXXXXXXXXXXX                                  ",
"                                    XXXXXXXXXXXXXXXXXXXXXXXXXX                                  ",
"                                      XXXXXXXXXXXXXXXXXXXXXX                                    ",
"                                      XXXXXXXXXXXXXXXXXXXXXX                                    ",
"                                                                                                ",
"                                                                                                ",
"                                                                                                ",
"                                                                                                ",
"                                                                                                ",
"                                                                                                ",
"                                                                                                ",
"                                                                                                ",
"                                                                                                ",
"                                                                                                "
};
