/* XPM */

static char *result[] = {
/* columns rows colors chars-per-pixel */
"96 96 12 1 "
"  c black",
". c #0C0E19",
"X c #21110D",
"o c #402717",
"O c #573A23",
"+ c #AC7B5D",
"@ c #1D438A",
"# c #2C65B5",
"$ c #787E97",
"% c #A4A8B5",
"& c #C1AC8F",
"* c None",
/* pixels */
"************************************************************************************************",
"************************************************************************************************",
"************************************************************************************************",
"************************************************************************************************",
"************************************************************************************************",
"************************************************************************************************",
"************************************************************************************************",
"************************************************************************************************",
"************************************************************************************************",
"************************************************************************************************",
"************************************************************************************************",
"************************************************************************************************",
"************************************************************************************************",
"************************************************************************************************",
"************************************************************************************************",
"************************************************************************************************",
"************************************************************************************************",
"************************************************************************************************",
"************************************************************************************************",
"************************************************************************************************",
"************************************************************************************************",
"************************************************************************************************",
"************************************************************************************************",
"************************************************************************************************",
"************************************************************************************************",
"************************************************************************************************",
"************************************************************************************************",
"************************************************************************************************",
"************************************************************************************************",
"************************************************************************************************",
"************************************************************************************************",
"************************************************************************************************",
"************************************************************************************************",
"************************************************************************************************",
"************************************************************************************************",
"************************************************************************************************",
"************************************************************************************************",
"************************************************************************************************",
"************************************************************************************************",
"************************************************************************************************",
"************************************************************************************************",
"************************************************************************************************",
"**************************************        **    ********************************************",
"**************************************        **    ********************************************",
"**************************************  OOOOoo  OO      ****************************************",
"**************************************  OOOOoo  OO      ****************************************",
"**************************************    OOOOooOOooOOOO  **************************************",
"**************************************    OOOOooOOooOOOO  **************************************",
"************************************  ooOOOOOOOOOOOOOOOOOO  ************************************",
"************************************  ooOOOOOOOOOOOOOOOOOO  ************************************",
"**********************************  ooOOOOOOOOOOOOOOOOOOOOOO  **********************************",
"**********************************  ooOOOOOOOOOOOOOOOOOOOOOO  **********************************",
"**********************************  ooOOOOooOOOOOOooooOOOOOO  **********************************",
"**********************************  ooOOOOooOOOOOOooooOOOOOO  **********************************",
"**********************************  ooooooooOOOOOOoo++++ooOOoo  ********************************",
"**********************************  ooooooooOOOOOOoo++++ooOOoo  ********************************",
"**********************************  ooOOooooOOOOoo++++++++oooo  ********************************",
"**********************************  ooOOooooOOOOoo++++++++oooo  ********************************",
"**********************************  ooOOOO++ooOO++XX&&&&XX  oo  ********************************",
"**********************************  ooOOOO++ooOO++XX&&&&XX  oo  ********************************",
"**********************************  ooooOO++++oo&&XX&&&&XX    **********************************",
"**********************************  ooooOO++++oo&&XX&&&&XX    **********************************",
"************************************  oooo++++&&&&&&&&&&&&  ************************************",
"************************************  oooo++++&&&&&&&&&&&&  ************************************",
"************************************  oooooo++++&&&&&&&&++  ************************************",
"************************************  oooooo++++&&&&&&&&++  ************************************",
"************************************  ooOOOOOO++++++++++  **************************************",
"************************************  ooOOOOOO++++++++++  **************************************",
"************************************  ooooOOOO$$$$$$oo    **************************************",
"************************************  ooooOOOO$$$$$$oo    **************************************",
"************************************  &&&&ooOO$$%%%%oo++++  ************************************",
"************************************  &&&&ooOO$$%%%%oo++++  ************************************",
"************************************  &&&&oo########@@++++  ************************************",
"************************************  &&&&oo########@@++++  ************************************",
"**************************************  oo@@@@########oo  **************************************",
"**************************************  oo@@@@########oo  **************************************",
"**************************************  oooo    @@######  **************************************",
"**************************************  oooo    @@######  **************************************",
"**************************************      ....  @@##oooo  ************************************",
"**************************************      ....  @@##oooo  ************************************",
"************************************..............  oooooo  ..**********************************",
"************************************..............  oooooo  ..**********************************",
"************************************..........................**********************************",
"************************************..........................**********************************",
"**************************************......................************************************",
"**************************************......................************************************",
"************************************************************************************************",
"************************************************************************************************",
"************************************************************************************************",
"************************************************************************************************",
"************************************************************************************************",
"************************************************************************************************",
"************************************************************************************************",
"************************************************************************************************",
"************************************************************************************************",
"************************************************************************************************"
};
