/* XPM */

static char *_ace9b65131b4faf8487aaef7bd99920qEdaLEcvF27YgYsc[] = {
/* columns rows colors chars-per-pixel */
"96 96 12 1 "
"  c None",
". c black",
"X c #0C0E1A",
"o c #21110D",
"O c #402717",
"+ c #573A23",
"@ c #AC7B5D",
"# c #1D438A",
"$ c #2C65B5",
"% c #787E97",
"& c #A4A8B5",
"* c #C1AC8F",
/* pixels */
"                                                                                                ",
"                                                                                                ",
"                                                                                                ",
"                                                                                                ",
"                                                                                                ",
"                                                                                                ",
"                                                                                                ",
"                                                                                                ",
"                                                                                                ",
"                                                                                                ",
"                                                                                                ",
"                                                                                                ",
"                                                                                                ",
"                                                                                                ",
"                                                                                                ",
"                                                                                                ",
"                                                                                                ",
"                                                                                                ",
"                                                                                                ",
"                                                                                                ",
"                                                                                                ",
"                                                                                                ",
"                                                                                                ",
"                                                                                                ",
"                                                                                                ",
"                                                                                                ",
"                                                                                                ",
"                                                                                                ",
"                                                                                                ",
"                                                                                                ",
"                                                                                                ",
"                                                                                                ",
"                                                                                                ",
"                                                                                                ",
"                                                                                                ",
"                                                                                                ",
"                                                                                                ",
"                                                                                                ",
"                                                                                                ",
"                                                                                                ",
"                                            ....  ........                                      ",
"                                            ....  ........                                      ",
"                                        ......++..OO++++..                                      ",
"                                        ......++..OO++++..                                      ",
"                                      ..++++OO++OO++++....                                      ",
"                                      ..++++OO++OO++++....                                      ",
"                                    ..++++++++++++++++++OO..                                    ",
"                                    ..++++++++++++++++++OO..                                    ",
"                                  ..++++++++++++++++++++++OO..                                  ",
"                                  ..++++++++++++++++++++++OO..                                  ",
"                                  ..++++++OOOO++++++OO++++OO..                                  ",
"                                  ..++++++OOOO++++++OO++++OO..                                  ",
"                                ..OO++OO@@@@OO++++++OOOOOOOO..                                  ",
"                                ..OO++OO@@@@OO++++++OOOOOOOO..                                  ",
"                                ..OOOO@@@@@@@@OO++++OOOO++OO..                                  ",
"                                ..OOOO@@@@@@@@OO++++OOOO++OO..                                  ",
"                                ..OO..oo****oo@@++OO@@++++OO..                                  ",
"                                ..OO..oo****oo@@++OO@@++++OO..                                  ",
"                                  ....oo****oo**OO@@@@++OOOO..                                  ",
"                                  ....oo****oo**OO@@@@++OOOO..                                  ",
"                                    ..************@@@@OOOO..                                    ",
"                                    ..************@@@@OOOO..                                    ",
"                                    ..@@********@@OOOOOO..                                      ",
"                                    ..@@********@@OOOOOO..                                      ",
"                                      ..@@@@@@@@OO++OO..                                        ",
"                                      ..@@@@@@@@OO++OO..                                        ",
"                                      ..OO%%%%OO++++OO..                                        ",
"                                      ..OO%%%%OO++++OO..                                        ",
"                                      ..OO&&&&OO++++..                                          ",
"                                      ..OO&&&&OO++++..                                          ",
"                                      ..$$$$$$OO****..                                          ",
"                                      ..$$$$$$OO****..                                          ",
"                                    ..OOOO$$$$##****$$..                                        ",
"                                    ..OOOO$$$$##****$$..                                        ",
"                                    ..OOOOOO....##$$$$..                                        ",
"                                    ..OOOOOO....##$$$$..                                        ",
"                                      ........  ..##$$$$..                                      ",
"                                      ........  ..##$$$$..                                      ",
"                                    XXXXXXXXXXXX..##OOOO..                                      ",
"                                    XXXXXXXXXXXX..##OOOO..                                      ",
"                                  XXXXXXXXXXXXXXXX..OOOO..XX                                    ",
"                                  XXXXXXXXXXXXXXXX..OOOO..XX                                    ",
"                                  XXXXXXXXXXXXXXXXXXXXXXXXXX                                    ",
"                                  XXXXXXXXXXXXXXXXXXXXXXXXXX                                    ",
"                                    XXXXXXXXXXXXXXXXXXXXXX                                      ",
"                                    XXXXXXXXXXXXXXXXXXXXXX                                      ",
"                                                                                                ",
"                                                                                                ",
"                                                                                                ",
"                                                                                                ",
"                                                                                                ",
"                                                                                                ",
"                                                                                                ",
"                                                                                                ",
"                                                                                                ",
"                                                                                                "
};
