/* XPM */
static char *_aff0cd5d4d14c3bd76b3a1ebdf899cfcGIW7i9t1zkmkOiw[] = {
/* columns rows colors chars-per-pixel */
"128 128 27 1 ",
"  c None",
". c black",
"X c #AB5130",
"o c #F5FFE8",
"O c #FF8933",
"+ c #A3A7C2",
"@ c #3D2936",
"# c #8F4D57",
"$ c #AD2F45",
"% c #5B3138",
"& c #8E5252",
"* c #14182E",
"= c #2D1B1E",
"- c #BA756A",
"; c #E64539",
": c #050403",
"> c #E9B5A3",
", c #14121D",
"< c #781D4F",
"1 c #7D3833",
"2 c #0C112D",
"3 c #4F1D4C",
"4 c #3B2027",
"5 c #FFAE70",
"6 c #1B1F21",
"7 c #F0B541",
"8 c white",
/* pixels */
"                                                                                                                                ",
"                                                                                                                                ",
"                                                                                                                                ",
"                                                                                                                                ",
"                                                                                                                                ",
"                                                                                                                                ",
"                                                                                                                                ",
"                                                                                                                                ",
"                                                                                                                                ",
"                                                                                                                                ",
"                                                                                                                                ",
"                                                                                                                                ",
"                                                                                                                                ",
"                                                                                                                                ",
"                                                                                                                                ",
"                                                                                                                                ",
"                                                                                                                                ",
"                                                                                                                                ",
"                                                                                                                                ",
"                                                                                                                                ",
"                                                                                                                                ",
"                                                                                                                                ",
"                                                                                                                                ",
"                                                                                                                                ",
"                                                                                                                                ",
"                                                                                                                                ",
"                                                                                                                                ",
"                                                                                                                                ",
"                                                                                                                                ",
"                                                                                                                                ",
"                                                                                                                                ",
"                                                                                                                                ",
"                                                                                                                                ",
"                                                                                                                                ",
"                                                                                                                                ",
"                                                                                                                                ",
"                                                                                                                                ",
"                                                                                                                                ",
"                                                                                                                                ",
"                                                                                                                                ",
"                                                                                                                                ",
"                                                                                                                                ",
"                                                                                                                                ",
"                                                                                                                                ",
"                                                                                                                                ",
"                                                                                                                                ",
"                                                                                                                                ",
"                                                                                                                                ",
"                                                                                                                                ",
"                                                                                                                                ",
"                                                                                                                                ",
"                                                                                                                                ",
"                                                                                                                                ",
"                                                                                                                                ",
"                                                                                                                                ",
"                                                                                                                                ",
"                                                                                                                                ",
"                                                                                                                                ",
"                                                                                                                                ",
"                                                                                                                                ",
"                                                                                                                                ",
"                                                                                                                                ",
"                                                                                                                                ",
"                                                               ..   ..                                                          ",
"                                                             ..XX...Xo.                                                         ",
"                                                           ..oooO.oo.Xo.                                                        ",
"                                                         ..ooooooX.o.Xoo.                                                       ",
"                                                       ..Xoooooo+X.oo.ooO.                                                      ",
"                                                      .XXOXooooo+.ooo.oooX.                                                     ",
"                                                       ..XOXooo+.+ooo.+ooX.                                                     ",
"                                          .              .XOXo+.OO+ooo.+OX.                                                     ",
"                                        ..@.            ..XOX+....OOOO.OX.                                                      ",
"                                       .@@.#.          .$.XO..%%&%....*.X.                                                      ",
"                                      .@.#@.@.       ..$.*..=.%&--&-.***.                                                       ",
"                                      .@@.@#.#.     .;;.***:=.&>>>->.***..                                                      ",
"                                       .@#.@@.@.  ..;$$$.***.,.->->.****.$..                                                    ",
"                                      .@.@@.@#.. .;;$$$<...*:,.&->>.****.$;;..                                                  ",
"                                       .#.@#.@.1.;$$$<<..OX.,,,..->.**..$$$$;;..                                                ",
"                                        .@.@@...*22<<..XX.O.,,,,,..+..3<<$$$$$;;.                                               ",
"                                         .#...**222..XXOO.OX..,,,,.+..33<<$$$$$;.                                               ",
"                                          .@.*222..XXOO44.OXoo....oo.O.33<<<$$$.                                                ",
"                                          ..*22..XXOO441.OX+oooooooo.XO.23<<<$$.                                                ",
"                                         .**2..XXOO4411..OX+oooooooo.4XO.22<<<.                                                 ",
"                                        .*22.XOOO441...OOX+ooooooooo.4XXO.222<.                                                 ",
"                                      ..*22.XOO441..OO.OX++ooooooooo.14XXO.22.                                                  ",
"                                     .;$<..XOO41..OO...OX+oooooooooo.14XXOO.2.                                                  ",
"                                     .$$. .OX41. ...22.OX+ooooooooo...14..OO.                                                   ",
"                                      ..  .OO1.. .222.OX++ooooooooo..*..XX.OO.                                                  ",
"                                           .O41. .222.OX+ooooo.......*.XXOOOX.                                                  ",
"                                           .OX41.2222.........ooooo.;.XOOOOXX.                                                  ",
"                                        .   .O41......OX+ooooooooo.*.4..OXX..                                                   ",
"                                       .*....OO41.22.OX++ooooooo..;...5.X..                                                     ",
"                                ...    .*.   .OX4.22.OX+++oo.oo..*..55....                                                      ",
"                                .66...  .;..  .O41..OX+++++.X..**.55..33<.                                                      ",
"                                 ..666....**.. .O4,1...+++...;;..>...3<<.                                                       ",
"                                   ...6666..*;...44,1.>....**..>>... ....                                                       ",
"                                      ....66..**.444.....**...>>.22*..                                                          ",
"                                          ...........;;;;...OX..2222**..                                                        ",
"                                             .$$$$..>.....33..2*..2222**.                                                       ",
"                                            .;222222..<33.222222**..2222*.                                                      ",
"                                            .*22222222222.22222222**.2222*.                                                     ",
"                                           .*222222222222.2222222222*.$$$;;.                                                    ",
"                                           .*222222222222.22222222222;.<$$..                                                    ",
"                                          .*2222222222222.222222222$$$;...11.                                                   ",
"                                          .*22222222222222.222222$$<<..4441X.                                                   ",
"                                         .*222222222222222.22222<33..4441XXXX.                                                  ",
"                                         .*222222222222222.2223<3..41XX14XXXX.                                                  ",
"                                         .*222222222222222..3333.441XXXX14XXX.                                                  ",
"                                        .*2$$$$$$22222222. .33..4414XXXXX4XX.                                                   ",
"                                        .;$$$<<<<<<<<2222.  ..  .4144XXX..X.                                                    ",
"                                        .;$......33333333.       .411...77.                                                     ",
"                                         ..XXXX11....333.         ...777*.                                                      ",
"                                         .OOOOOOOXX11....          .****.                                                       ",
"                                         ...OOOOOOXXX11.           .***.                                                        ",
"                                        .**7.OOOOOXX111.          .****.                                                        ",
"                                        .***7.OOOX11...           .***.                                                         ",
"                                        .****7.X....              .***.                                                         ",
"                                       .*****...                  .**.                                                          ",
"                                       .****.                     ....                                                          ",
"                                      .****.                      .77.                                                          ",
"                                      .***.                      .6..6.                                                         ",
"                                     .***.                       .66666.                                                        ",
"                                     .***.                       .666666.                                                       ",
"                                    .7...                        .6666666..                                                     ",
"                                    ..77.                        .....66666.                                                    ",
"                                   .66...                             ......                                                    ",
"                                   .6.666.                                                                                      ",
"                                   .6.6666.                                                                                     "
};
