/* XPM */
static char *_0a15130a7894ad997018af853c3aa6aNwfURbwbuYlI8WEi[] = {
/* columns rows colors chars-per-pixel */
"128 128 32 1 ",
"  c None",
". c black",
"X c #AB5130",
"o c #F5FFE8",
"O c #FF8933",
"+ c #A3A7C2",
"@ c #F0B541",
"# c #3D2936",
"$ c #3B2027",
"% c #14182E",
"& c #404973",
"* c #686F99",
"= c #DFE0E8",
"- c #8F4D57",
"; c #AD2F45",
": c #5B3138",
"> c #8E5252",
", c #CF752B",
"< c #E9B5A3",
"1 c #2D1B1E",
"2 c #BA756A",
"3 c #050403",
"4 c #14121D",
"5 c #7D3833",
"6 c #E64539",
"7 c #781D4F",
"8 c #0C112D",
"9 c #2F5753",
"0 c #FFAE70",
"q c #1B1F21",
"w c #4F1D4C",
"e c white",
/* pixels */
"                                                                                                                                ",
"                                                                                                                                ",
"                                                                                                                                ",
"                                                                                                                                ",
"                                                                                                                                ",
"                                                                                                                                ",
"                                                                                                                                ",
"                                                                                                                                ",
"                                                                                                                                ",
"                                                                                                                                ",
"                                                                                                                                ",
"                                                                                                                                ",
"                                                                                                                                ",
"                                                                                                                                ",
"                                                                                                                                ",
"                                                                                                                                ",
"                                                                                                                                ",
"                                                                                                                                ",
"                                                                                                                                ",
"                                                                                                                                ",
"                                                                                                                                ",
"                                                                                                                                ",
"                                                                                                                                ",
"                                                                                                                                ",
"                                                                                                                                ",
"                                                                                                                                ",
"                                                                                                                                ",
"                                                                                                                                ",
"                                                                                                                                ",
"                                                                                                                                ",
"                                                                                                                                ",
"                                                                                                                                ",
"                                                                                                                                ",
"                                                                                                                                ",
"                                                                                                                                ",
"                                                                                                                                ",
"                                                                                                                                ",
"                                                                                                                                ",
"                                                                                                                                ",
"                                                                                                                                ",
"                                                                                                                                ",
"                                                                                                                                ",
"                                                                                                                                ",
"                                                                                                                                ",
"                                                                                                                                ",
"                                                                                                                                ",
"                                                                                                                                ",
"                                                                                                                                ",
"                                                                                                                                ",
"                                                                                                                                ",
"                                                                                                                                ",
"                                                                                                                                ",
"                                                                                                                                ",
"                                                                                                                                ",
"                                                                                                                                ",
"                                                                                                                                ",
"                                                                                                                                ",
"                                                                                                                                ",
"                                                                                                                                ",
"                                                                                                                                ",
"                                                                                                                                ",
"                                                                                                                                ",
"                                                                                                                                ",
"                                                                ..   ..                                                         ",
"                                                              ..XX...Xo.                                                        ",
"                                                            ..oooO.oo.Xo.                                                       ",
"                                                          ..ooooooX.o.Xoo.                                                      ",
"                                                        ..Xoooooo+X.oo.ooO.                                                     ",
"                                                       .XXOXooooo+.ooo.oooX.                                                    ",
"                                                        ..XOXooo+.+ooo.+ooX.        .                                           ",
"                                           .              .XOXo+.OO+ooo.+OX.   .....@.                                          ",
"                                         ..#.            ..XOX+....OOOO.OX.  ..$%X..@.&&&&&&&&************+++++++++=======      ",
"                                        .##.-.          .;.XO..::>:....%.X...,,.X.<.O.*****++++++++++++===========oooooooo=     ",
"                                       .#.-#.#.        .;.%..1.:>22>2.%%%.,,,XX..>2.O.&&&&&&&&&*********+++++++++++++=====      ",
"                                       .##.#-.-.      .;.%%%31.><<<2<.%%%.,,XX.  ...X.                                          ",
"                                        .#-.##.#.     ....%%%.4.2<2<.%%%%.,5$.      .                                       .   ",
"                                       .#.##.#-..   ..6;77..%34.>2<<.%%%.,5$.                                               .   ",
"                                        .-.#-.#.5...6;7...O5.444..2<.%%..X$.                                          .      .  ",
"                                         .#.##.5..6;7..555.O5.4444..+..5.$.                      .         .          .      .  ",
"                                          .-....888..55,,,,.O5.4444.+.X5..                       .         .           .     .  ",
"                                           .#.%88..55,,,,55.O5+.%%%.o.5$.                         .         .          .      . ",
"                                            .%8..55,,,,555X.O5++...oo.$.                          .         .          .      . ",
"                                           .%..55,,,X55$$$$.O5+o++ooo.$.                          .          .         .      . ",
"                                          .%.$5,,,555$$$XX.O5+oooooooo.                          .           .          .     . ",
"                                         .%..,5,X55$$X....O5+ooooooooo.                          .          .           .     . ",
"                                        .%. .,5.5$$...$$$.O5+ooooooooo.                         .           .           .     . ",
"                                        .8.  .5X...5.O....O5+ooooooooo.                       ..           .           .      . ",
"                                       .;.   .,5$X....OO5.O5+ooooooooo.                                   .            .      . ",
"                                       .;.   .,X$X. .8...O5+oooooooooo.                                  .            .       . ",
"                                      .6.     .,5$. .888.O5+oooooooooo.                                ..             .      .  ",
"                                 ..    .      .,X$X.8888.O5+oooooooooo.                              ..              .       .  ",
"                                 .%.33333333333.,$$.8888.O5+ooooooooo.                                              .       .   ",
"                                  .%.          .,5$3333333333333333333333333333                 .                  .        .   ",
"                                   .6..         .,$$.88.O5++ooooooooo.         333333333333333..%.                .        .    ",
"                                    .%%..        .,$$.8.O5++oooo..oo..                      ..%%.               ..         .    ",
"                                     ..%%...      .,.X...5+++oo.@@..9.                   ...66..             ...          .     ",
"                                       ..%66.... .9.4X.<2.++++.OO........            ....%%%..                           .      ",
"                                         ...%%%%....#4X.<........00000000.    .......%666...                           ..       ",
"                                           .....%%%%.#4X.6666%%%%.............%%%%%%%....                             .         ",
"                                          .qq. ......##4.33......%%%%%%%%%6666.......                               ..          ",
"                                          ... .OOO.OO..2...qq.8%..............                                                  ",
"                                             .%....OO.8..88...88%.8888888%.                                                     ",
"                                             .%8888..888.8888888%.88888888%.                                                    ",
"                                            .%8888888888.88888888%.8888888;6.                                                   ",
"                                            .%888888888.888888888%.88888;;;;6.                                                  ",
"                                           .%8888888888.8888888888%.888777....                                                  ",
"                                           .%8888888888.8888888888%.w77w..555X.                                                 ",
"                                          .6;;;;8888888.888888888;;6.ww.$$$XXX.                                                 ",
"                                          .6;;77;;78888.888888;;;;;6...$$5XXXX.                                                 ",
"                                           .....ww77788.88887;777...5$$$55XXXXX.                                                ",
"                                           .5555...www.w88777w...$$$$XXX$$5XXXX.                                                ",
"                                           .5OXXX55..w.w777w..   .$5$XXXXX$XXXX.                                                ",
"                                           .OOOOXX555...ww..     .$55$$XXXX5XX.@.                                               ",
"                                           ....OOX55X555..       .$5555$$$XX..@%.                                               ",
"                                           .@@@.OX5XOOOO5.        .$5$$$....@@%%.                                               ",
"                                          .%%%%@.5OO.....         .$$...   .%%%%%.                                              ",
"                                          .%%%%%@...               ..       .%%%%.                                              ",
"                                         .%%%%%%%.                           .%%%.                                              ",
"                                         .%%%%%..                             .%%.                                              ",
"                                        .%%%%..                               .%%%.                                             ",
"                                        .%%%.                                  ....                                             ",
"                                       ..%%.                                   .@@.                                             ",
"                                       .@.%.                                   ...q.                                            ",
"                                      .q.@.                                    .qqq.                                            ",
"                                      .qq..                                    .qqqq.                                           ",
"                                     .qqqq.                                    .qqqq.                                           ",
"                                    .qqqqq.                                     .qqqq.                                          ",
"                                    .qqqqq.                                     .qqqqq.                                         "
};
