/* XPM */
static char *_c5b5155a9d94ab1881605c09a229a1bDYp1Aa6Vd396g4ee[] = {
/* columns rows colors chars-per-pixel */
"128 128 31 1 ",
"  c None",
". c black",
"X c #DFE0E8",
"o c #AB5130",
"O c #F5FFE8",
"+ c #A3A7C2",
"@ c #FF8933",
"# c #686F99",
"$ c #3D2936",
"% c #14121D",
"& c #14182E",
"* c #8F4D57",
"= c #E9B5A3",
"- c #AD2F45",
"; c #5B3138",
": c #8E5252",
"> c #BA756A",
", c #2D1B1E",
"< c #FFAE70",
"1 c #050403",
"2 c #E64539",
"3 c #781D4F",
"4 c #7D3833",
"5 c #0C112D",
"6 c #CF752B",
"7 c #3B2027",
"8 c #2F5753",
"9 c #F0B541",
"0 c #1B1F21",
"q c #4F1D4C",
"w c white",
/* pixels */
"                                                                                                                                ",
"                                                                                                                                ",
"                                                                                                                                ",
"                                                                                                                                ",
"                                                                                                                                ",
"                                                                                                                                ",
"                                                                                                                                ",
"                                                                                                                                ",
"                                                                                                                                ",
"                                                                                                                                ",
"                                                                                                                                ",
"                                                                                                                                ",
"                                                                                                                                ",
"                                                                                                                                ",
"                                                                                                                                ",
"                                                                                                                                ",
"                                                                                                                                ",
"                                                                                                                                ",
"                                                                                                                                ",
"                                                                                                                                ",
"                                                                                                                                ",
"                                                                                                                                ",
"                                                                                                                                ",
"                                                                                                                                ",
"                                                                                                                                ",
"                                                                                                                                ",
"                                                                                                                                ",
"                                                                                                                                ",
"                                                                                                                                ",
"                                                                                                                                ",
"                                                                                                                                ",
"                                                                                                                                ",
"                                                                                                                                ",
"                                                                                                                                ",
"                                                                                                                                ",
"                                                                                                                                ",
"                                                                                                                                ",
"                                                                                                                                ",
"                                                                                                                                ",
"                                                                                                                                ",
"                                                                                                                                ",
"                                                                                                                                ",
"                                                                                                                                ",
"                                                                                                                                ",
"                                                                                                                                ",
"                                                                                                                                ",
"                                                                                                                                ",
"                                                                                                                                ",
"                                                                                                                                ",
"                                                                                                                                ",
"                                                                                                                                ",
"                                                                                                                                ",
"                                                                                                                                ",
"                                                                                                                                ",
"                                                                                                                                ",
"                                                                                                                                ",
"                                                                                                                                ",
"                                                                                                                                ",
"                                                                                                                                ",
"                                                                                                                                ",
"                                                                                                                                ",
"                                                                                                                                ",
"                                                                                                                                ",
"                                                                                                                                ",
"                                                                ..   ..              XXXXXXXX                                   ",
"                                                              ..oo...oO.      ++++XXXOOOOOOOOX                                  ",
"                                                            ..OOO@.OO.oO.##+++XXXXOOOXXXXXXXXX                                  ",
"                                                          ..OOOOOOo.O.oOO.XXXX+++++XX                                           ",
"                                                        ..oOOOOOO+o.OO.OO@.#++                                                  ",
"                                                       .oo@oOOOOO+.OOO.OOOo.                                                    ",
"                                           .            ..o@oOOO+.+OOO.+OOo.                                                    ",
"                                         ..$.          .%&.o@oO+.@@+OOO.+@o.                                                    ",
"                                        .$$.*.       ..%%..o@o+....@@@@.@o.                                                     ",
"                                       .$.*$.$.     .=oo.-.o@..;;:;....&.o.                                                     ",
"                                       .$$.$*.*.    .=>.-.&..,.;:>>:>.&&&.                                                      ",
"                                        .$*.$$.$. ..<.....&&1,.:===>=.&&&.                                                      ",
"                                       .$.$$.$*...<<..2-33.&&.%.>=>=.&&&&.                                                      ",
"                                        .*.$*.$.4...2-3.....&1%.:>==.&&&.                                                       ",
"                                         .$.$$.4..2-3..444.4.%%%..>=.&&.                                                        ",
"                                          .*....555..446666.4.%%%%..+..                                                         ",
"                                           .$.&55...4666644.@4.%%%%.+.                                                          ",
"                                            .&5..446666444o.@4+.%%%.+.                                                          ",
"                                           .&..44666o447777.@4++...OO.                                                          ",
"                                          .&.74666444777o44.@4++++OOO.                                                          ",
"                                         .&..646o4477ooo47.@4+OOOOOOO.                                                          ",
"                                        .&. .64.477...477.@4+OOOOOOOO.                                                          ",
"                                        .5.  .4o...4.@....@4+OOOOOOOO.                                                          ",
"                                       .-.   .647o....@@4.@4+OOOOOOOO.                                                          ",
"                                       .-.   .6o7o. .5..@.4++OOOOOOOO.                                                          ",
"                                      .2.     .647. .555.@4+OOOOOOOOO.                                                          ",
"                                  .    .      .6o7o.5555.@4+OOOOOOOOO.                                                          ",
"                                 .&.11111111111.677.5555.@4+OOOOOOOOO.                                                          ",
"                                  .&.          .6471111111111111111111111111111                 .                               ",
"                                   .2..         .677.55.@4++OOOOOOOOO.         111111111111111..&.                              ",
"                                    .&&..        .677.5.@4++OOOOOOOOO.                      ..&&.                               ",
"                                     ..&&...      .6.o...4++OOOO..OO..                   ...22..                                ",
"                                       ..&22.... .8.%o.=>.+++OO.99..8.               ....&&&..                                  ",
"                                         ...&&&&....$%o.=................     .......&222...                                    ",
"                                           .....&&&&.$%o.2222&&&&.............&&&&&&&....                                       ",
"                                          .00. ......$$%&11......&&&&&&&&&2222.......                                           ",
"                                          ... .@@@.@@..>...00.-.o.............                                                  ",
"                                             .&....@@.5..--...5&..5555555.                                                      ",
"                                             .&5555..555.5555555&.5555555&.                                                     ",
"                                            .&5555555555.5555555&.55555555&.                                                    ",
"                                            .&5555555555.55555555&.5555555-2.                                                   ",
"                                           .&5555555555.555555555&.55555----2.                                                  ",
"                                           .&5555555555.5555555555&.555333....                                                  ",
"                                          .2----5555555.5555555555&.q33q..444o.                                                 ",
"                                          .2--33--35555.555555555--2.qq.777ooo.                                                 ",
"                                           .....qq33355.555555-----2...774oooo.                                                 ",
"                                           .4444...qqq5.55553-333...477744ooooo.                                                ",
"                                           .4@ooo44..q.q55333q...7777ooo774oooo.                                                ",
"                                           .@@@@oo444..q333q..   .747ooooo7oooo.                                                ",
"                                           ....@@o44o44.qq..     .74477oooo4oo.9.                                               ",
"                                           .999.@o4o@@@@..       .74444777oo..9&.                                               ",
"                                          .&&&&9.4@@....          .74777....99&&.                                               ",
"                                          .&&&&&9...              .77...   .&&&&&.                                              ",
"                                         .&&&&&&&.                 ..       .&&&&.                                              ",
"                                         .&&&&&..                            .&&&.                                              ",
"                                        .&&&&..                               .&&.                                              ",
"                                        .&&&.                                 .&&&.                                             ",
"                                       ..&&.                                   ....                                             ",
"                                       .9.&.                                   .99.                                             ",
"                                      .0.9.                                    ...0.                                            ",
"                                      .00..                                    .000.                                            ",
"                                     .0000.                                    .0000.                                           ",
"                                    .00000.                                    .0000.                                           ",
"                                    .00000.                                    .00000.                                          "
};
