/* XPM */
static char *_efa4574b2d748f9c48e5c8a8b82dabdZukPdDhX3MVL8sau[] = {
/* columns rows colors chars-per-pixel */
"128 128 28 1 ",
"  c None",
". c black",
"X c #AB5130",
"o c #F5FFE8",
"O c #FF8933",
"+ c #A3A7C2",
"@ c #3D2936",
"# c #8F4D57",
"$ c #E64539",
"% c #AD2F45",
"& c #5B3138",
"* c #8E5252",
"= c #14182E",
"- c #2D1B1E",
"; c #BA756A",
": c #781D4F",
"> c #050403",
", c #E9B5A3",
"< c #14121D",
"1 c #0C112D",
"2 c #4F1D4C",
"3 c #CF752B",
"4 c #7D3833",
"5 c #3B2027",
"6 c #2F5753",
"7 c #1B1F21",
"8 c #F0B541",
"9 c white",
/* pixels */
"                                                                                                                                ",
"                                                                                                                                ",
"                                                                                                                                ",
"                                                                                                                                ",
"                                                                                                                                ",
"                                                                                                                                ",
"                                                                                                                                ",
"                                                                                                                                ",
"                                                                                                                                ",
"                                                                                                                                ",
"                                                                                                                                ",
"                                                                                                                                ",
"                                                                                                                                ",
"                                                                                                                                ",
"                                                                                                                                ",
"                                                                                                                                ",
"                                                                                                                                ",
"                                                                                                                                ",
"                                                                                                                                ",
"                                                                                                                                ",
"                                                                                                                                ",
"                                                                                                                                ",
"                                                                                                                                ",
"                                                                                                                                ",
"                                                                                                                                ",
"                                                                                                                                ",
"                                                                                                                                ",
"                                                                                                                                ",
"                                                                                                                                ",
"                                                                                                                                ",
"                                                                                                                                ",
"                                                                                                                                ",
"                                                                                                                                ",
"                                                                                                                                ",
"                                                                                                                                ",
"                                                                                                                                ",
"                                                                                                                                ",
"                                                                                                                                ",
"                                                                                                                                ",
"                                                                                                                                ",
"                                                                                                                                ",
"                                                                                                                                ",
"                                                                                                                                ",
"                                                                                                                                ",
"                                                                                                                                ",
"                                                                                                                                ",
"                                                                                                                                ",
"                                                                                                                                ",
"                                                                                                                                ",
"                                                                                                                                ",
"                                                                                                                                ",
"                                                                                                                                ",
"                                                                                                                                ",
"                                                                                                                                ",
"                                                                                                                                ",
"                                                                                                                                ",
"                                                                                                                                ",
"                                                                                                                                ",
"                                                                                                                                ",
"                                                                                                                                ",
"                                                                                                                                ",
"                                                               ..   ..                                                          ",
"                                                             ..XX...Xo.                                                         ",
"                                                           ..oooO.oo.Xo.                                                        ",
"                                                         ..ooooooX.o.Xoo.                                                       ",
"                                                       ..Xoooooo+X.oo.ooO.                                                      ",
"                                                      .XXOXooooo+.ooo.oooX.                                                     ",
"                                                       ..XOXooo+.+ooo.+ooX.                                                     ",
"                                         .               .XOXo+.OO+ooo.+OX.                                                     ",
"                                       ..@.      ..     ..XOX+....OOOO.OX.                                                      ",
"                                      .@@.#.    .$$..  .%.XO..&&*&....=.X.                                                      ",
"                                     .@.#@.@.   .%%%%..%.=..-.&*;;*;.===.                                                       ",
"                                     .@@.@#.#. .$%%%:::.===>-.*,,,;,.===.                                                       ",
"                                      .@#.@@.@.%%:::::::.===.<.;,;,.====.                                                       ",
"                                     .@.@@.@#.=1:222.....===><.*;,,.====..                                                      ",
"                                      .#.@#.@.=111..33.O4...<<<..;,.==..%$..                                                    ",
"                                       .@.@@.=111.XX333.O4+.<<<<<..+..2::%$$.                                                   ",
"                                        .#..=111.X33333X.O4+.=<<<<.+..2:::%$.                                                   ",
"                                         .@.=11.X333333X.O4+o.....++.3.2:::%.                                                   ",
"                                          .=11.X333333X4.O4+oooooo+.433.:::%.                                                   ",
"                                         .=11.X33333XX4.O4+oooooo++.X3X.2::.                                                    ",
"                                         .=1.X33335555..O4+oooooo+.433X.12:.                                                    ",
"                                        .=11.4335544...O4++oooooo+.5334.111.                                                    ",
"                                        .:1.4455X4..3.O4++oooooo+.X53X.1111.                                                    ",
"                                       .%:2.4X.4..OO.O4++ooooooo+.5334.111.                                                     ",
"                                       .%:2.35X. ....O4+ooooo.o+.453X.1111.                                                     ",
"                                        .:.3354..111.O4+oooo.=.+.4334.1111.                                                     ",
"                                         ..35X. .11.O4++.....=..453X.11111.                                                     ",
"                                          .354..1.......+oo.=..45334.1111.                                                      ",
"                                    .    ..35. ..1.O4+++++.$...543X.11111.                                                      ",
"                                   .=.... .5X. ....O4+++..=..55.4XX.11111.                                                      ",
"                                   .=.   .354. .66.......=..4345544.2:11.                                                       ",
"                                    .=.  .3X......6..6..$.XX333X4..2::::.                                                       ",
"                                     .$. .34.77777.66..=.3333X4..,,...%%.                                                       ",
"                                      .=..3..........==..344...%$.,,. ..                                                        ",
"                                   ..  .$=.,;,.....$$..34...%%%%$.,,.                                                           ",
"                                   .7.. ...;...$$==..,....2::%%%%$..,.                                                          ",
"                                    .77.. .;.OO....,.;.:2.22::%%%1=.,.                                                          ",
"                                     ..77...OO...,,...11:2.11111111=.                                                           ",
"                                       ..77.O.,,,..1111111.11111111=.                                                           ",
"                                         ...XX...111111111.111111111=.                                                          ",
"                                          .=.XXX.111111111.111111111=.                                                          ",
"                                          .=....1111111111.1111111111=.                                                         ",
"                                         .=.=1111111111111.1111111111$.                                                         ",
"                                         .=.=111111111111.11111111%%%%$.                                                        ",
"                                         .=.=111111111111.11111%%%::2...                                                        ",
"                                        .$%.=11%%%%%11111.2:%%%::2...44.                                                        ",
"                                        .$%.$%%%%%::::11.2::::2...55544.                                                        ",
"                                        .$..$%2.....2::2.22....5554444XX.                                                       ",
"                                        ..X4...44444..222..55555554444XX.                                                       ",
"                                        .OOOOX44444444... .5544XX55444XXX.                                                      ",
"                                        .OOOOOXXXXX44X44..5544XXXXX544XXX.                                                      ",
"                                         ..OOOXOO44XXOO. .5544XXXXX54XXXX.                                                      ",
"                                        .88.OOOOXXOOO..   .5554XXXX44XXXX.                                                      ",
"                                        .==8.OOXXO...      ..5...XXXXXX..                                                       ",
"                                        .===8.XX..           .888..XX..                                                         ",
"                                       .=====8..             .===88..                                                           ",
"                                       .=====.              .=====.                                                             ",
"                                      .=====.               .====.                                                              ",
"                                      .====.                .===.                                                               ",
"                                     .====.                 .==.                                                                ",
"                                     .===.                 .===.                                                                ",
"                                     .==.                  .==.                                                                 ",
"                                    .8...                  ....                                                                 ",
"                                    ..88.                  .88.                                                                 ",
"                                   .77...                 .7..7..                                                               ",
"                                   .7.777.                .777777...                                                            ",
"                                   .7.7777.               .777777777.                                                           "
};
