/* XPM */
static char * letter_a[] = {
"8 8 2 1",
"0 c #000000",
"1 c #ffffff",
"00000000",
"00011000",
"00100100",
"00100100",
"00111100",
"00100100",
"00100100",
"00000000"
};

/* XPM */
static char * letter_b[] = {
"8 8 2 1",
"0 c #000000",
"1 c #ffffff",
"11110000",
"10001000",
"10001000",
"11110000",
"10001000",
"10001000",
"11110000",
"00000000"
};

/* XPM */
static char * letter_c[] = {
"8 8 2 1",
"0 c #000000",
"1 c #ffffff",
"00111100",
"01000010",
"10000000",
"10000000",
"10000000",
"01000010",
"00111100",
"00000000"
};

/* XPM */
static char * letter_d[] = {
"8 8 2 1",
"0 c #000000",
"1 c #ffffff",
"11110000",
"10001000",
"10001000",
"10001000",
"10001000",
"10001000",
"11110000",
"00000000"
};

/* XPM */
static char * letter_e[] = {
"8 8 2 1",
"0 c #000000",
"1 c #ffffff",
"11111100",
"10000000",
"11111100",
"10000000",
"10000000",
"11111100",
"00000000",
"00000000"
};

/* XPM */
static char * letter_e[] = {
"8 8 2 1",
"0 c #000000",
"1 c #ffffff",
"11111100",
"10000000",
"11111100",
"10000000",
"10000000",
"11111100",
"00000000",
"00000000"
};

/* XPM */
static char * letter_f[] = {
"8 8 2 1",
"0 c #000000",
"1 c #ffffff",
"11111100",
"10000000",
"11111100",
"10000000",
"10000000",
"10000000",
"00000000",
"00000000"
};

/* XPM */
static char * letter_g[] = {
"8 8 2 1",
"0 c #000000",
"1 c #ffffff",
"01111000",
"10000100",
"10000000",
"10111100",
"10000100",
"10000100",
"01111000",
"00000000"
};

/* XPM */
static char * letter_h[] = {
"8 8 2 1",
"0 c #000000",
"1 c #ffffff",
"10001000",
"10001000",
"11111000",
"10001000",
"10001000",
"10001000",
"00000000",
"00000000"
};

/* XPM */
static char * letter_i[] = {
"8 8 2 1",
"0 c #000000",
"1 c #ffffff",
"11110000",
"00100000",
"00100000",
"00100000",
"00100000",
"11110000",
"00000000",
"00000000"
};

/* XPM */
static char * letter_j[] = {
"8 8 2 1",
"0 c #000000",
"1 c #ffffff",
"00011100",
"00000100",
"00000100",
"10000100",
"10000100",
"01111000",
"00000000",
"00000000"
};

/* XPM */
static char * letter_k[] = {
"8 8 2 1",
"0 c #000000",
"1 c #ffffff",
"10001000",
"10010000",
"11100000",
"10010000",
"10001000",
"10001000",
"00000000",
"00000000"
};

/* XPM */
static char * letter_l[] = {
"8 8 2 1",
"0 c #000000",
"1 c #ffffff",
"10000000",
"10000000",
"10000000",
"10000000",
"10000000",
"11111100",
"00000000",
"00000000"
};

/* XPM */
static char * letter_m[] = {
"8 8 2 1",
"0 c #000000",
"1 c #ffffff",
"10001000",
"11011000",
"10101000",
"10001000",
"10001000",
"10001000",
"00000000",
"00000000"
};

/* XPM */
static char * letter_n[] = {
"8 8 2 1",
"0 c #000000",
"1 c #ffffff",
"10001000",
"11001000",
"10101000",
"10011000",
"10001000",
"10001000",
"00000000",
"00000000"
};

/* XPM */
static char * letter_o[] = {
"8 8 2 1",
"0 c #000000",
"1 c #ffffff",
"01111000",
"10000100",
"10000100",
"10000100",
"10000100",
"01111000",
"00000000",
"00000000"
};

/* XPM */
static char * letter_p[] = {
"8 8 2 1",
"0 c #000000",
"1 c #ffffff",
"11111000",
"10001000",
"11111000",
"10000000",
"10000000",
"10000000",
"00000000",
"00000000"
};

/* XPM */
static char * letter_q[] = {
"8 8 2 1",
"0 c #000000",
"1 c #ffffff",
"01111000",
"10000100",
"10000100",
"10010100",
"10011100",
"01110100",
"00000000",
"00000000"
};

/* XPM */
static char * letter_r[] = {
"8 8 2 1",
"0 c #000000",
"1 c #ffffff",
"11111000",
"10001000",
"11111000",
"10010000",
"10001000",
"10001000",
"00000000",
"00000000"
};

/* XPM */
static char * letter_s[] = {
"8 8 2 1",
"0 c #000000",
"1 c #ffffff",
"01111000",
"10000000",
"01111000",
"00000100",
"10000100",
"01111000",
"00000000",
"00000000"
};

/* XPM */
static char * letter_t[] = {
"8 8 2 1",
"0 c #000000",
"1 c #ffffff",
"11111100",
"00100000",
"00100000",
"00100000",
"00100000",
"00100000",
"00000000",
"00000000"
};

/* XPM */
static char * letter_u[] = {
"8 8 2 1",
"0 c #000000",
"1 c #ffffff",
"10001000",
"10001000",
"10001000",
"10001000",
"10001000",
"01111000",
"00000000",
"00000000"
};

/* XPM */
static char * letter_v[] = {
"8 8 2 1",
"0 c #000000",
"1 c #ffffff",
"10001000",
"10001000",
"10001000",
"10001000",
"01010000",
"00100000",
"00000000",
"00000000"
};

/* XPM */
static char * letter_w[] = {
"8 8 2 1",
"0 c #000000",
"1 c #ffffff",
"10001000",
"10001000",
"10101000",
"10101000",
"11011000",
"10001000",
"00000000",
"00000000"
};

/* XPM */
static char * letter_x[] = {
"8 8 2 1",
"0 c #000000",
"1 c #ffffff",
"10001000",
"01010000",
"00100000",
"00100000",
"01010000",
"10001000",
"00000000",
"00000000"
};

/* XPM */
static char * letter_y[] = {
"8 8 2 1",
"0 c #000000",
"1 c #ffffff",
"10001000",
"10001000",
"01111000",
"00001000",
"01111000",
"10000000",
"00000000",
"00000000"
};

/* XPM */
static char * letter_z[] = {
"8 8 2 1",
"0 c #000000",
"1 c #ffffff",
"11111100",
"00001000",
"00010000",
"00100000",
"01000000",
"11111100",
"00000000",
"00000000"
};

/* XPM */
static char * letter_0[] = {
"8 8 2 1",
"0 c #000000",
"1 c #ffffff",
"01111000",
"10000100",
"10001100",
"10010100",
"10100100",
"11000100",
"01111000",
"00000000"
};

/* XPM */
static char * letter_1[] = {
"8 8 2 1",
"0 c #000000",
"1 c #ffffff",
"00100000",
"01100000",
"00100000",
"00100000",
"00100000",
"11110000",
"00000000",
"00000000"
};

/* XPM */
static char * letter_2[] = {
"8 8 2 1",
"0 c #000000",
"1 c #ffffff",
"01111000",
"10000100",
"00001000",
"00010000",
"00100000",
"11111100",
"00000000",
"00000000"
};

/* XPM */
static char * letter_3[] = {
"8 8 2 1",
"0 c #000000",
"1 c #ffffff",
"01111000",
"10000100",
"00001000",
"00011000",
"10000100",
"01111000",
"00000000",
"00000000"
};

/* XPM */
static char * letter_4[] = {
"8 8 2 1",
"0 c #000000",
"1 c #ffffff",
"00010000",
"00110000",
"01010000",
"11111100",
"00010000",
"00010000",
"00000000",
"00000000"
};

/* XPM */
static char * letter_5[] = {
"8 8 2 1",
"0 c #000000",
"1 c #ffffff",
"11111100",
"10000000",
"11111000",
"00000100",
"10000100",
"01111000",
"00000000",
"00000000"
};

/* XPM */
static char * letter_6[] = {
"8 8 2 1",
"0 c #000000",
"1 c #ffffff",
"01111000",
"10000100",
"10000000",
"11111000",
"10000100",
"01111000",
"00000000",
"00000000"
};

/* XPM */
static char * letter_7[] = {
"8 8 2 1",
"0 c #000000",
"1 c #ffffff",
"11111100",
"00000100",
"00001000",
"00010000",
"00100000",
"01000000",
"00000000",
"00000000"
};

/* XPM */
static char * letter_8[] = {
"8 8 2 1",
"0 c #000000",
"1 c #ffffff",
"01111000",
"10000100",
"10000100",
"01111000",
"10000100",
"01111000",
"00000000",
"00000000"
};

/* XPM */
static char * letter_9[] = {
"8 8 2 1",
"0 c #000000",
"1 c #ffffff",
"01111000",
"10000100",
"10000100",
"01111100",
"00000100",
"01111000",
"00000000",
"00000000"
};
