/* XPM */
static char *result[] = {
/* columns rows colors chars-per-pixel */
"128 128 24 1 ",
"  c black",
". c #050403",
"X c #14121D",
"o c #2D1B1E",
"O c #0C112D",
"+ c #1B1F21",
"@ c #14182E",
"# c #3B2027",
"$ c #5B3138",
"% c #7D3833",
"& c #4F1D4C",
"* c #781D4F",
"= c #2F5753",
"- c #AB5130",
"; c #E64539",
": c #CF752B",
"> c #AD2F45",
", c #8F4D57",
"< c #FF8933",
"1 c #F0B541",
"2 c #FFAE70",
"3 c #A3A7C2",
"4 c #F5FFE8",
"5 c None",
/* pixels */
"55555555555555555555555555555555555555555555555555555555555555555555555555555555555555555555555555555555555555555555555555555555",
"55555555555555555555555555555555555555555555555555555555555555555555555555555555555555555555555555555555555555555555555555555555",
"55555555555555555555555555555555555555555555555555555555555555555555555555555555555555555555555555555555555555555555555555555555",
"55555555555555555555555555555555555555555555555555555555555555555555555555555555555555555555555555555555555555555555555555555555",
"55555555555555555555555555555555555555555555555555555555555555555555555555555555555555555555555555555555555555555555555555555555",
"55555555555555555555555555555555555555555555555555555555555555555555555555555555555555555555555555555555555555555555555555555555",
"55555555555555555555555555555555555555555555555555555555555555555555555555555555555555555555555555555555555555555555555555555555",
"55555555555555555555555555555555555555555555555555555555555555555555555555555555555555555555555555555555555555555555555555555555",
"55555555555555555555555555555555555555555555555555555555555555555555555555555555555555555555555555555555555555555555555555555555",
"55555555555555555555555555555555555555555555555555555555555555555555555555555555555555555555555555555555555555555555555555555555",
"55555555555555555555555555555555555555555555555555555555555555555555555555555555555555555555555555555555555555555555555555555555",
"55555555555555555555555555555555555555555555555555555555555555555555555555555555555555555555555555555555555555555555555555555555",
"55555555555555555555555555555555555555555555555555555555555555555555555555555555555555555555555555555555555555555555555555555555",
"55555555555555555555555555555555555555555555555555555555555555555555555555555555555555555555555555555555555555555555555555555555",
"55555555555555555555555555555555555555555555555555555555555555555555555555555555555555555555555555555555555555555555555555555555",
"55555555555555555555555555555555555555555555555555555555555555555555555555555555555555555555555555555555555555555555555555555555",
"55555555555555555555555555555555555555555555555555555555555555555555555555555555555555555555555555555555555555555555555555555555",
"55555555555555555555555555555555555555555555555555555555555555555555555555555555555555555555555555555555555555555555555555555555",
"55555555555555555555555555555555555555555555555555555555555555555555555555555555555555555555555555555555555555555555555555555555",
"55555555555555555555555555555555555555555555555555555555555555555555555555555555555555555555555555555555555555555555555555555555",
"55555555555555555555555555555555555555555555555555555555555555555555555555555555555555555555555555555555555555555555555555555555",
"55555555555555555555555555555555555555555555555555555555555555555555555555555555555555555555555555555555555555555555555555555555",
"55555555555555555555555555555555555555555555555555555555555555555555555555555555555555555555555555555555555555555555555555555555",
"55555555555555555555555555555555555555555555555555555555555555555555555555555555555555555555555555555555555555555555555555555555",
"55555555555555555555555555555555555555555555555555555555555555555555555555555555555555555555555555555555555555555555555555555555",
"55555555555555555555555555555555555555555555555555555555555555555555555555555555555555555555555555555555555555555555555555555555",
"55555555555555555555555555555555555555555555555555555555555555555555555555555555555555555555555555555555555555555555555555555555",
"55555555555555555555555555555555555555555555555555555555555555555555555555555555555555555555555555555555555555555555555555555555",
"55555555555555555555555555555555555555555555555555555555555555555555555555555555555555555555555555555555555555555555555555555555",
"55555555555555555555555555555555555555555555555555555555555555555555555555555555555555555555555555555555555555555555555555555555",
"55555555555555555555555555555555555555555555555555555555555555555555555555555555555555555555555555555555555555555555555555555555",
"55555555555555555555555555555555555555555555555555555555555555555555555555555555555555555555555555555555555555555555555555555555",
"55555555555555555555555555555555555555555555555555555555555555555555555555555555555555555555555555555555555555555555555555555555",
"55555555555555555555555555555555555555555555555555555555555555555555555555555555555555555555555555555555555555555555555555555555",
"55555555555555555555555555555555555555555555555555555555555555555555555555555555555555555555555555555555555555555555555555555555",
"55555555555555555555555555555555555555555555555555555555555555555555555555555555555555555555555555555555555555555555555555555555",
"55555555555555555555555555555555555555555555555555555555555555555555555555555555555555555555555555555555555555555555555555555555",
"55555555555555555555555555555555555555555555555555555555555555555555555555555555555555555555555555555555555555555555555555555555",
"55555555555555555555555555555555555555555555555555555555555555555555555555555555555555555555555555555555555555555555555555555555",
"55555555555555555555555555555555555555555555555555555555555555555555555555555555555555555555555555555555555555555555555555555555",
"55555555555555555555555555555555555555555555555555555555555555555555555555555555555555555555555555555555555555555555555555555555",
"55555555555555555555555555555555555555555555555555555555555555555555555555555555555555555555555555555555555555555555555555555555",
"55555555555555555555555555555555555555555555555555555555555555555555555555555555555555555555555555555555555555555555555555555555",
"55555555555555555555555555555555555555555555555555555555555555555555555555555555555555555555555555555555555555555555555555555555",
"55555555555555555555555555555555555555555555555555555555555555555555555555555555555555555555555555555555555555555555555555555555",
"55555555555555555555555555555555555555555555555555555555555555555555555555555555555555555555555555555555555555555555555555555555",
"55555555555555555555555555555555555555555555555555555555555555555555555555555555555555555555555555555555555555555555555555555555",
"55555555555555555555555555555555555555555555555555555555555555555555555555555555555555555555555555555555555555555555555555555555",
"55555555555555555555555555555555555555555555555555555555555555555555555555555555555555555555555555555555555555555555555555555555",
"55555555555555555555555555555555555555555555555555555555555555555555555555555555555555555555555555555555555555555555555555555555",
"55555555555555555555555555555555555555555555555555555555555555555555555555555555555555555555555555555555555555555555555555555555",
"55555555555555555555555555555555555555555555555555555555555555555555555555555555555555555555555555555555555555555555555555555555",
"55555555555555555555555555555555555555555555555555555555555555555555555555555555555555555555555555555555555555555555555555555555",
"55555555555555555555555555555555555555555555555555555555555555555555555555555555555555555555555555555555555555555555555555555555",
"55555555555555555555555555555555555555555555555555555555555555555555555555555555555555555555555555555555555555555555555555555555",
"55555555555555555555555555555555555555555555555555555555555555555555555555555555555555555555555555555555555555555555555555555555",
"55555555555555555555555555555555555555555555555555555555555555555555555555555555555555555555555555555555555555555555555555555555",
"555555555555555555555555555555555555555555555555555555      55555555555555555555555555555555555555555555555555555555555555555555",
"55555555555555555555555555555555555555555555555555555 444444 5555  5555555555555555555555555555555555555555555555555555555555555",
"5555555555555555555555555555555555555555555555555555 44444444 555 -  55555555555555555555555555555555555555555555555555555555555",
"5555555555555555555555555555555555555555555555555555 44444444.55 <-44  555555555555555555555555555555555555555555555555555555555",
"555555555555555555555555555555555555555555555555555 344443333< 5 <-43- 555555555555555555555555555555555555555555555555555555555",
"555555555555555555555555555555555555555555555555555 <3333<<<<   <-44<- 555555555555555555555555555555555555555555555555555555555",
"555555555555555555555555555555555555555555555555555 <<<<<    >>-4443< 5555555555555555555555555555555555555555555555555555555555",
"55555555555555555555555555555555555555555555555555       >>>>>>4433<- 5555555555555555555555555555555555555555555555555555555555",
"55555555555555555555555555555555555555555 5555555 ;>>>>>>>>>>>*%<<<- 55555555555555555555555555555555555555555555555555555555555",
"555555555555555555555555555555555555555  # 555555 ;>>>>>>>>>**& --- 555555555555555555555555555555555555555555555555555555555555",
"55555555555555555555555555555555555555 # # 55555 ;>>>>>>>>**&  5   5555555555555555555555555555555555555555555555555555555555555",
"5555555555555555555555555555555555555 # , # 5555 ;>>>>>***&  $ 55555555555555555555555555555555555555555555555555555555555555555",
"5555555555555555555555555555555555555 # # , 555 ;>>>***&         555555555555555555555555555555555555555555555555555555555555555",
"555555555555555555555555555555555555 , , # # 55 ;***&   ;;;;>>>>* 55555555555555555555555555555555555555555555555555555555555555",
"555555555555555555555555555555555555 # # , , 55      ;;;>>>>>>>>* 55555555555555555555555555555555555555555555555555555555555555",
"5555555555555555555555555555555555555 , , # 5  > ;;;;>>>>>>>>>>>& 55555555555555555555555555555555555555555555555555555555555555",
"5555555555555555555555555555555555555 # # , 5 ;* ;>>>>>>>>>>>>>* 555555555555555555555555555555555555555555555555555555555555555",
"55555555555555555555555555555555555555 , # % ;> ;>>>>>>>>>>>>>>* 555555555555555555555555555555555555555555555555555555555555555",
"55555555555555555555555555555555555555 # % % >* ;>>>>>>>>>>>***& 555555555555555555555555555555555555555555555555555555555555555",
"555555555555555555555555555555555555555   % %  ;>>>>>>>>>>>OOOO 5555555555555555555555555555555555555555555555555555555555555555",
"55555555555555555555555555555555555555555 % %  ;>>>@@OOOOOOOOOO 55555555555555555555555555555555555555555        555555555555555",
"555555555555555555555555555555555555555555 % % @@@OOOOOOOOOOOOO 555555555555555555555555555555555        55  @@@@ 55555555555555",
"555555555555555555555555555555555555555555 % % @OOOOOOOOOOOOOO 4 5555555555555555555555555       55555555  @@    555555555555555",
"5555555555555555555555555555555555555555555 % @OOOOOOOOOOOOOOO 4 55555555555555555        5555555555555  @@  5555555555555555555",
"555555555555555555555555555555555555555555  % @OOOOOOOOOOOOOOO   555555555        5555555555555555555  @@  555555555555555555555",
"555555555555555555555555555555555555555555 @  @OOOOOOOOOOOOOOO <  5       5555555555555555555555555  ;;  55555555555555555555555",
"555555555555555555555555555555555555555555 @  @OOOOOOOOOOOOOOO -<<  5555555555555555555555555555   @@  5555555555555555555555555",
"555555555555555555555555555555555555555555 @O @OOOOOOO>>>>>**& #-<<<  55555555555555555555555   ;;;  555555555555555555555555555",
"555555555555555555555555555555555555555555    @OOO>>>>>>>***&& %##- X-  55555555555555555    @@@   55555555555555555555555555555",
"555555555555555555555555555555555555       ;>* ;>>>>>>        <   # oX- 555555555        ;;;;   55555555555555555555555555555555",
"55555555555555555555555555555       5555555    ;>>>   3 OOOOO <%34 oooX-         @@@@@@@@    55555555555555555555555555555555555",
"555555555555555555555        555555555555555555    ==               XooX ;;; @@@@        555555555555555555555555555555555555555",
"555555555555         5555555555555555                ;;;; OOOOOOOOO -X           55555555555555555555555555555555555555555555555",
"55555555555 @@@@@                    @@@@@@@ ;;;;;;;;              ;   555555555555555555555555555555555555555555555555555555555",
"555555555555     ;;; @@@@@@@@@@ ;;; @                &&& < ;; % ; >; 55555555555555555555555555555555555555555555555555555555555",
"55555555555555555                    5555555     && < &* < >;; &>; >; 5555555555555555555555555555555555555555555555555555555555",
"5555555555555555555555555555555555555555555555 & &* < *> < >>; *>; >; 5555555555555555555555555555555555555555555555555555555555",
"555555555555555555555555555555555555555555555 @ &** < *> < >>; *>; *>; 555555555555555555555555555555555555555555555555555555555",
"555555555555555555555555555555555555555555555 @ OO* < *> < >>; &*>; >@ 555555555555555555555555555555555555555555555555555555555",
"5555555555555555555555555555555    5555555555 @ OOO < *> < >>; &*>@ OO@ 55555555555555555555555555555555555555555555555555555555",
"5555555555555555555555555555555 +++     55555 @ OOO < OO < >>>;  O@ OO@ 55555555555555555555555555555555555555555555555555555555",
"55555555555555555555555555555555   +++++        OOO < OO < OOOO 1 @ OO    555555555555555555555555555555555555555555555555555555",
"55555555555555555555555555555555555     ++++++                 1<     2222 55555555555555555555555555555555555555555555555555555",
"5555555555555555555555555555555555555555      ++++++ < ++ < ++ < 22222    555555555555555555555555555555555555555555555555555555",
"55555555555555555555555555555555555555555555 *                 <%     O@ 5555555555555555555555555555555555555555555555555555555",
"55555555555555555555555555555555555555555555 * &OOOOOOOOOOOOOOO % OO@ OO 5555555555555555555555555555555555555555555555555555555",
"555555555555555555555555555555555555555555555  &**OOOOOOOOOOOOO@ OOO@ >; 5555555555555555555555555555555555555555555555555555555",
"55555555555555555555555555555555555555555555555 &***>OOOOOOOOOO@ OO>; *; 5555555555555555555555555555555555555555555555555555555",
"555555555555555555555555555555555555555555555555  &&**>>OOOOOO>; &**>;  55555555555555555555555555555555555555555555555555555555",
"55555555555555555555555555555555555555555555555555   &&***>>>>;; &&   5555555555555555555555555555555555555555555555555555555555",
"55555555555555555555555555555555555555555555555555 %%   &&**>;      555555555555555555555555555555555555555555555555555555555555",
"55555555555555555555555555555555555555555555555555 %%%%%      - ### 555555555555555555555555555555555555555555555555555555555555",
"55555555555555555555555555555555555555555555555555 %%%%%%%%---: ## 5555555555555555555555555555555555555555555555555555555555555",
"55555555555555555555555555555555555555555555555555 %%%%%%%-----: % 5555555555555555555555555555555555555555555555555555555555555",
"55555555555555555555555555555555555555555555555555 %%%%%%%----::  55555555555555555555555555555555555555555555555555555555555555",
"555555555555555555555555555555555555555555555555555 %:%%%----::  555555555555555555555555555555555555555555555555555555555555555",
"5555555555555555555555555555555555555555555555555555 %:%----:   5555555555555555555555555555555555555555555555555555555555555555",
"55555555555555555555555555555555555555555555555555555  ::::: @ 55555555555555555555555555555555555555555555555555555555555555555",
"55555555555555555555555555555555555555555555555555555 1   : @ 555555555555555555555555555555555555555555555555555555555555555555",
"55555555555555555555555555555555555555555555555555555 @111 @@ 555555555555555555555555555555555555555555555555555555555555555555",
"55555555555555555555555555555555555555555555555555555 @@@@ @ 5555555555555555555555555555555555555555555555555555555555555555555",
"55555555555555555555555555555555555555555555555555555 @@@    5555555555555555555555555555555555555555555555555555555555555555555",
"55555555555555555555555555555555555555555555555555555 @@@ 11 5555555555555555555555555555555555555555555555555555555555555555555",
"55555555555555555555555555555555555555555555555555555 @@@    5555555555555555555555555555555555555555555555555555555555555555555",
"555555555555555555555555555555555555555555555555555555 @@ +++ 555555555555555555555555555555555555555555555555555555555555555555",
"555555555555555555555555555555555555555555555555555555    ++++ 55555555555555555555555555555555555555555555555555555555555555555",
"555555555555555555555555555555555555555555555555555555 11 +++++  555555555555555555555555555555555555555555555555555555555555555",
"555555555555555555555555555555555555555555555555555555       ++++ 55555555555555555555555555555555555555555555555555555555555555",
"555555555555555555555555555555555555555555555555555555 ++#  5     55555555555555555555555555555555555555555555555555555555555555",
"555555555555555555555555555555555555555555555555555555 +++##   55555555555555555555555555555555555555555555555555555555555555555",
"555555555555555555555555555555555555555555555555555555 ++++++++ 5555555555555555555555555555555555555555555555555555555555555555"
};
