/* XPM */
static char *result[] = {
/* columns rows colors chars-per-pixel */
"128 128 25 1 ",
"  c black",
". c #050403",
"X c #14121D",
"o c #2D1B1E",
"O c #0C112D",
"+ c #1B1F21",
"@ c #14182E",
"# c #3B2027",
"$ c #5B3138",
"% c #7D3833",
"& c #4F1D4C",
"* c #781D4F",
"= c #2F5753",
"- c #AB5130",
"; c #E64539",
": c #CF752B",
"> c #AD2F45",
", c #8F4D57",
"< c #FF8933",
"1 c #F0B541",
"2 c #FFAE70",
"3 c #E9B5A3",
"4 c #A3A7C2",
"5 c #F5FFE8",
"6 c None",
/* pixels */
"66666666666666666666666666666666666666666666666666666666666666666666666666666666666666666666666666666666666666666666666666666666",
"66666666666666666666666666666666666666666666666666666666666666666666666666666666666666666666666666666666666666666666666666666666",
"66666666666666666666666666666666666666666666666666666666666666666666666666666666666666666666666666666666666666666666666666666666",
"66666666666666666666666666666666666666666666666666666666666666666666666666666666666666666666666666666666666666666666666666666666",
"66666666666666666666666666666666666666666666666666666666666666666666666666666666666666666666666666666666666666666666666666666666",
"66666666666666666666666666666666666666666666666666666666666666666666666666666666666666666666666666666666666666666666666666666666",
"66666666666666666666666666666666666666666666666666666666666666666666666666666666666666666666666666666666666666666666666666666666",
"66666666666666666666666666666666666666666666666666666666666666666666666666666666666666666666666666666666666666666666666666666666",
"66666666666666666666666666666666666666666666666666666666666666666666666666666666666666666666666666666666666666666666666666666666",
"66666666666666666666666666666666666666666666666666666666666666666666666666666666666666666666666666666666666666666666666666666666",
"66666666666666666666666666666666666666666666666666666666666666666666666666666666666666666666666666666666666666666666666666666666",
"66666666666666666666666666666666666666666666666666666666666666666666666666666666666666666666666666666666666666666666666666666666",
"66666666666666666666666666666666666666666666666666666666666666666666666666666666666666666666666666666666666666666666666666666666",
"66666666666666666666666666666666666666666666666666666666666666666666666666666666666666666666666666666666666666666666666666666666",
"66666666666666666666666666666666666666666666666666666666666666666666666666666666666666666666666666666666666666666666666666666666",
"66666666666666666666666666666666666666666666666666666666666666666666666666666666666666666666666666666666666666666666666666666666",
"66666666666666666666666666666666666666666666666666666666666666666666666666666666666666666666666666666666666666666666666666666666",
"66666666666666666666666666666666666666666666666666666666666666666666666666666666666666666666666666666666666666666666666666666666",
"66666666666666666666666666666666666666666666666666666666666666666666666666666666666666666666666666666666666666666666666666666666",
"66666666666666666666666666666666666666666666666666666666666666666666666666666666666666666666666666666666666666666666666666666666",
"66666666666666666666666666666666666666666666666666666666666666666666666666666666666666666666666666666666666666666666666666666666",
"66666666666666666666666666666666666666666666666666666666666666666666666666666666666666666666666666666666666666666666666666666666",
"66666666666666666666666666666666666666666666666666666666666666666666666666666666666666666666666666666666666666666666666666666666",
"66666666666666666666666666666666666666666666666666666666666666666666666666666666666666666666666666666666666666666666666666666666",
"66666666666666666666666666666666666666666666666666666666666666666666666666666666666666666666666666666666666666666666666666666666",
"66666666666666666666666666666666666666666666666666666666666666666666666666666666666666666666666666666666666666666666666666666666",
"66666666666666666666666666666666666666666666666666666666666666666666666666666666666666666666666666666666666666666666666666666666",
"66666666666666666666666666666666666666666666666666666666666666666666666666666666666666666666666666666666666666666666666666666666",
"66666666666666666666666666666666666666666666666666666666666666666666666666666666666666666666666666666666666666666666666666666666",
"66666666666666666666666666666666666666666666666666666666666666666666666666666666666666666666666666666666666666666666666666666666",
"66666666666666666666666666666666666666666666666666666666666666666666666666666666666666666666666666666666666666666666666666666666",
"66666666666666666666666666666666666666666666666666666666666666666666666666666666666666666666666666666666666666666666666666666666",
"66666666666666666666666666666666666666666666666666666666666666666666666666666666666666666666666666666666666666666666666666666666",
"66666666666666666666666666666666666666666666666666666666666666666666666666666666666666666666666666666666666666666666666666666666",
"66666666666666666666666666666666666666666666666666666666666666666666666666666666666666666666666666666666666666666666666666666666",
"66666666666666666666666666666666666666666666666666666666666666666666666666666666666666666666666666666666666666666666666666666666",
"66666666666666666666666666666666666666666666666666666666666666666666666666666666666666666666666666666666666666666666666666666666",
"66666666666666666666666666666666666666666666666666666666666666666666666666666666666666666666666666666666666666666666666666666666",
"66666666666666666666666666666666666666666666666666666666666666666666666666666666666666666666666666666666666666666666666666666666",
"66666666666666666666666666666666666666666666666666666666666666666666666666666666666666666666666666666666666666666666666666666666",
"66666666666666666666666666666666666666666666666666666666666666666666666666666666666666666666666666666666666666666666666666666666",
"66666666666666666666666666666666666666666666666666666666666666666666666666666666666666666666666666666666666666666666666666666666",
"66666666666666666666666666666666666666666666666666666666666666666666666666666666666666666666666666666666666666666666666666666666",
"66666666666666666666666666666666666666666666666666666666666666666666666666666666666666666666666666666666666666666666666666666666",
"66666666666666666666666666666666666666666666666666666666666666666666666666666666666666666666666666666666666666666666666666666666",
"66666666666666666666666666666666666666666666666666666666666666666666666666666666666666666666666666666666666666666666666666666666",
"66666666666666666666666666666666666666666666666666666666666666666666666666666666666666666666666666666666666666666666666666666666",
"66666666666666666666666666666666666666666666666666666666666666666666666666666666666666666666666666666666666666666666666666666666",
"66666666666666666666666666666666666666666666666666666666666666666666666666666666666666666666666666666666666666666666666666666666",
"66666666666666666666666666666666666666666666666666666666666666666666666666666666666666666666666666666666666666666666666666666666",
"66666666666666666666666666666666666666666666666666666666666666666666666666666666666666666666666666666666666666666666666666666666",
"66666666666666666666666666666666666666666666666666666666666666666666666666666666666666666666666666666666666666666666666666666666",
"66666666666666666666666666666666666666666666666666666666666666666666666666666666666666666666666666666666666666666666666666666666",
"66666666666666666666666666666666666666666666666666666666666666666666666666666666666666666666666666666666666666666666666666666666",
"66666666666666666666666666666666666666666666666666666666666666666666666666666666666666666666666666666666666666666666666666666666",
"66666666666666666666666666666666666666666666666666666666666666666666666666666666666666666666666666666666666666666666666666666666",
"66666666666666666666666666666666666666666666666666666666666666666666666666666666666666666666666666666666666666666666666666666666",
"66666666666666666666666666666666666666666666666666666666666666666666666666666666666666666666666666666666666666666666666666666666",
"666666666666666666666666666666666666666666666666666666      66666666666666666666666666666666666666666666666666666666666666666666",
"66666666666666666666666666666666666666666666666666666 555555 6666  6666666666666666666666666666666666666666666666666666666666666",
"6666666666666666666666666666666666666666666666666666 55555555 666 -  66666666666666666666666666666666666666666666666666666666666",
"6666666666666666666666666666666666666666666666666666 55555555.66 <-55  666666666666666666666666666666666666666666666666666666666",
"666666666666666666666666666666666666666666666666666 455554444< 6 <-54- 666666666666666666666666666666666666666666666666666666666",
"666666666666666666666666666666666666666666666666666 <4444<<<<   <-55<- 666666666666666666666666666666666666666666666666666666666",
"666666666666666666666666666666666666666666666666666 <<<<<    >>-5554< 6666666666666666666666666666666666666666666666666666666666",
"66666666666666666666666666666666666666666666666666       >>>>>>5544<- 6666666666666666666666666666666666666666666666666666666666",
"6666666666666666666666666666666666666666 66666666 ;>>>>>>>>>>>*%<<<- 66666666666666666666666666666666666666666666666666666666666",
"66666666666666666666666666666666666666  # 6666666 ;>>>>>>>>>**& --- 666666666666666666666666666666666666666666666666666666666666",
"6666666666666666666666666666666666666 # # 666666 ;>>>>>>>>**&  6   6666666666666666666666666666666666666666666666666666666666666",
"666666666666666666666666666666666666 # , # 66666 ;>>>>>***&  $ 66666666666666666666666666666666666666666666666666666666666666666",
"666666666666666666666666666666666666 # # , 6666 ;>>>***&        6666666666666666666666666666666666666666666666666666666666666666",
"66666666666666666666666666666666666 , , # # 666 ;***&   ;;;>>>>* 666666666666666666666666666666666666666666666666666666666666666",
"66666666666666666666666666666666666 # # , , 6666     ;;>>>>>>>>* 666666666666666666666666666666666666666666666666666666666666666",
"666666666666666666666666666666666666 , , # 666  ;;;;>>>>>>>>>>>& 666666666666666666666666666666666666666666666666666666666666666",
"666666666666666666666666666666666666 # # , 66 * ;>>>>>>>>>>>>>* 6666666666666666666666666666666666666666666666666666666666666666",
"6666666666666666666666666666666666666 , # % 6  ;>>>>>>>>>>>>>>* 6666666666666666666666666666666666666666666666666666666666666666",
"6666666666666666666666666666666666666 # % %  * ;>>>>>>>>>>>***& 6666666666666666666666666666666666666666666666666666666666666666",
"66666666666666666666666666666666666666   % %  ;>>>>>>>>>>>OOOO 5 666666666666666666666666666666666666666666666666666666666666666",
"6666666666666666666666666666666666666666 % %  ;>>>@@OOOOOOOOOO 5 666666666666666666666666666666666666666        6666666666666666",
"66666666666666666666666666666666666666666 % % @@@OOOOOOOOOOOOO 5 6666666666666666666666666666666        66  @@@@ 666666666666666",
"66666666666666666666666666666666666666666 % % @OOOOOOOOOOOOOO 45 666666666666666666666666       66666666  @@    6666666666666666",
"666666666666666666666666666666666666666666 % @OOOOOOOOOOOOOOO 455 666666666666666        6666666666666  @@  66666666666666666666",
"666666666666666666666666666666666666666666 % @OOOOOOOOOOOOOOO  45 6666666        6666666666666666666  @@  6666666666666666666666",
"6666666666666666666666666666666666666666666  @OOOOOOOOOOOOOOO <          6666666666666666666666666  ;;  666666666666666666666666",
"6666666666666666666666666666666666666666666  @OOOOOOOOOOOOOOO -<<   666666666666666666666666666   @@  66666666666666666666666666",
"6666666666666666666666666666666666666666666  @OOOOOOO>>>>>**& #-<<<  66666666666666666666666   ;;;  6666666666666666666666666666",
"666666666666666666666666666666666666666666   @OOO>>>>>>>***&& %##- X-  66666666666666666    @@@   666666666666666666666666666666",
"66666666666666666666666666666666666       6 * ;>>>>>>        <   # oX- 666666666        ;;;;   666666666666666666666666666666666",
"6666666666666666666666666666       666666666  ;>>>   44 OOOOO <%4 oooX-         @@@@@@@@    666666666666666666666666666666666666",
"66666666666666666666        666666666666666666    =                XooX ;;; @@@@        6666666666666666666666666666666666666666",
"66666666666         6666666666666666                ;;;; OOOOOOOOO -X           666666666666666666666666666666666666666666666666",
"6666666666 @@@@@                    @@@@@@@ ;;;;;;;;              3    666666666666666666666666666666666666666666666666666666666",
"66666666666     ;;; @@@@@@@@@@ ;;; @                ++        <-       666666666666666666666666666666666666666666666666666666666",
"6666666666666666                    666666666 +++     && < &;  - >; &>; 66666666666666666666666666666666666666666666666666666666",
"666666666666666666666666666666666666666666666    >  <&&* < *; & >>>; *; 66666666666666666666666666666666666666666666666666666666",
"66666666666666666666666666666666666666666666666 > & < *> < *;;&*>>>; &>; 6666666666666666666666666666666666666666666666666666666",
"6666666666666666666666666666666666666666666666 @ @* < *> < >>; &>>>>; *@ 6666666666666666666666666666666666666666666666666666666",
"6666666666666666666666666666666    66666666666 O @O < *> < >>; *>>>>@ OO@ 666666666666666666666666666666666666666666666666666666",
"6666666666666666666666666666666 +++     66666 @ @OO < OO < >>; * OOO@ OO@ 666666666666666666666666666666666666666666666666666666",
"66666666666666666666666666666666   +++++      @ @OO < OO < OOO@ 1 OOO@    666666666666666666666666666666666666666666666666666666",
"66666666666666666666666666666666666     ++++++       <    <    1<     2222 66666666666666666666666666666666666666666666666666666",
"6666666666666666666666666666666666666666      ++++++ < ++ < ++ < 22222     66666666666666666666666666666666666666666666666666666",
"66666666666666666666666666666666666666666666 ;                 <-     OOO@ 66666666666666666666666666666666666666666666666666666",
"66666666666666666666666666666666666666666666 ; &OOOOOOOOOOOOOO@ - OOO@ O>; 66666666666666666666666666666666666666666666666666666",
"666666666666666666666666666666666666666666666  &**OOOOOOOOOOOO@  OOOO; &*; 66666666666666666666666666666666666666666666666666666",
"66666666666666666666666666666666666666666666666 &**>OOOOOOOOOO@ OO*>>; &  666666666666666666666666666666666666666666666666666666",
"666666666666666666666666666666666666666666666666  &*>>>>>OOOOO@ &***>   66666666666666666666666666666666666666666666666666666666",
"66666666666666666666666666666666666666666666666666  &&***>>>>>; &&   % 666666666666666666666666666666666666666666666666666666666",
"6666666666666666666666666666666666666666666666666 ##     &&**>;   %%%- 666666666666666666666666666666666666666666666666666666666",
"666666666666666666666666666666666666666666666666 -%######      %%%%%-: 666666666666666666666666666666666666666666666666666666666",
"666666666666666666666666666666666666666666666666 -%%%%## %%%%%%%%%----: 66666666666666666666666666666666666666666666666666666666",
"6666666666666666666666666666666666666666666666666 -%%%%# %%%%%%%%----:: 66666666666666666666666666666666666666666666666666666666",
"66666666666666666666666666666666666666666666666666  -%%## %%%:%%---::: 666666666666666666666666666666666666666666666666666666666",
"66666666666666666666666666666666666666666666666666 1  %%##  %::---::  6666666666666666666666666666666666666666666666666666666666",
"66666666666666666666666666666666666666666666666666 @11 %  66  ::::: 666666666666666666666666666666666666666666666666666666666666",
"6666666666666666666666666666666666666666666666666 @@@@1 6666 1   : 6666666666666666666666666666666666666666666666666666666666666",
"6666666666666666666666666666666666666666666666666 @@@@ 66666 @111 66666666666666666666666666666666666666666666666666666666666666",
"6666666666666666666666666666666666666666666666666 @@@ 666666 @@@@ 66666666666666666666666666666666666666666666666666666666666666",
"666666666666666666666666666666666666666666666666 @@@ 6666666 @@@ 666666666666666666666666666666666666666666666666666666666666666",
"666666666666666666666666666666666666666666666666 @@@ 6666666 @@@ 666666666666666666666666666666666666666666666666666666666666666",
"666666666666666666666666666666666666666666666666    66666666 @@@ 666666666666666666666666666666666666666666666666666666666666666",
"666666666666666666666666666666666666666666666666 11 666666666 @@ 666666666666666666666666666666666666666666666666666666666666666",
"66666666666666666666666666666666666666666666666 +   666666666    666666666666666666666666666666666666666666666666666666666666666",
"6666666666666666666666666666666666666666666666 ++++ 666666666 11 666666666666666666666666666666666666666666666666666666666666666",
"6666666666666666666666666666666666666666666666 +++++ 66666666    666666666666666666666666666666666666666666666666666666666666666",
"6666666666666666666666666666666666666666666666 +++++ 66666666 ++#  6666666666666666666666666666666666666666666666666666666666666",
"66666666666666666666666666666666666666666666666 + +++  666666 +++##   6666666666666666666666666666666666666666666666666666666666",
"666666666666666666666666666666666666666666666666  +++++ 66666 ++++++++ 666666666666666666666666666666666666666666666666666666666"
};
