/* XPM */
static char *a087bb17dde240a0c0386f5c13f58d21oW18j0naUmsQaH8d[] = {
/* columns rows colors chars-per-pixel */
"16 32 10 1 ",
"  c None",
". c #21110D",
"X c #503625",
"o c #755338",
"O c #9E2E46",
"+ c #BC4952",
"@ c #9D7658",
"# c #677598",
"$ c #8F9AB0",
"% c #B6BEC8",
/* pixels */
" ...        ....",
".@@@........@@@.",
".@@@o@@@@@@o@@@.",
".oooXXXXXXXXooo.",
".oo#%%%%%%%%#oo.",
".oo%%%%%%%%%%oo.",
".#$%%%%%%%%%%$#.",
".#++++++++++++#.",
".++++++++++++++.",
".++++++++++++++.",
".++++++++++++++.",
".++++++++++++++.",
".++++++++++++++.",
".++++++++++++++.",
".++++++++++++++.",
".++++++++++++++.",
".++++++++++++++.",
".++++++++++++++.",
".++++++++++++++.",
".++++++++++++++.",
".++++++++++++++.",
".++++++++++++++.",
".++++++++++++++.",
".+OOOOOOOOOOOO+.",
".OOOOOOOOOOOOOO.",
".OOOOOOOOOOOOOO.",
".XXXXXXXXXXXXXX.",
".oooooooooooooo.",
" .XXX......XXX. ",
" .XXX......XXX. ",
"                ",
"                "
};
