/* XPM */
static char *_ca3ca39f61145e195a00674c519941csjqylKD0ryB7P3kv[] = {
/* columns rows colors chars-per-pixel */
"128 128 26 1 ",
"  c #00796B",
". c #455A64",
"X c #4C6B70",
"o c #4F6E71",
"O c #507374",
"+ c #557E7C",
"@ c #00897B",
"# c #587A80",
"$ c #597D80",
"% c #188F81",
"& c #5A8082",
"* c #5C8686",
"= c #5C8886",
"- c #5D8C84",
"; c #5F9288",
": c #599C8C",
"> c #61948B",
", c #63978C",
"< c #63998D",
"1 c #659A8F",
"2 c #629C8E",
"3 c #659D8F",
"4 c #639E90",
"5 c #649C90",
"6 c #64A192",
"7 c #67A192",
/* pixels */
"7777777777777777777777777777777777777777777777777777777777777@777@77@@777777777777777777777777777777777777777 777 77 77777777777",
"77777777777777777777777777777777777777777777777777777777777777@@7@7@@7777777777777777777777777777777777777777  77 7  77777777777",
"777777777777777777777777777777777777777777777777777777777777777@777@777777777777777777777777777777777777777777 7 77 777777777777",
"77777777777777777777777777777777777777777777777777777777777777777777777777777777777777777777777777777777777777 7 77 777777777777",
"77777777777777777777777777777777777777777777777777777777777777777777777777777777777777777777777777777777777777777777777777777777",
"777777777777777777777777777777777777777777777777777777777777777777777777777777777@777@777777777777777777777777777777777777777777",
"777777@777@7777777777777777777777777777777777777777777777777777777777777777777777@777@77@@77777777777777777777777777777777777777",
"777777@777@77@@77777777777777777@777@777777777777777777777777777777777777777777777@@7@7@@777777777777777777777777777777777777777",
"7777777@@7@7@@777777777777777777@777@77@@777777777777777777777777777777777777777777@777@7777777777777777777777777777777777777777",
"77777777@777@77777777777777777777@@7@7@@7777777777777777777777777777777777777777777777777777777777777777777777777777777777777777",
"7777777777777777777777777777777777@777@77777777777777777777777777777777777777777777777777777777777777777777777777777777777777777",
"77777777777777777777777777777777777777777777777777777777777777777777777777777777777777777777777777777777777777777777777777777777",
"77777777777777777777777777777777777777777777777777777777777777777777777777777777777777777777777777777777777777777777777777777777",
"77777777777777777777777777777777777777777777777777777777777777777777777777777777777777777777777777777777777777777777777777777777",
"7777777777777777777777777777777777777777777777777777777777777777777777777777777777777777777777777777777777777777@777@77777777777",
"7777777777777777777777777777777777777777777777777777777777777777777777777777777777777777777777777777777777777777@777@77@@7777777",
"777777777777777777777777777777777777777777777777777777777777@777@777777777777777777777777777777777777777777777777@@7@7@@77777777",
"777777777777777777777777777777777777777777777777777777777777@777@77@@777777777777777777777777777777777777777777777%777@777777777",
"7777777777777777777777777777777777777777777777777777777777777@@7@7@@777777777777777777777777777777777777777777777777777777777777",
"7777777777777777777777777777777777777777777777 777777777777777@777@777777777777777777777777777 777777777777777777777777777777777",
"777777777777777777777777777777777777777777 777  777 77777777777777777777777777777777777777 777  777 7777777777777777777777777777",
"7777777777777777777777777777777777777777777 777 77 7777777777777777777&77777777777777777777 777 77 77777777777777777777777777777",
"77777 7777777777777777777777777777777777777  77 7  7777777777777777777777777777777777777777  77 7  77777777777777777777777777777",
"7 777  777 777777777777777777777777777777777 7 77 777777777777777777777777777777777777777777 7 77 777777777777777777777777777777",
"77 777 77 77777777777@777@777777777777777777 7 77 777777777777777777777774777777777777777777 7 77 777777777777777777777777777777",
"77  77 7  77777777777@777@77@@77777777777777777777777777777777777777777777757777777777777777777777777777777777777777777777777777",
"777 7 77 7777777777777@@7@7@@77777777777777777777777777777777777777777777777777=777777777777777777777777777777777777777777777777",
"777 7 77 77777777777777@777@7777777777777777777777777777777777777777777777777777777777777777777777777777777777777777777777777777",
"77777777777777777777777777777777777777777777777777777777777777777777777777777777777777777777777777777777777777777777777477777777",
"77777777777777777777777777777777777777777777777777777777777777777777777777777777777777777777777777777777777777777777777777777777",
"77777777777777777777777777777777777777777777777777777777777777777 77777777777777777777777777777777777777777777777777277777777777",
"7777777777777777777777777777777777777777777777777777777777777 777  777 777777777777777777777777777777777777777777775>77777777777",
"77777777777777777777777777777777777777777777777777777777777777 777 77 777777777777777777777777777777777777777777777717&&77777777",
"77777777777777777777777777777777777777777177777777777777777777  77 7  77777777777@777@77777777777777777777777777 777777777777777",
"777777777777777777777777777777777777777777777777777777777777777 7 77 777777777777@777@77@@777777777777777777 777  777 7777777777",
"777777777777777777777777777777777777777747777777777777777777777 7 77 7777777777777@@7@7@@77777777777777777777 777 77 77777777777",
"77777777777777777777777777777777777777777777777777777777777777777777777777777777777@777@777777777777777777777  77 7  77777777777",
"7777777777777777777777777 777777777777777777@777@7777777777777777777777777777777777777777777777777777777777777 7 77 777777777777",
"777777777777777777777 777  777:7777777777777@777@77@@777777777777777777777777777777777777777777777777777777777 7 77 777777777777",
"77@7777777777777777777 777 77 7777777777&7777@@7@7@@77777777777777777777777777777777777777777777777777777777777777777777777777@7",
"77@77@@777777777777777  77 7  7777777777777777@777@777777777777777777777777777777777777777777777777777777777777777777777777777@7",
"@7@7@@77777777777777777 7 77 77777777777777777777777777777777777777777777777777777777777777777777777777777777777777777777777777@",
"@777@777777777777777777 7 77 777777777777777777777777777777777777777777777777777777777777777777777777777777777777777777777777777",
"77777777777777777777777777777777777777777777777777777777777777777777777777777777777777777777777777777777777777777777777777777777",
"77777777777777777777777777777777777777777777777777777777777777777777777777777777777777777777777777777777777777777777777777777777",
"77777777777777777777777777777777777777777777777777777777777777777777777777777777777777777777777777777777777777777777777777777777",
"77777777777777777777777777777777777777777777777777777777777777777777777777777777777777777777777777777777777777777777777777777777",
"77777777777777777777777777777777777777777777777777777777777777777777777777777777777777777777777777777777777777777777777777777777",
"77777777777777777777777777777777777777777777777777777777777777777777777777777777777777777777777777777777777777777777777777777777",
"77777777777777777777777777777777777777777777777777777777777777777777777777777777777777777777777777777777777777777777777777777777",
"7777777777777777777777777777777777777777777777777777777777777777777777777777777777777777777777777777777777777777@777@77777777777",
"7777777777777777777777777777777777777777777777777777777777777777777777777777777777777777777777777777777777777777@777@77@@7777777",
"77777777777777777777777777777777777777777777777777777777777777777777777777777777777777777777777777777777777777777@@7@7@@77777777",
"777777777777777777777777@777@7777777777777777777777777777777777777777777777777777777777777777777777777777777777777@777@777777777",
"777777777777777777777777@777@77@@777777777777777777 7777777777777777777777777777777777777777777777777777777777777777777777777777",
"7777777777777777777777777@@7@7@@777777777777777 777  777:7577777777777777777777777777777777777 777777777777777777777777777777777",
"7777777 777777777777777777@777@77777777777777777 777 77 7777777777777777777777777777777777 777  777 7777777777777777777777777777",
"777 777  777 77777777777777777777777777777777777  77 7  77477777777777@777@7777777777777777 777 77 77777777777777777777777777777",
"7777 777 77 7777777777777777777777777777777777777 7 77 777777777777777@777@77@@777777777777  77 7  77777777777777777777777777777",
"7777  77 7  7777777777777777777777777777777777777 7 77 7777777777777777@@7@7@@77777777777777 7 77 777777777777777777777777777777",
"77777 7 77 7777777777777777777777777777777777777777777777777777777777777@777@777777777777777 7 77 777777777777777777777777777777",
"77777 7 77 777777777777777777777777777777777777777777777777777777777777777777777777777777777777777777777777777777777777777777777",
"77777777777777777777777777777777777777777777777777777777777777777777777777777777777777777777777777777777777777777777777777777777",
"77777777777777777777777777777777777777777777777777777777777777777777777777777777777777777777777777777777777777777777777777777777",
"77777777777777777777777777777777777777777777777777777777777777777777777777777777777777777777777777777777777777777777777777777777",
"77777777777777777777777777777777777777777777777777777777777777777777777777777777777777777777777777777777777777777777777777777777",
"77777777777777777777777777777777777777777777777777777777777777777777777777777777777777777777777777777777777777777777777777777777",
"77777777777777777777777777777777777777777777777777777777777777777777777777777777777777777777777777777777777777777777777777777777",
"77777777777777777777777777777777777777777777777777777777777777777777777777777777777777777777777777777777777777777777777777777777",
"77777777777777777777777777777777777777777777777777777777777777777777777777777777777777777777777777777777777777777777777777777777",
"77777777777777777777777777777777777777777777777777777777777777777777777777777777777777777777777777777777777777777777777777777777",
"77777777777777777777777777777777777777777777777777777777777777777777777777777777777777777777777777777777777777777777777777777777",
"77777777777777777777777777777777777777777777777777777777777777777777777777777777777777777777777777@777@7777777777777777777777777",
"777777777@777@7777777777777777777777777777777777777777777777777777777777777 7777777777777777777777@777@77@@777777777777777777777",
"777777777@777@77@@77777777777777777777777777777777777777777777777777777 777  777:777777777777777777@@7@7@@7777777777777777777777",
"7777777777@@7@7@@7777777777777777777777777777777777777777777777777777777 777 77 77777177777777777777@777@77777777777777777777777",
"77777777777@777@777777777777777777777777777777@777@777777777777777777777  77 7  777777777777777777777777777777777777777777777777",
"7777777777777777777777777777777777777777777777@777@77@@777777777777777777 7 77 777777,777777777777777777777777777777777777777777",
"77777777777777777777777777777777777777777777777@@7@7@@7777777777777777777 7 77 7777777777777777777777777777777777777777777777777",
"777777777777777777777777777777777777777777777777@777@777777777777777777777777777777777777777777777777777777777777777777777777777",
"77777777777777777777777777777777777777777777777777777777777777777777777777777777777777777777777777777777777777777777777777777777",
"77777777777777777777777777777 77777777777777777777777777777777777777777777777777777777777777777777777777777777777777777777777777",
"7777777777777777777777777 777  777 7777777777777777777777777777777777777777777777777777777<7,77777777777777777777777777777777777",
"77777777777777777777777777 777 77 7777777777777777777777777777777777777777777777737777777<7O777777777777777777777777777777777777",
"77777777777777777777777777  77 7  77777777777777777777777777777777777777777777777775<7777<.O77777777777777777777777777777@777@77",
"777777777777777777777777777 7 77 7777777777777777777777777777777777777777777777777777773;37777777777777777777777777777777@777@77",
"@@7777777777777777777777777 7 77 777777777777777777777777777777777777777777777777777<777<777777777777777 77777777777777777@@7@7@",
"@7777777777777777777777777777777777777777777777777777777777777777777777777777777777777+O<77777777777 777  777 7777777777777@777@",
"7777777777777777777777777777777777777777777777777777777777777777777777777777777777777777,7OO777777777 777 77 7777777777777777777",
"77777777777771777777777777777777777777777777777777 77777777777777777777777777777777777777777777777777  77 7  7777777777777777777",
"7777777777757777777777777777777777777777777777 777  777 777777777777777777@777@77777777777777777777777 7 77 77777777777777777777",
"77777777777572777777777777777777777777777777777 777 77 7777777777777777777@777@77@@7777777777777777777 7 77 77777777777777777777",
"77777777777577777777777777777777777777777777777  77 7  77777777777777777777@@7@7@@7777777777777777777777777777777777777777777777",
"7777777777&7777777777777777777777777777777777777 7 77 7777777777777777777777@777@77777777777777777777777777777777777777777777777",
"777777777777777777777777777777777777777777777777 7 77 77777777777777777777777777777777777777777777777777777777777777777777777777",
"77777777777777777777777777777777777777777777777777777777777777777777777777777777777777777777777777777777777777777777777777777777",
"7777777777777777777<777777777777777777777777777777777777777777777777777777777777777777777777777777777777777777777777777777777777",
"777777777&7777777757777777777777777777777777777777777777777777777777777777777777777777777777777777777777777777777777777777777777",
"77777777777&=<777777777777777777777777777777777777777777777777777777777777777777777777777777777777777777777777777777777777777777",
"77777777777735-XX77777777@777@77777777777777777777777777777777777777777777777777777777777777777777777777777777777777777777777777",
"77777777777O777.737777777@777@77@@7777777777777777777777777777777777777777777777777777777777777777777777777777777777777777777777",
"7777777777777OOo7777777777@@7@7@@77777777777777777777777777777777777777777777777777777777777777777777777777777777777777777777777",
"777777777777777,7OO77777777@777@7777777777777777777777777777777777777777777777777777777777777777777777777777777@777@777777777777",
"777777777777777777777777777777777777777777777777777777777777777777777777777777777777777777777777777777777777777@777@77@@77777777",
"7777777777777777777777777777777777777777777777777777777777777777777777777777777777777777777777777777777777777777@@7@7@@777777777",
"777777777777777777777777777777777777777777777777777777777777777777777777777777777777777777777 7777777777777777777@777@7777777777",
"77777777777777777777777777777777777777777777777777777777777777777777777777777777777777777 777  777:77777777777777777777777777777",
"777777777777777777777777777777777777777777777777777777777777777777777777777777777777777777 777 77 777777777777777777777777777777",
"77777777777777777777777777777777777777777777777777777775777777777 777777777777777777777777  77 7  777777777777777777777777777777",
"7777777777777777777777777777777777777777777777777777777777777 777  777 77777777777777777777 7 77 7777777777777777777777777777777",
"77777777777777777777777777777777777777777777777777777775775577 777 77 777777777777777777777 7 77 7777777777777777777777777777777",
"77777777777777777777777777777777777777777777777777777777757777  77 7  7777777777777777777777777777777777777777777777777777777777",
"77777777777777777777777777777777777777777777777777777777777*771 7 77 77777777777777777777777777777777777777777777777777777777777",
"777777777777777777777777777777777777777777777777777777777777777 7 77 77777777777777777777777777777777777777777777777777777777777",
"7777777777777777777777777777777777777777777777777777777777777=717777777777777777777777777777777777777777777777777777777777777777",
"7@777@777777777777777777777777777777777777777777777777777777#7=77777777777777777777777777777777777777777777777777777777777777777",
"7@777@77@@777777777777777777777777777777777777777777777777777#=77777777777777777777777777777777777777777777777777777777777777777",
"77@@7@7@@77777777777777777777777777777777777777777777777777777777777777777777777777777777777777777777777777777777777777777777777",
"777@777@777777777777777777777777777777777777777777777777777777777777777777777777777777777777777777777777777777777777777777777777",
"77777777777777777777777777777777777777777777777777777777777777777777777777777777777777777777777777777777777771777777777777777777",
"7777777777777777777777777777777777777777777777777777777777777777777777777777@777@77777777777777777777777777777777777777777777777",
"77777777777777777777777777777777@777@777777777777777777777777777777777777777@777@77@@7777777777777777777777&777#7777777777777777",
"77777777777777777777777777777777@777@77@@777777777777777777777777777777777777@@7@7@@7777777777777777777777777&&$777,7OO777777777",
"777777777777777777777777777777777@@7@7@@77777777777777777777777777777777777777@777@777777777777777777777777777717&&7777777777777",
"7777777777777777777777777777777777@777@77777777777777777777777777777777777777777777777777777777777777777777777777777777777777777",
"77777777777777777777777777777777777777777777777777777777777777777777777777777777777777777777777777777777777777777777777777777777",
"7777777777777777777777777777777777777777777777777777777777777777777777777777777777777777777777777777777777777777 777777777777777",
"777777777777777777777777777777777777777777777777777777777777777777777777777777777777777777777777777777777777 777  777 7777777777"
};
