/* XPM */
static char *result[] = {
/* columns rows colors chars-per-pixel */
"92 51 6 1",
"+ c None",
"  c #505050",
". c #6F6F6F",
"X c #848484",
"o c #9F9F9F",
"O c #484848",
/* pixels */
"++++++++++++++++++++++++++++++++++++++++++++++++++++++++++++++++++++++++++++++++++++++++++++",
"++++++++++++++++++++++++++++++++++++++++  ++++++++++++++++++++++++++++++++++++++++++++++++++",
"++++++++++++++++++++++++++++++++++++    oo  ++++++++++++++++++++++++++++++++++++++++++++++++",
"+++++++++++++++++++++++++++++++++   oooooooo   +++++++++++++++++++++++++++++++++++++++++++++",
"++++++++++++++++++++++++++++++   oooooooooooooo  +++++++++++++++++++++++++++++++++++++++++++",
"++++++++++++++++++++++++++++  ooooooooooooooooooo   ++++++++++++++++++++++++++++++++++++++++",
"+++++++++++++++++++++++++++ oooooooooooooooooooooooo  ++++++++++++++++++++++++++++++++++++++",
"++++++++++++++++++++++++++ Xoooooooooooooooooooooooooo  ++++++++++++++++++++++++++++++++++++",
"++++++++++++++++++++++++++ Xoooooooooooooooooooooooooooo +++++++++++++++++++++++++++++++++++",
"++++++++++++++++++++++++++ Xooooooooooooooooooooooooo... +++++++++++++++++++++++++++++++++++",
"+++++++++++++++++++++++++ XooXooooooooooooooooooo........ ++++++++++++++++++++++++++++++++++",
"+++++++++++++++++++++++++ XooXooooooooooooooo............. +++++++++++++++++++++++++++++++++",
"+++++++++++++++++++++++++ XoXooooooooooooo................ +++++++++++++++++++++++++++++++++",
"+++++++++++++++++++++++++ Xooooooooooooooo................. ++++++++++++++++++++++++++++++++",
"++++++++++++++++++++++++ XooooooooooooooooX................. +++++++++++++++++++++++++++++++",
"++++++++++++++++++++++++ XooooooooooooooooX.................. ++++++++++++++++++++++++++++++",
"++++++++++++++++++++++++ XooXoooooooooooooXX.................. +++++++++++++++++++++++++++++",
"++++++++++++++++++++++++ XooXXoooooXooooooXX.................. +++++++++++++++++++++++++++++",
"+++++++++++++++++++++    XXoXXXooooXXooooXXXX.................. ++++++++++++++++++++++++++++",
"+++++++++++++++++++  ooooooXXooooooooooooXXXX...................  ++++++++++++++++++++++++++",
"+++++++++++++++++  ooooooooooooooooooooooXXXXX.................ooo  ++++++++++++++++++++++++",
"++++++++++++++++ ooooooooooooooooooooooooXXXXX...............ooooooo  ++++++++++++++++++++++",
"+++++++++++++++ ooooooooooooooooooooooooXXXXXXX............ooooooooooo  ++++++++++++++++++++",
"++++++++++++++ oooooooooooooooooooooooooX..XXXX..........ooooooooooooooo  ++++++++++++++++++",
"+++++++++++++ oooooooooooooooooooooooooXXX.XXXX.........oooooooooooooooooo  ++++++++++++++++",
"++++++++++++ ooooooooooooooooooooooooooXXXXXXXXX......oooooooooooooooooooooo +++++++++++++++",
"+++++++++++ XooooooooooooooooooooooooooXXXXXXXXX....ooooooooooooooooooooooo. +++++++++++++++",
"+++++++++++ Xoooooooooooooooooooooooo...XXXXXXXX..ooooooooooooooooooooooo.... ++++++++++++++",
"+++++++++++ Xoooooooooooooooooooooo.....XXXXXXXXXoooooooooooooooooooooo...... ++++++++++++++",
"++++++++++ Xooooooooooooooooooooo........XXXXXXXoooooooooooooooooooooo........ +++++++++++++",
"++++++++++ XXXoooooooooooooooooXXX.......XX.XXXXoooooooooooooooooooo.......... +++++++++++++",
"+++++++++ XoXXXoooooooooooooXXXXXX........XXXXXoooooooooooooooooooo............ ++++++++++++",
"+++++++++ XoooooooooooooooXXXXXXXXX.......XXXXoooooooooooXooooooo............... +++++++++++",
"+++++++++ XooXoooooooooooXXXXXXXXXX.......XXXoooooooooooXooooooo................ +++++++++++",
"+++++++++ XoooXoooooooooXXXXXXXXXXX........XooooooXoooooXooooooo................. ++++++++++",
"+++++++++ XoooooooooooooXXXXXXXXXXX........oooooXXXoooooXooooooo.................. +++++++++",
"+++++++++ XoooooooooooooXXXXXXXXXXXX.......ooooXoXoooooooooooooo.................. +++++++++",
"+++++++++ XoooooXoooooooXXXXXXXXXXXX........XoXooooooooXoooooooX................... ++++++++",
"+++++++++ XoooooXooooooXXXXX.XXXXXXX........XXooooooooXXXoooooXX................... ++++++++",
"+++++++++ XoooooXXoooooXXXXXX.XXXXXXX.......ooooooooXXoooooooXXo.................... +++++++",
"+++++++++ XooooooXoooooXXXXXX.XXXXXXX......oooooooooXooooooooooo...................  +++++++",
"+++++++++ XooooooooooooXXXXXXX.XXXXXX.....ooooooooooXooooooooooo................   +++++++++",
"+++++++++ XoXooooooooooXXXXXXXXXXXXXX.....ooooooooooXXoooooooooo.............   ++++++++++++",
"+++++++++ XooXXooooooooXX.XXXXXXXXXXXX....oooooooooXXXooooXXoooo..........   +++++++++++++++",
"+++++++++ XooooXoooooooXX.XXXXX.XXXXXX....ooooooXXXXXXooooXXXooo.......   ++++++++++++++++++",
"+++++++++ XoooooooooooXXXXXXXXX...XXXX....XXooooXXXXXXXooooooooo....   +++++++++++++++++++++",
"+++++++++ XXXXooooooooXXXXXXXXX...XXXX....XoXoooXXXXXXXoooooooo..   ++++++++++++++++++++++++",
"+++++++++    XXXXoooooXXXXXXXXXX..XXXXX...ooooXooXXXXX           +++++++++++++++++++++++++++",
"++++++++++++      ooooXXXXXXXXXXXXXXXXX..  oooXXoXXX  ++++++++++++++++++++++++++++++++++++++",
"+++++++++++++++++                        ++         ++++++++++++++++++++++++++++++++++++++++",
"++++++++++++++++++++++++++++++++++++++++++++++++++++++++++++++++++++++++++++++++++++++++++++",
};
