/* XPM */

static char *fb582dc3ba114e57aaf320b59240101f[] = {
/* columns rows colors chars-per-pixel */
"96 96 11 1 "
"  c None",
". c black",
"X c #0C0E19",
"o c #21110D",
"O c #402717",
"+ c #573A23",
"@ c #AC7B5D",
"# c #1D438A",
"$ c #2C65B5",
"% c #787E97",
"& c #C1AC8F",
/* pixels */
"                                                                                                ",
"                                                                                                ",
"                                                                                                ",
"                                                                                                ",
"                                                                                                ",
"                                                                                                ",
"                                                                                                ",
"                                                                                                ",
"                                                                                                ",
"                                                                                                ",
"                                                                                                ",
"                                                                                                ",
"                                                                                                ",
"                                                                                                ",
"                                                                                                ",
"                                                                                                ",
"                                                                                                ",
"                                                                                                ",
"                                                                                                ",
"                                                                                                ",
"                                                                                                ",
"                                                                                                ",
"                                                                                                ",
"                                                                                                ",
"                                                                                                ",
"                                                                                                ",
"                                                                                                ",
"                                                                                                ",
"                                                                                                ",
"                                                                                                ",
"                                                                                                ",
"                                                                                                ",
"                                                                                                ",
"                                                                                                ",
"                                                                                                ",
"                                                                                                ",
"                                                                                                ",
"                                                                                                ",
"                                                                                                ",
"                                                                                                ",
"                                                                                                ",
"                                                                                                ",
"                                                                                                ",
"                                                                                                ",
"                                                                                                ",
"                                                                                                ",
"                                                                                                ",
"                                                                                                ",
"                                                                                                ",
"                                                                                                ",
"                                                                                                ",
"                                                                                                ",
"                                                                                                ",
"                                                                                                ",
"                                            ........  ....                                      ",
"                                            ........  ....                                      ",
"                                            ..++++OO..++......                                  ",
"                                            ..++++OO..++......                                  ",
"                                            ....++++OO++OO++++..                                ",
"                                            ....++++OO++OO++++..                                ",
"                                          ..OO++++++++++++++++++..                              ",
"                                          ..OO++++++++++++++++++..                              ",
"                                        ..OO++++++++++++++++++++++..                            ",
"                                        ..OO++++++++++++++++++++++..                            ",
"                                        ..OO++++OO++++++OOOO++++++..                            ",
"                                        ..OO++++OO++++++OOOO++++++..                            ",
"                                        ..OOOOOOOO++++++OO@@@@OO++OO..                          ",
"                                        ..OOOOOOOO++++++OO@@@@OO++OO..                          ",
"                                        ..OO++OOOO++++OO@@@@@@@@OOOO..                          ",
"                                        ..OO++OOOO++++OO@@@@@@@@OOOO..                          ",
"                                        ..OO++++@@OO++@@&&&&&&&&..OO..                          ",
"                                        ..OO++++@@OO++@@&&&&&&&&..OO..                          ",
"                                        ..OOOO++@@@@OO&&oo&&&&oo....                            ",
"                                        ..OOOO++@@@@OO&&oo&&&&oo....                            ",
"                                        ....OOOO@@@@@@&&&&&&&&@@..                              ",
"                                        ....OOOO@@@@@@&&&&&&&&@@..                              ",
"                                      ..OO++++OOOOOO%%%%%%OOOO....                              ",
"                                      ..OO++++OOOOOO%%%%%%OOOO....                              ",
"                                      ..++$$$$&&&&%%%%%%%%&&@@OO..                              ",
"                                      ..++$$$$&&&&%%%%%%%%&&@@OO..                              ",
"                                    XX..$$$$##&&&&%%%%%%@@@@@@OO..XX                            ",
"                                    XX..$$$$##&&&&%%%%%%@@@@@@OO..XX                            ",
"                                    XXXXXXXXXXXXXXXXXXXXXXXXXXXXXXXX                            ",
"                                    XXXXXXXXXXXXXXXXXXXXXXXXXXXXXXXX                            ",
"                                      XXXXXXXXXXXXXXXXXXXXXXXXXXXX                              ",
"                                      XXXXXXXXXXXXXXXXXXXXXXXXXXXX                              ",
"                                                                                                ",
"                                                                                                ",
"                                                                                                ",
"                                                                                                ",
"                                                                                                ",
"                                                                                                ",
"                                                                                                ",
"                                                                                                ",
"                                                                                                ",
"                                                                                                "
};
