/* XPM */
static char *result[] = {
/* columns rows colors chars-per-pixel */
"128 128 27 1 ",
"  c black",
". c #050403",
"X c #14121D",
"o c #0C112D",
"O c #1B1F21",
"+ c #14182E",
"@ c #3B2027",
"# c #3D2936",
"$ c #5B3138",
"% c #7D3833",
"& c #4F1D4C",
"* c #781D4F",
"= c #2F5753",
"- c #AB5130",
"; c #E64539",
": c #AD2F45",
"> c #8F4D57",
", c #8E5252",
"< c #BA756A",
"1 c #FF8933",
"2 c #F0B541",
"3 c #FFAE70",
"4 c #E9B5A3",
"5 c #A3A7C2",
"6 c #DFE0E8",
"7 c #F5FFE8",
"8 c None",
/* pixels */
"88888888888888888888888888888888888888888888888888888888888888888888888888888888888888888888888888888888888888888888888888888888",
"88888888888888888888888888888888888888888888888888888888888888888888888888888888888888888888888888888888888888888888888888888888",
"88888888888888888888888888888888888888888888888888888888888888888888888888888888888888888888888888888888888888888888888888888888",
"88888888888888888888888888888888888888888888888888888888888888888888888888888888888888888888888888888888888888888888888888888888",
"88888888888888888888888888888888888888888888888888888888888888888888888888888888888888888888888888888888888888888888888888888888",
"88888888888888888888888888888888888888888888888888888888888888888888888888888888888888888888888888888888888888888888888888888888",
"88888888888888888888888888888888888888888888888888888888888888888888888888888888888888888888888888888888888888888888888888888888",
"88888888888888888888888888888888888888888888888888888888888888888888888888888888888888888888888888888888888888888888888888888888",
"88888888888888888888888888888888888888888888888888888888888888888888888888888888888888888888888888888888888888888888888888888888",
"88888888888888888888888888888888888888888888888888888888888888888888888888888888888888888888888888888888888888888888888888888888",
"88888888888888888888888888888888888888888888888888888888888888888888888888888888888888888888888888888888888888888888888888888888",
"88888888888888888888888888888888888888888888888888888888888888888888888888888888888888888888888888888888888888888888888888888888",
"88888888888888888888888888888888888888888888888888888888888888888888888888888888888888888888888888888888888888888888888888888888",
"88888888888888888888888888888888888888888888888888888888888888888888888888888888888888888888888888888888888888888888888888888888",
"88888888888888888888888888888888888888888888888888888888888888888888888888888888888888888888888888888888888888888888888888888888",
"88888888888888888888888888888888888888888888888888888888888888888888888888888888888888888888888888888888888888888888888888888888",
"88888888888888888888888888888888888888888888888888888888888888888888888888888888888888888888888888888888888888888888888888888888",
"88888888888888888888888888888888888888888888888888888888888888888888888888888888888888888888888888888888888888888888888888888888",
"88888888888888888888888888888888888888888888888888888888888888888888888888888888888888888888888888888888888888888888888888888888",
"88888888888888888888888888888888888888888888888888888888888888888888888888888888888888888888888888888888888888888888888888888888",
"88888888888888888888888888888888888888888888888888888888888888888888888888888888888888888888888888888888888888888888888888888888",
"88888888888888888888888888888888888888888888888888888888888888888888888888888888888888888888888888888888888888888888888888888888",
"88888888888888888888888888888888888888888888888888888888888888888888888888888888888888888888888888888888888888888888888888888888",
"88888888888888888888888888888888888888888888888888888888888888888888888888888888888888888888888888888888888888888888888888888888",
"88888888888888888888888888888888888888888888888888888888888888888888888888888888888888888888888888888888888888888888888888888888",
"88888888888888888888888888888888888888888888888888888888888888888888888888888888888888888888888888888888888888888888888888888888",
"88888888888888888888888888888888888888888888888888888888888888888888888888888888888888888888888888888888888888888888888888888888",
"88888888888888888888888888888888888888888888888888888888888888888888888888888888888888888888888888888888888888888888888888888888",
"88888888888888888888888888888888888888888888888888888888888888888888888888888888888888888888888888888888888888888888888888888888",
"88888888888888888888888888888888888888888888888888888888888888888888888888888888888888888888888888888888888888888888888888888888",
"88888888888888888888888888888888888888888888888888888888888888888888888888888888888888888888888888888888888888888888888888888888",
"88888888888888888888888888888888888888888888888888888888888888888888888888888888888888888888888888888888888888888888888888888888",
"88888888888888888888888888888888888888888888888888888888888888888888888888888888888888888888888888888888888888888888888888888888",
"88888888888888888888888888888888888888888888888888888888888888888888888888888888888888888888888888888888888888888888888888888888",
"88888888888888888888888888888888888888888888888888888888888888888888888888888888888888888888888888888888888888888888888888888888",
"88888888888888888888888888888888888888888888888888888888888888888888888888888888888888888888888888888888888888888888888888888888",
"88888888888888888888888888888888888888888888888888888888888888888888888888888888888888888888888888888888888888888888888888888888",
"88888888888888888888888888888888888888888888888888888888888888888888888888888888888888888888888888888888888888888888888888888888",
"88888888888888888888888888888888888888888888888888888888888888888888888888888888888888888888888888888888888888888888888888888888",
"88888888888888888888888888888888888888888888888888888888888888888888888888888888888888888888888888888888888888888888888888888888",
"88888888888888888888888888888888888888888888888888888888888888888888888888888888888888888888888888888888888888888888888888888888",
"88888888888888888888888888888888888888888888888888888888888888888888888888888888888888888888888888888888888888888888888888888888",
"88888888888888888888888888888888888888888888888888888888888888888888888888888888888888888888888888888888888888888888888888888888",
"88888888888888888888888888888888888888888888888888888888888888888888888888888888888888888888888888888888888888888888888888888888",
"88888888888888888888888888888888888888888888888888888888888888888888888888888888888888888888888888888888888888888888888888888888",
"88888888888888888888888888888888888888888888888888888888888888888888888888888888888888888888888888888888888888888888888888888888",
"88888888888888888888888888888888888888888888888888888888888888888888888888888888888888888888888888888888888888888888888888888888",
"88888888888888888888888888888888888888888888888888888888888888888888888888888888888888888888888888888888888888888888888888888888",
"88888888888888888888888888888888888888888888888888888888888888888888888888888888888888888888888888888888888888888888888888888888",
"88888888888888888888888888888888888888888888888888888888888888888888888888888888888888888888888888888888888888888888888888888888",
"88888888888888888888888888888888888888888888888888888888888888888888888888888888888888888888888888888888888888888888888888888888",
"88888888888888888888888888888888888888888888888888888888888888888888888888888888888888888888888888888888888888888888888888888888",
"88888888888888888888888888888888888888888888888888888888888888888888888888888888888888888888888888888888888888888888888888888888",
"88888888888888888888888888888888888888888888888888888888888888888888888888888888888888888888888888888888888888888888888888888888",
"88888888888888888888888888888888888888888888888888888888888888888888888888888888888888888888888888888888888888888888888888888888",
"88888888888888888888888888888888888888888888888888888888888888888888888888888888888888888888888888888888888888888888888888888888",
"88888888888888888888888888888888888888888888888888888888888888888888888888888888888888888888888888888888888888888888888888888888",
"88888888888888888888888888888888888888888888888888888888888888888888888888888888888888888888888888888888888888888888888888888888",
"888888888888888888888888888888888888888888888      88888888888888888888888888888888888888888888888888888888888888888888888888888",
"88888888888888888888888888888888888888888888 777777 8888  8888888888888888888888888888888888888888888888888888888888888888888888",
"8888888888888888888888888888888888888888888 77777777 888 -  88888888888888888888888888888888888888888888888888888888888888888888",
"8888888888888888888888888888888888888888888 77777777.88 1-77  888888888888888888888888888888888888888888888888888888888888888888",
"888888888888888888888888888888888888888888 5777755551 8 1-75- 888888888888888888888888888888888888888888888888888888888888888888",
"888888888888888888888888888888888888888888 155551111   1-771- 888888888888888888888888888888888888888888888888888888888888888888",
"888888888888888888888888888888888888888888 11111    ::-77751 8888888888888888888888888888888888888888888888888888888888888888888",
"88888888888888888888888888888888888888888       ::::::77551- 8888888888888888888888888888888888888888888888888888888888888888888",
"8888888888888888888888888888888888888888 ;:::::::::::*%111- 88888888888888888888888888888888888888888888888888888888888888888888",
"8888888888888888888888888888888888888888 ;:::::::::**& --- 888888888888888888888888888888888888888888888888888888888888888888888",
"8888888888888888888888888888 8888888888 ;:::::::::*&  8   8888888888888888888888888888888888888888888888888888888888888888888888",
"88888888888888888888888888  # 888888888 ;:::::::**& $ 88888888888888888888888888888888888888888888888888888888888888888888888888",
"8888888888888888888888888 ## > 8888888 ;::::::***  <4 88888888888888888888888888888888888888888888888888888888888888888888888888",
"888888888888888888888888 # ># # 8888888 ***&**   ,<4 888888888888888888888888888888888888888888888888888888888888888888888888888",
"888888888888888888888888 ## #>     88888      + ,444 888888888888888888888888888888888888888888888888888888888888888888888888888",
"8888888888888888888888888 #> # ;;;;      +++ +++  ,4 888888888888888888888888888888888888888888888888888888888888888888888888888",
"888888888888888888888888 # ##  ;;;;;;;;;;      +++  8888888888888888888888888888888888888888888888888888888888888888888888888888",
"8888888888888888888888888 > # ;;:::::::::::**& +  888888888888888888888888888888888888888888888888888888888888888888888888888888",
"88888888888888888888888888 #  ;:::::::::::**&   1%   888888888888888888888888888888888888888888888888888888888888888888888888888",
"888888888888888888888888888  ;;::::::::::**& -11 1%57 88888888888888888888888888888888888888888888888888888888888888888888888888",
"8888888888888888888888888888 +o:::::::::**& -1-% 1%577 8888888888888888888888888888888888888888888888888888888888888888888888888",
"8888888888888888888888888888 +ooo::::::**& -11%@ 1%577 8888888888888888888888888888888888888888888888888888888888888888888888888",
"888888888888888888888888888 +ooooooooo**&& 11-%@ 1%5777 888888888888888888888888888888888888888888888888888888888888888888888888",
"888888888888888888888888888 +oooooooooooo 11-%@% 1%5777 888888888888888888888888888888888888888888888888888888888888888888888888",
"888888888888888888888888888 +oooooooooooo 1--%@% 1%57777 88888888888888888888888888888888888888888888888888888888888888888888888",
"88888888888888888888888888 +ooooooooooooo --% % 1%577777 88888888888888888888866688888888888888888888888888888888888888888888888",
"88888888888888888888888888 +oooooooooooo 1-% %@ 1%577777 88888888888888888866677688888888888888888888888888888888888888888888888",
"88888888888888888888888888 +oooooooooooo %% %@ 1%5777777 88888888888886666677766888888888888888888888888888888888888888888888888",
"88888888888888888888888888 ;oooooooooooo   %@ 1%55777777 88888866666667777766688888888888888888888888888888888888888888888888888",
"88888888888888888888888888 ;::ooooooooo % %   1%557777777 5555577777776666688888888888888888888888888888888888888888888888888888",
"888888888888888888888888888 ::::ooooooo    %% 1%557777777 6 66766666668888888888888888888888888888888888888888888888888888888888",
"8888888888888888888888888888  **::ooooo 8 o   1%557777777  + 5588888888888888888888888888888888888888888888888888888888888888888",
"888888888888888888888888888888  ****ooo 8 ooo 1%5577777    + 8888888888888888888888888888888888888888888888888888888888888888888",
"88888888888888888888888888888888  &***& 88 ooo 1%      77 ; 88888888888888888888888888888888888888888888888888888888888888888888",
"88888888888888888888888888888888 %  *&& 88       5577777 + 888888888888888888888888888888888888888888888888888888888888888888888",
"8888888888888888888888888888888 + 1@       ooo 1%55  77 +  888888888888888888888888888888888888888888888888888888888888888888888",
"88888888888888888888888888888888 ; @%%- 88 ooo 1%5 22  ;    88888888888888888888888888888888888888888888888888888888888888888888",
"88888888888888888888888888   8888 + 1@%- 8 oooo   11  + 333  8888888888888888888888888888888888888888888888888888888888888888888",
"88888888888888888888888888 OO  888 + 1@@-      == -  +     :; 888888888888888888888888888888888888888888888888888888888888888888",
"888888888888888888888888888  OO   8 ; 11@  88      ++ &*:::::; 88888888888888888888888888888888888888888888888888888888888888888",
"88888888888888888888888888888  OOO   +  1 -      ;;  &&**::::+ 88888888888888888888888888888888888888888888888888888888888888888",
"8888888888888888888888888888888   OOO ++ #X- ;;++  ; &****oooo+ 8888888888888888888888888888888888888888888888888888888888888888",
"8888888888888888888888888888888888       ##X-    oo; &*ooooooo+ 8888888888888888888888888888888888888888888888888888888888888888",
"8888888888888888888888888888888888888 1 1 ## oooooo+ oooooooooo+ 888888888888888888888888888888888888888888888888888888888888888",
"88888888888888888888888888888888888888      oooooooo+ ooooooooo+ 888888888888888888888888888888888888888888888888888888888888888",
"888888888888888888888888888888888888888 + oooooooooo+ oooooooooo+ 88888888888888888888888888888888888888888888888888888888888888",
"88888888888888888888888888888888888888 + ooooooooooo+ oooooooooo; 88888888888888888888888888888888888888888888888888888888888888",
"88888888888888888888888888888888888888 + ooooooooooo+ oooooooo:::; 8888888888888888888888888888888888888888888888888888888888888",
"88888888888888888888888888888888888888 + ooooooooooo+ ooooo::::::  8888888888888888888888888888888888888888888888888888888888888",
"8888888888888888888888888888888888888 ;: oo***:::::o+ o*******   %% 888888888888888888888888888888888888888888888888888888888888",
"8888888888888888888888888888888888888 ;: &******::::; &&&**   @@@%% 888888888888888888888888888888888888888888888888888888888888",
"8888888888888888888888888888888888888 ;  &&&     :::; &    @@@%%%%-- 88888888888888888888888888888888888888888888888888888888888",
"8888888888888888888888888888888888888  -%   %%%%%  :;  @@@@@@@%%%%-- 88888888888888888888888888888888888888888888888888888888888",
"8888888888888888888888888888888888888 1111-%%%%%%%%    @@%%--@@%%%--- 8888888888888888888888888888888888888888888888888888888888",
"8888888888888888888888888888888888888 11111-----%%-%% @@%%-----@%%--- 8888888888888888888888888888888888888888888888888888888888",
"88888888888888888888888888888888888888  111-11%%--11  @@%%-----@%---- 8888888888888888888888888888888888888888888888888888888888",
"8888888888888888888888888888888888888 22 1111--111  88 @@@%----%%---- 8888888888888888888888888888888888888888888888888888888888",
"8888888888888888888888888888888888888 ++2 11--1   88888  @   ------  88888888888888888888888888888888888888888888888888888888888",
"8888888888888888888888888888888888888 +++2 --  8888888888 222  --  8888888888888888888888888888888888888888888888888888888888888",
"888888888888888888888888888888888888 +++++2  888888888888 +++22  888888888888888888888888888888888888888888888888888888888888888",
"888888888888888888888888888888888888 +++++ 8888888888888 +++++ 88888888888888888888888888888888888888888888888888888888888888888",
"88888888888888888888888888888888888 +++++ 88888888888888 ++++ 888888888888888888888888888888888888888888888888888888888888888888",
"88888888888888888888888888888888888 ++++ 888888888888888 +++ 8888888888888888888888888888888888888888888888888888888888888888888",
"8888888888888888888888888888888888 ++++ 8888888888888888 ++ 88888888888888888888888888888888888888888888888888888888888888888888",
"8888888888888888888888888888888888 +++ 8888888888888888 +++ 88888888888888888888888888888888888888888888888888888888888888888888",
"8888888888888888888888888888888888 ++ 88888888888888888 ++ 888888888888888888888888888888888888888888888888888888888888888888888",
"888888888888888888888888888888888 2   88888888888888888    888888888888888888888888888888888888888888888888888888888888888888888",
"888888888888888888888888888888888  22 88888888888888888 22 888888888888888888888888888888888888888888888888888888888888888888888",
"88888888888888888888888888888888 OO   8888888888888888 O  O  8888888888888888888888888888888888888888888888888888888888888888888",
"88888888888888888888888888888888 O OOO 888888888888888 OOOOOO   8888888888888888888888888888888888888888888888888888888888888888"
};
