/* XPM */
static char *result[] = {
/* columns rows colors chars-per-pixel */
"128 128 29 1 ",
"  c black",
". c #050403",
"X c #14121D",
"o c #0C112D",
"O c #1B1F21",
"+ c #14182E",
"@ c #3B2027",
"# c #3D2936",
"$ c #5B3138",
"% c #7D3833",
"& c #4F1D4C",
"* c #781D4F",
"= c #2F5753",
"- c #AB5130",
"; c #E64539",
": c #CF752B",
"> c #AD2F45",
", c #8F4D57",
"< c #8E5252",
"1 c #BA756A",
"2 c #FF8933",
"3 c #F0B541",
"4 c #FFAE70",
"5 c #686F99",
"6 c #E9B5A3",
"7 c #A3A7C2",
"8 c #DFE0E8",
"9 c #F5FFE8",
"0 c None",
/* pixels */
"00000000000000000000000000000000000000000000000000000000000000000000000000000000000000000000000000000000000000000000000000000000",
"00000000000000000000000000000000000000000000000000000000000000000000000000000000000000000000000000000000000000000000000000000000",
"00000000000000000000000000000000000000000000000000000000000000000000000000000000000000000000000000000000000000000000000000000000",
"00000000000000000000000000000000000000000000000000000000000000000000000000000000000000000000000000000000000000000000000000000000",
"00000000000000000000000000000000000000000000000000000000000000000000000000000000000000000000000000000000000000000000000000000000",
"00000000000000000000000000000000000000000000000000000000000000000000000000000000000000000000000000000000000000000000000000000000",
"00000000000000000000000000000000000000000000000000000000000000000000000000000000000000000000000000000000000000000000000000000000",
"00000000000000000000000000000000000000000000000000000000000000000000000000000000000000000000000000000000000000000000000000000000",
"00000000000000000000000000000000000000000000000000000000000000000000000000000000000000000000000000000000000000000000000000000000",
"00000000000000000000000000000000000000000000000000000000000000000000000000000000000000000000000000000000000000000000000000000000",
"00000000000000000000000000000000000000000000000000000000000000000000000000000000000000000000000000000000000000000000000000000000",
"00000000000000000000000000000000000000000000000000000000000000000000000000000000000000000000000000000000000000000000000000000000",
"00000000000000000000000000000000000000000000000000000000000000000000000000000000000000000000000000000000000000000000000000000000",
"00000000000000000000000000000000000000000000000000000000000000000000000000000000000000000000000000000000000000000000000000000000",
"00000000000000000000000000000000000000000000000000000000000000000000000000000000000000000000000000000000000000000000000000000000",
"00000000000000000000000000000000000000000000000000000000000000000000000000000000000000000000000000000000000000000000000000000000",
"00000000000000000000000000000000000000000000000000000000000000000000000000000000000000000000000000000000000000000000000000000000",
"00000000000000000000000000000000000000000000000000000000000000000000000000000000000000000000000000000000000000000000000000000000",
"00000000000000000000000000000000000000000000000000000000000000000000000000000000000000000000000000000000000000000000000000000000",
"00000000000000000000000000000000000000000000000000000000000000000000000000000000000000000000000000000000000000000000000000000000",
"00000000000000000000000000000000000000000000000000000000000000000000000000000000000000000000000000000000000000000000000000000000",
"00000000000000000000000000000000000000000000000000000000000000000000000000000000000000000000000000000000000000000000000000000000",
"00000000000000000000000000000000000000000000000000000000000000000000000000000000000000000000000000000000000000000000000000000000",
"00000000000000000000000000000000000000000000000000000000000000000000000000000000000000000000000000000000000000000000000000000000",
"00000000000000000000000000000000000000000000000000000000000000000000000000000000000000000000000000000000000000000000000000000000",
"00000000000000000000000000000000000000000000000000000000000000000000000000000000000000000000000000000000000000000000000000000000",
"00000000000000000000000000000000000000000000000000000000000000000000000000000000000000000000000000000000000000000000000000000000",
"00000000000000000000000000000000000000000000000000000000000000000000000000000000000000000000000000000000000000000000000000000000",
"00000000000000000000000000000000000000000000000000000000000000000000000000000000000000000000000000000000000000000000000000000000",
"00000000000000000000000000000000000000000000000000000000000000000000000000000000000000000000000000000000000000000000000000000000",
"00000000000000000000000000000000000000000000000000000000000000000000000000000000000000000000000000000000000000000000000000000000",
"00000000000000000000000000000000000000000000000000000000000000000000000000000000000000000000000000000000000000000000000000000000",
"00000000000000000000000000000000000000000000000000000000000000000000000000000000000000000000000000000000000000000000000000000000",
"00000000000000000000000000000000000000000000000000000000000000000000000000000000000000000000000000000000000000000000000000000000",
"00000000000000000000000000000000000000000000000000000000000000000000000000000000000000000000000000000000000000000000000000000000",
"00000000000000000000000000000000000000000000000000000000000000000000000000000000000000000000000000000000000000000000000000000000",
"00000000000000000000000000000000000000000000000000000000000000000000000000000000000000000000000000000000000000000000000000000000",
"00000000000000000000000000000000000000000000000000000000000000000000000000000000000000000000000000000000000000000000000000000000",
"00000000000000000000000000000000000000000000000000000000000000000000000000000000000000000000000000000000000000000000000000000000",
"00000000000000000000000000000000000000000000000000000000000000000000000000000000000000000000000000000000000000000000000000000000",
"00000000000000000000000000000000000000000000000000000000000000000000000000000000000000000000000000000000000000000000000000000000",
"00000000000000000000000000000000000000000000000000000000000000000000000000000000000000000000000000000000000000000000000000000000",
"00000000000000000000000000000000000000000000000000000000000000000000000000000000000000000000000000000000000000000000000000000000",
"00000000000000000000000000000000000000000000000000000000000000000000000000000000000000000000000000000000000000000000000000000000",
"00000000000000000000000000000000000000000000000000000000000000000000000000000000000000000000000000000000000000000000000000000000",
"00000000000000000000000000000000000000000000000000000000000000000000000000000000000000000000000000000000000000000000000000000000",
"00000000000000000000000000000000000000000000000000000000000000000000000000000000000000000000000000000000000000000000000000000000",
"00000000000000000000000000000000000000000000000000000000000000000000000000000000000000000000000000000000000000000000000000000000",
"00000000000000000000000000000000000000000000000000000000000000000000000000000000000000000000000000000000000000000000000000000000",
"00000000000000000000000000000000000000000000000000000000000000000000000000000000000000000000000000000000000000000000000000000000",
"00000000000000000000000000000000000000000000000000000000000000000000000000000000000000000000000000000000000000000000000000000000",
"00000000000000000000000000000000000000000000000000000000000000000000000000000000000000000000000000000000000000000000000000000000",
"00000000000000000000000000000000000000000000000000000000000000000000000000000000000000000000000000000000000000000000000000000000",
"00000000000000000000000000000000000000000000000000000000000000000000000000000000000000000000000000000000000000000000000000000000",
"00000000000000000000000000000000000000000000000000000000000000000000000000000000000000000000000000000000000000000000000000000000",
"00000000000000000000000000000000000000000000000000000000000000000000000000000000000000000000000000000000000000000000000000000000",
"00000000000000000000000000000000000000000000000000000000000000000000000000000000000000000000000000000000000000000000000000000000",
"000000000000000000000000000000000000000000      00000000000000000000000000000000000000000000000000000000000000000000000000000000",
"00000000000000000000000000000000000000000 999999 0000  0000000000000000000000000000000000000000000000000000000000000000000000000",
"0000000000000000000000000000000000000000 99999999 000 -  00000000000000000000000000000000000000000000000000000000000000000000000",
"0000000000000000000000000000000000000000 99999999.00 2-99  000000000000000000000000000000000000000000000000000000000000000000000",
"000000000000000000000000000000000000000 7999977772 0 2-97- 000000000000000000000000000000000000000000000000000000000000000000000",
"000000000000000000000000000000000000000 277772222   2-992- 000000000000000000000000000000000000000000000000000000000000000000000",
"000000000000000000000000000000000000000 22222    >>-99972 0000000000000000000000000000000000000000000000000000000000000000000000",
"00000000000000000000000000000000000000       >>>>>>99772- 0000000000000000000000000000000000000000000000000000000000000000000000",
"0000000000000000000000000000000000000 ;>>>>>>>>>>>*%222- 00000000000000000000000000000000000000000000000000000000000000000000000",
"00000000000000000000000000 0000000000 ;>>>>>>>>>**& --- 000000000000000000000000000000000000000000000000000000000000000000000000",
"000000000000000000000000  # 00000000 ;>>>>>>>>>*&  0   0000000000000000000000000000000000000000000000000000000000000000000000000",
"00000000000000000000000 ## , 0000000 ;>>>>>>>**& $ 00000000000000000000000000000000000000000000000000000000000000000000000000000",
"0000000000000000000000 # ,#     000 ;>>>>>>***  16 00000000000000000000000000000000000000000000000000000000000000000000000000000",
"0000000000000000000000 ## # ;;;;     ***&**   <16 000000000000000000000000000000000000000000000000000000000000000000000000000000",
"00000000000000000000000 #, ;;;;;;;;;;      + <666 000000000000000000000000000000000000000000000000000000000000000000000000000000",
"0000000000000000000000 # # ;;>>>>>>>>>>>>;  +  <6 000000000000000000000000000000000000000000000000000000000000000000000000000000",
"00000000000000000000000 , ;;>>>>>>>>>>>>>; % ++  0000000000000000000000000000000000000000000000000000000000000000000000000000000",
"000000000000000000000000  +>>>>>>>>>>>>>*  2%   00000000000000000000000000000000000000000000000000000000000000000000000000000000",
"000000000000000000000000 +ooo>>>>>>>>>>* 22 2%79 0000000000000000000000000000000000000000000000000000000000000000000000000000000",
"000000000000000000000000 +oooooo>>>>>>*& 22 2%799 000000000000000000000000000000000000000000000000000000000000000000000000000000",
"000000000000000000000000 +oooooooo>>>*&&2%2 2%799 000000000000000000000000000000000000000000000000000000000000000000000000000000",
"00000000000000000000000 +oooooooooooo*& -2% 2%7999 00000000000000000000000000000000000000000000000000000000000000000000000000000",
"00000000000000000000000 +ooooooooooooo --2% 2%7999 00000000000000000000000000000000000000000000000000000000000000000000000000000",
"00000000000000000000000 +ooooooooooooo -@2% 2%7999 00000000000000000000000000000000000000000000000000000000000000000000000000000",
"0000000000000000000000 +ooooooooooooo -@%@ 2%799999 0000000000000000000000000000000000000000000000000000000000000000000000000000",
"0000000000000000000000 +ooooooooooooo @%%@ 2%799999 0000000000000000000000000000000000000000000000000000000000000000000000000000",
"0000000000000000000000 ;>ooooooooooo @%%@ 2%7799999 0000000000000000000000000000000000000000000000000000000000000000000000000000",
"0000000000000000000000 ;>>oooooooooo   @ 2%77999999 0000000000000000000000000000000000000000008880000000000000000000000000000000",
"0000000000000000000000 ;>>>>>ooooooo 22  2%77999999  000000000000000000000000000000000000008889980000000000000000000000000000000",
"00000000000000000000000  >>>>>>*oooo   % 2%7999999  2 00000000000000000000000000000000888889998800000000000000000000000000000000",
"0000000000000000000000000  ******&& ooo  2%799999 + 22 000000 000000000000000008888888999998880000000000000000000000000000000000",
"000000000000000000000000000  ****&& oooo 2%799    + -22 0000 3 00000000777777779999999888880000000000000000000000000000000000000",
"0000000000000000000000000000   ***&& ooo      99 +  @--2     2 55555555888888898888888000000000000000000000000000000000000000000",
"0000000000000000000000000 00 2-  **&    2%77799 + 9  %@ 1166 2 77777778777777770000000000000000000000000000000000000000000000000",
"000000000000000000000000 +  0 2-%    oo 2%7777 + 99    6<$<1< 2 5555555000000000000000000000000000000000000000000000000000000000",
"000000000000000000000000 + 00 2-@ 0 ooo 2%777 + 999 444 6<$16 - 0000000000000000000000000000000000000000000000000000000000000000",
"0000000000000000000000000 + 0 2-@ 0     2%77 + 7779      61   - 0000000000000000000000000000000000000000000000000000000000000000",
"00000000000000000000000  0 + 0 - 6  ====    +       00000  000 00000000000000000000000000000000000000000000000000000000000000000",
"00000000000000000000000 O   +  X-         ++ ======= 000000000000000000000000000000000000000000000000000000000000000000000000000",
"000000000000000000000000 OO  + # - 6    ++             0000000000000000000000000000000000000000000000000000000000000000000000000",
"0000000000000000000000000  OO   X   ++++  444444 >; >;;  00000000000000000000000000000000000000000000000000000000000000000000000",
"000000000000000000000000000   2 # OO    2       >>>; >o++  000000000000000000000000000000000000000000000000000000000000000000000",
"000000000000000000000000000 :   #X   *& %% & &**>>>o+ ooo++  0000000000000000000000000000000000000000000000000000000000000000000",
"0000000000000000000000000000  22 #X6 >>*  && &***oooo+ oooo++  00000000000000000000000000000000000000000000000000000000000000000",
"000000000000000000000000000000  o   >>>>>>*& &*oooooo+ oooooo;; 0000000000000000000000000000000000000000000000000000000000000000",
"000000000000000000000000000000 +ooooooooooooo oooooooo+ oo>>>>>; 000000000000000000000000000000000000000000000000000000000000000",
"000000000000000000000000000000 +ooooooooooooo oooooooo+ &*****   000000000000000000000000000000000000000000000000000000000000000",
"000000000000000000000000000000 +ooooooooooooo oooooooo>; &&   -- 000000000000000000000000000000000000000000000000000000000000000",
"000000000000000000000000000000 +ooooooooooooo oooooo>>>>;  %%--- 000000000000000000000000000000000000000000000000000000000000000",
"00000000000000000000000000000 +oooooooooooooo oooo>>>**  %%@%---- 00000000000000000000000000000000000000000000000000000000000000",
"00000000000000000000000000000 +oooooooooooooo ooo>**&  @%---@---- 00000000000000000000000000000000000000000000000000000000000000",
"00000000000000000000000000000 ;>oooooooooooooo o**&  @@%-----@--- 00000000000000000000000000000000000000000000000000000000000000",
"00000000000000000000000000000 ;>>>>>>oooooooo& &*& @@@%@-----@-- 000000000000000000000000000000000000000000000000000000000000000",
"000000000000000000000000000000  *************& && 0 @@%@@---  - 0000000000000000000000000000000000000000000000000000000000000000",
"00000000000000000000000000000 2%     *&&&&&&& 0  000  @%%   33 00000000000000000000000000000000000000000000000000000000000000000",
"00000000000000000000000000000 22---%%        000000000   333+ 000000000000000000000000000000000000000000000000000000000000000000",
"00000000000000000000000000000 22222-----%%%% 0000000000 ++++ 0000000000000000000000000000000000000000000000000000000000000000000",
"000000000000000000000000000000  2222222-%%  00000000000 +++ 00000000000000000000000000000000000000000000000000000000000000000000",
"00000000000000000000000000000000  2222-%  000000000000 ++++ 00000000000000000000000000000000000000000000000000000000000000000000",
"00000000000000000000000000000000 3   %  00000000000000 +++ 000000000000000000000000000000000000000000000000000000000000000000000",
"00000000000000000000000000000000 +333 0000000000000000 +++ 000000000000000000000000000000000000000000000000000000000000000000000",
"00000000000000000000000000000000 ++++ 0000000000000000 ++ 0000000000000000000000000000000000000000000000000000000000000000000000",
"00000000000000000000000000000000 +++ 00000000000000000    0000000000000000000000000000000000000000000000000000000000000000000000",
"0000000000000000000000000000000 +++ 000000000000000000 33 0000000000000000000000000000000000000000000000000000000000000000000000",
"0000000000000000000000000000000 +++ 00000000000000000 O  O 000000000000000000000000000000000000000000000000000000000000000000000",
"0000000000000000000000000000000 ++ 000000000000000000 OOOOO 00000000000000000000000000000000000000000000000000000000000000000000",
"0000000000000000000000000000000    000000000000000000 OOOOOO 0000000000000000000000000000000000000000000000000000000000000000000",
"0000000000000000000000000000000 33 000000000000000000 OOOOOOO  00000000000000000000000000000000000000000000000000000000000000000",
"0000000000000000000000000000000    000000000000000000     OOOOO 0000000000000000000000000000000000000000000000000000000000000000",
"0000000000000000000000000000000 OO@  000000000000000000000      0000000000000000000000000000000000000000000000000000000000000000",
"0000000000000000000000000000000 OOO@@   0000000000000000000000000000000000000000000000000000000000000000000000000000000000000000"
};
