/* XPM */
static char *result[] = {
/* columns rows colors chars-per-pixel */
"128 128 29 1 ",
"  c black",
". c #050403",
"X c #14121D",
"o c #2D1B1E",
"O c #0C112D",
"+ c #1B1F21",
"@ c #14182E",
"# c #3B2027",
"$ c #3D2936",
"% c #5B3138",
"& c #7D3833",
"* c #4F1D4C",
"= c #781D4F",
"- c #2F5753",
"; c #AB5130",
": c #E64539",
"> c #CF752B",
", c #AD2F45",
"< c #8F4D57",
"1 c #8E5252",
"2 c #BA756A",
"3 c #FF8933",
"4 c #F0B541",
"5 c #686F99",
"6 c #E9B5A3",
"7 c #A3A7C2",
"8 c #DFE0E8",
"9 c #F5FFE8",
"0 c None",
/* pixels */
"00000000000000000000000000000000000000000000000000000000000000000000000000000000000000000000000000000000000000000000000000000000",
"00000000000000000000000000000000000000000000000000000000000000000000000000000000000000000000000000000000000000000000000000000000",
"00000000000000000000000000000000000000000000000000000000000000000000000000000000000000000000000000000000000000000000000000000000",
"00000000000000000000000000000000000000000000000000000000000000000000000000000000000000000000000000000000000000000000000000000000",
"00000000000000000000000000000000000000000000000000000000000000000000000000000000000000000000000000000000000000000000000000000000",
"00000000000000000000000000000000000000000000000000000000000000000000000000000000000000000000000000000000000000000000000000000000",
"00000000000000000000000000000000000000000000000000000000000000000000000000000000000000000000000000000000000000000000000000000000",
"00000000000000000000000000000000000000000000000000000000000000000000000000000000000000000000000000000000000000000000000000000000",
"00000000000000000000000000000000000000000000000000000000000000000000000000000000000000000000000000000000000000000000000000000000",
"00000000000000000000000000000000000000000000000000000000000000000000000000000000000000000000000000000000000000000000000000000000",
"00000000000000000000000000000000000000000000000000000000000000000000000000000000000000000000000000000000000000000000000000000000",
"00000000000000000000000000000000000000000000000000000000000000000000000000000000000000000000000000000000000000000000000000000000",
"00000000000000000000000000000000000000000000000000000000000000000000000000000000000000000000000000000000000000000000000000000000",
"00000000000000000000000000000000000000000000000000000000000000000000000000000000000000000000000000000000000000000000000000000000",
"00000000000000000000000000000000000000000000000000000000000000000000000000000000000000000000000000000000000000000000000000000000",
"00000000000000000000000000000000000000000000000000000000000000000000000000000000000000000000000000000000000000000000000000000000",
"00000000000000000000000000000000000000000000000000000000000000000000000000000000000000000000000000000000000000000000000000000000",
"00000000000000000000000000000000000000000000000000000000000000000000000000000000000000000000000000000000000000000000000000000000",
"00000000000000000000000000000000000000000000000000000000000000000000000000000000000000000000000000000000000000000000000000000000",
"00000000000000000000000000000000000000000000000000000000000000000000000000000000000000000000000000000000000000000000000000000000",
"00000000000000000000000000000000000000000000000000000000000000000000000000000000000000000000000000000000000000000000000000000000",
"00000000000000000000000000000000000000000000000000000000000000000000000000000000000000000000000000000000000000000000000000000000",
"00000000000000000000000000000000000000000000000000000000000000000000000000000000000000000000000000000000000000000000000000000000",
"00000000000000000000000000000000000000000000000000000000000000000000000000000000000000000000000000000000000000000000000000000000",
"00000000000000000000000000000000000000000000000000000000000000000000000000000000000000000000000000000000000000000000000000000000",
"00000000000000000000000000000000000000000000000000000000000000000000000000000000000000000000000000000000000000000000000000000000",
"00000000000000000000000000000000000000000000000000000000000000000000000000000000000000000000000000000000000000000000000000000000",
"00000000000000000000000000000000000000000000000000000000000000000000000000000000000000000000000000000000000000000000000000000000",
"00000000000000000000000000000000000000000000000000000000000000000000000000000000000000000000000000000000000000000000000000000000",
"00000000000000000000000000000000000000000000000000000000000000000000000000000000000000000000000000000000000000000000000000000000",
"00000000000000000000000000000000000000000000000000000000000000000000000000000000000000000000000000000000000000000000000000000000",
"00000000000000000000000000000000000000000000000000000000000000000000000000000000000000000000000000000000000000000000000000000000",
"00000000000000000000000000000000000000000000000000000000000000000000000000000000000000000000000000000000000000000000000000000000",
"00000000000000000000000000000000000000000000000000000000000000000000000000000000000000000000000000000000000000000000000000000000",
"00000000000000000000000000000000000000000000000000000000000000000000000000000000000000000000000000000000000000000000000000000000",
"00000000000000000000000000000000000000000000000000000000000000000000000000000000000000000000000000000000000000000000000000000000",
"00000000000000000000000000000000000000000000000000000000000000000000000000000000000000000000000000000000000000000000000000000000",
"00000000000000000000000000000000000000000000000000000000000000000000000000000000000000000000000000000000000000000000000000000000",
"00000000000000000000000000000000000000000000000000000000000000000000000000000000000000000000000000000000000000000000000000000000",
"00000000000000000000000000000000000000000000000000000000000000000000000000000000000000000000000000000000000000000000000000000000",
"00000000000000000000000000000000000000000000000000000000000000000000000000000000000000000000000000000000000000000000000000000000",
"00000000000000000000000000000000000000000000000000000000000000000000000000000000000000000000000000000000000000000000000000000000",
"00000000000000000000000000000000000000000000000000000000000000000000000000000000000000000000000000000000000000000000000000000000",
"00000000000000000000000000000000000000000000000000000000000000000000000000000000000000000000000000000000000000000000000000000000",
"00000000000000000000000000000000000000000000000000000000000000000000000000000000000000000000000000000000000000000000000000000000",
"00000000000000000000000000000000000000000000000000000000000000000000000000000000000000000000000000000000000000000000000000000000",
"00000000000000000000000000000000000000000000000000000000000000000000000000000000000000000000000000000000000000000000000000000000",
"00000000000000000000000000000000000000000000000000000000000000000000000000000000000000000000000000000000000000000000000000000000",
"00000000000000000000000000000000000000000000000000000000000000000000000000000000000000000000000000000000000000000000000000000000",
"00000000000000000000000000000000000000000000000000000000000000000000000000000000000000000000000000000000000000000000000000000000",
"00000000000000000000000000000000000000000000000000000000000000000000000000000000000000000000000000000000000000000000000000000000",
"00000000000000000000000000000000000000000000000000000000000000000000000000000000000000000000000000000000000000000000000000000000",
"00000000000000000000000000000000000000000000000000000000000000000000000000000000000000000000000000000000000000000000000000000000",
"00000000000000000000000000000000000000000000000000000000000000000000000000000000000000000000000000000000000000000000000000000000",
"00000000000000000000000000000000000000000000000000000000000000000000000000000000000000000000000000000000000000000000000000000000",
"00000000000000000000000000000000000000000000000000000000000000000000000000000000000000000000000000000000000000000000000000000000",
"00000000000000000000000000000000000000000000000000000000000000000000000000000000000000000000000000000000000000000000000000000000",
"00000000000000000000000000000000000000000000000000000000000000000000000000000000000000000000000000000000000000000000000000000000",
"00000000000000000000000000000000000000000000000000000000000000000000000000000000000000000000000000000000000000000000000000000000",
"00000000000000000000000000000000000000000000000000000000000000000000000000000000000000000000000000000000000000000000000000000000",
"00000000000000000000000000000000000000000000000000000000000000000000000000000000000000000000000000000000000000000000000000000000",
"00000000000000000000000000000000000000000000000000000000000000000000000000000000000000000000000000000000000000000000000000000000",
"00000000000000000000000000000000000000000000000000000000000000000000000000000000000000000000000000000000000000000000000000000000",
"00000000000000000000000000000000000000000000000000000000000000000000000000000000000000000000000000000000000000000000000000000000",
"00000000000000000000000000000000000000000000000000000000000000000000000000000000000000000000000000000000000000000000000000000000",
"0000000000000000000000000000000000000000000000000000000000  000  000000000000000000000000000000000000000000000000000000000000000",
"00000000000000000000000000000000000000000000000000000000  ;;   ;9 00000000000000000000000000000000000000000000000000000000000000",
"000000000000000000000000000000000000000000000000000000  9993 99 ;9 0000000000000000000000000000000000000000000000000000000000000",
"0000000000000000000000000000000000000000000000000000  999999; 9 ;99 000000000000000000000000000000000000000000000000000000000000",
"00000000000000000000000000000000000000000000000000  ;9999997; 99 993 00000000000000000000000000000000000000000000000000000000000",
"0000000000000000000000000000000000000000000000000 ;;3;999997 999 999; 0000000000000000000000000000000000000000000000000000000000",
"0000000000000000000000000000000000000 000000000000  ;3;9997 7999 799; 0000000000000000000000000000000000000000000000000000000000",
"00000000000000000000000000000000000  $ 0000000000000 ;3;97 337999 73; 0000000000000000000000000000000000000000000000000000000000",
"0000000000000000000000000000000000 $$ < 00000000000  ;3;7    3333 3; 00000000000000000000000000000000000000000000000000000000000",
"000000000000000000000000000000000 $ <$ $ 000000000 , ;3  %%1%    @ ; 00000000000000000000000000000000000000000000000000000000000",
"000000000000000000000000000000000 $$ $< < 0000000 , @  o %12212 @@@ 000000000000000000000000000000000000000000000000000000000000",
"0000000000000000000000000000000000 $< $$ $ 0000     @@.o 166626 @@@    000000000000000000000000000000000000000000000000000000000",
"000000000000000000000000000000000 $ $$ $<  000  :,== @@ X 2626 @@@@ :::    00000000000000000000000000000000000000000000000000000",
"0000000000000000000000000000000000 < $< $ &   :,=     @.X 1266 @@@ =,,,::::   00000000000000000000000000000000000000000000000000",
"00000000000000000000000000000000000 $ $$ &  :,=  &&& &  XX  26 @@ *==,,,,,,::: 0000000000000000000000000000000000000000000000000",
"000000000000000000000000000000000000 <    OOO  &&>>>> &7 XXX  X  ****==,,,,,,, 0000000000000000000000000000000000000000000000000",
"0000000000000000000000000000000000000 $ @OO   &>>>>&& 3&7 XXXX 99   **====,,, 000000000000000000000000  00000000 000000000000000",
"00000000000000000000000000000000000000 @O  &&>>>>&&&; 3&77    799 >>    *===, 00000000000000000000000000   000000  0000000000000",
"0000000000000000000000000000000000000 @  &&>>>;&&#### 3&797799999 ;;>>>>    = 00000000000000000000000000000  000000  00000000000",
"000000000000000000000000000000000000 @ #&>>>&&&###;&& 3&799999999 #;;;;;>>>>   000000000000000000000000000000   00000  000000000",
"00000000000000000000000000000000000 @  >&>;&&##;;;&# 3&7999999999 &####;;;;;>>>   00000000 000000000000000000000  00000  0000000",
"0000000000000000000000000000000000 @ 0 >& &##   &## 3&79999999999 &&&&&######;;;>>        4 00000000000000000000000000000  00000",
"0000000000000000000000000000000000 O 00 &;   & 3    3&79999999999 &      &&&&####;;.$X; 6 3 5555577777788888888800000000000 0000",
"000000000000000000000000000000000 , 000 >&#;    33& 3&79999999999  OOOOOO       &##; ; 16 3 778888888899999999998888888800000000",
"000000000000000000000000000000000 , 000 >;#; 0 O  3 &779999999999 OOOOOOOOO 0000      221 & 555557777778888888889999999988888000",
"00000000000000000000000000000000 : 00000 >&# 0 OOO 3&79999999999 OOOOOOOOOO 0000000000    & 000000000000000000008888888899999800",
"0000000000000000000000000000 0000 000000 >;#; OOOO 3&79999999999 *OOOOOOOOO 00000000000000 0000000000000000000000000000088888000",
"000000000000000000000000000 @ ........... >## OOOO 3&79999999999 =====OOOO 00000000000000000000000000000000000000000000000000000",
"0000000000000000000000000000 @ 0000000000 >&#............................= 000000000000000 0000000000000000000000000000000000000",
"00000000000000000000000000000 :  000000000 >## OO 3&77999999999 00    ,,,...............  @ 000000000000000              0000000",
"000000000000000000000000000000 @@  00000000 >## O 3&77999999999 000000    000000000000  @@ 0000000000000000000000000000000000000",
"0000000000000000000000000000000  @@   000000 > ;   &779999  99  0000000000000000000   ::  00000000000000000000000000000000000000",
"000000000000000000000000000000000  @::    0 - X; 62 77799 44  - 000000000000000    @@@  0000000000000000000000000000000000000000",
"00000000000000000000000000000000000   @@@@    $X; 6               000000       @:::   000000000000000000000000000000000000000000",
"0000000000000000000000000000000000000     @@@@ $X; ::::@@@@             @@@@@@@    000000000000000000000000000000000000000000000",
"000000000000000000000000000000000000 ++ 0      $$X@..      @@@@@@@@@::::       0000000000000000000000000000000000000000000000000",
"000000000000000000000000000000000000   0 333 33  2   ++ , ;             00000000000000000000000000000000000000000000000000000000",
"000000000000000000000000000000000000000 @    33 O  ,,   O@  OOOOOOO 000000000000000000000000000000000000000000000000000000000000",
"000000000000000000000000000000000000000 @OOOO  OOO OOOOOOO@ OOOOOOO@ 00000000000000000000000000000000000000000000000000000000000",
"00000000000000000000000000000000000000 @OOOOOOOOOO OOOOOOO@ OOOOOOOO@ 0000000000000000000000000000000000000000000000000000000000",
"00000000000000000000000000000000000000 @OOOOOOOOOO OOOOOOOO@ OOOOOOO,: 000000000000000000000000000000000000000000000000000000000",
"0000000000000000000000000000000000000 @OOOOOOOOOO OOOOOOOOO@ OOOOO,,,,: 00000000000000000000000000000000000000000000000000000000",
"0000000000000000000000000000000000000 @OOOOOOOOOO OOOOOOOOOO@ OOO===    00000000000000000000000000000000000000000000000000000000",
"000000000000000000000000000000000000 :,,,,OOOOOOO OOOOOOOOOO@ *==*  &&&; 0000000000000000000000000000000000000000000000000000000",
"000000000000000000000000000000000000 :,,==,,=OOOO OOOOOOOOO,,: ** ###;;; 0000000000000000000000000000000000000000000000000000000",
"0000000000000000000000000000000000000     **===OO OOOOOO,,,,,:   ##&;;;; 0000000000000000000000000000000000000000000000000000000",
"0000000000000000000000000000000000000 &&&&   ***O OOOO=,===   &###&&;;;;; 000000000000000000000000000000000000000000000000000000",
"0000000000000000000000000000000000000 &3;;;&&  * *OO===*   ####;;;##&;;;; 000000000000000000000000000000000000000000000000000000",
"0000000000000000000000000000000000000 3333;;&&&  *===*  000 #&#;;;;;#;;;; 000000000000000000000000000000000000000000000000000000",
"0000000000000000000000000000000000000    33;&&;&& **  00000 #&&##;;;;&;; 4 00000000000000000000000000000000000000000000000000000",
"0000000000000000000000000000000000000 444 3;&;3333  0000000 #&&&&###;;  4@ 00000000000000000000000000000000000000000000000000000",
"000000000000000000000000000000000000 @@@@4 &33    0000000000 #&###    44@@ 00000000000000000000000000000000000000000000000000000",
"000000000000000000000000000000000000 @@@@@4   00000000000000 ##   000 @@@@@ 0000000000000000000000000000000000000000000000000000",
"00000000000000000000000000000000000 @@@@@@@ 00000000000000000  0000000 @@@@ 0000000000000000000000000000000000000000000000000000",
"00000000000000000000000000000000000 @@@@@  0000000000000000000000000000 @@@ 0000000000000000000000000000000000000000000000000000",
"0000000000000000000000000000000000 @@@@  0000000000000000000000000000000 @@ 0000000000000000000000000000000000000000000000000000",
"0000000000000000000000000000000000 @@@ 000000000000000000000000000000000 @@@ 000000000000000000000000000000000000000000000000000",
"000000000000000000000000000000000  @@ 00000000000000000000000000000000000    000000000000000000000000000000000000000000000000000",
"000000000000000000000000000000000 4 @ 00000000000000000000000000000000000 44 000000000000000000000000000000000000000000000000000",
"00000000000000000000000000000000 + 4 000000000000000000000000000000000000   + 00000000000000000000000000000000000000000000000000",
"00000000000000000000000000000000 ++  000000000000000000000000000000000000 +++ 00000000000000000000000000000000000000000000000000",
"0000000000000000000000000000000 ++++ 000000000000000000000000000000000000 ++++ 0000000000000000000000000000000000000000000000000",
"000000000000000000000000000000 +++++ 000000000000000000000000000000000000 ++++ 0000000000000000000000000000000000000000000000000"
};
